<svg id="squiggle-blue" width="125%" height="200%" viewBox="0 0 1244 384" fill="none" xmlns="http://www.w3.org/2000/svg">
<a href="">
<g><path d="M86.562 323.439C93.582 325.939 100.612 328.379 108.982 331.329C104.972 322.179 109.312 316.409 113.852 310.709C123.642 298.409 128.832 284.539 127.872 268.709C127.762 266.969 126.582 265.039 125.362 263.659C121.242 258.979 116.892 254.509 112.622 249.959C108.642 253.679 104.412 257.909 99.882 261.779C95.362 265.649 90.872 269.899 83.762 268.649C81.872 274.489 79.062 279.889 73.212 282.459C69.682 284.009 65.732 284.849 61.892 285.339C59.462 285.649 58.212 286.449 57.512 288.679C55.722 294.359 57.472 299.389 60.132 304.309C60.772 305.479 61.302 306.709 61.892 307.909C55.162 301.759 52.842 294.539 56.582 286.209C52.152 284.419 47.332 283.459 43.762 280.809C36.922 275.749 30.022 270.379 24.532 263.959C12.142 249.479 4.35198 232.919 5.85198 213.139C5.93198 212.119 5.82198 210.839 5.26198 210.049C1.12198 204.159 0.631976 197.429 1.66198 190.799C3.22198 180.729 5.02198 170.629 7.75198 160.829C11.862 146.099 17.172 131.779 26.692 119.429C27.542 118.319 27.562 116.409 27.602 114.859C27.822 107.099 27.552 99.3095 28.192 91.5895C28.552 87.2095 30.342 82.9395 31.482 78.6195C31.902 78.6995 32.332 78.7895 32.752 78.8695C37.902 88.0495 38.132 98.2195 38.032 107.619C44.642 106.579 51.042 105.559 58.232 104.429C49.562 92.6395 40.732 80.4195 31.652 68.3795C24.292 58.6195 17.352 48.7795 16.152 36.0495C15.232 26.3095 19.282 17.7395 28.452 14.2395C35.072 11.7095 42.352 10.0995 49.422 9.72946C65.082 8.90946 80.342 11.4695 94.182 18.1495C98.582 13.3995 102.402 8.54945 106.962 4.52945C112.492 -0.350546 116.082 0.99946 118.372 7.94946C121.072 16.1795 121.152 24.6295 120.182 33.0595C118.872 44.4295 117.102 55.7495 115.622 67.0995C114.982 72.0295 119.432 79.2495 124.002 80.9895C132.132 84.0795 138.882 89.0395 143.802 96.2095C146.692 100.419 149.082 104.979 151.702 109.399C151.872 109.149 152.122 108.939 152.152 108.709C152.312 107.629 152.432 106.549 152.552 105.469C153.832 93.1295 155.882 80.7395 164.452 71.3195C168.442 66.9295 169.422 62.6195 169.822 57.4695C169.832 57.3295 169.822 57.1995 169.842 57.0595C170.982 49.9595 172.092 42.8495 177.192 36.1795C182.442 40.8995 187.412 45.3695 192.002 49.4895C193.532 45.2195 194.572 40.6395 196.732 36.6595C201.012 28.7495 208.892 28.2695 213.452 35.8495C216.562 41.0195 219.282 46.8595 220.372 52.7295C223.712 70.7994 226.302 89.0195 228.952 107.209C230.292 116.449 231.142 125.759 232.312 135.849C233.552 132.399 234.502 129.779 235.442 127.159C236.582 128.839 236.982 130.299 237.022 131.759C237.472 150.299 237.892 168.839 238.282 187.389C238.492 197.509 240.992 207.149 244.482 216.779C247.212 210.779 249.882 204.829 251.452 198.599C254.652 185.949 257.232 173.309 256.952 159.949C256.332 129.689 255.472 99.3195 260.812 69.3095C261.872 63.3795 263.862 57.3895 266.642 52.0595C269.952 45.7095 275.792 45.1095 281.422 49.5295C282.802 50.6095 284.182 51.8095 285.212 53.2095C301.112 74.6495 307.862 98.6095 304.152 125.139C303.112 132.579 299.982 139.459 294.712 145.359C294.052 144.859 293.522 144.459 293.002 144.059C289.062 141.069 287.872 141.389 286.532 146.049C285.782 148.659 285.032 151.329 284.772 154.019C283.052 171.659 281.332 189.299 279.892 206.959C278.592 222.899 277.182 238.759 270.302 253.539C269.892 254.419 269.752 255.759 270.112 256.609C271.542 259.989 272.952 263.419 274.862 266.539C278.162 271.929 281.902 271.959 285.742 266.909C286.312 266.149 286.782 265.309 287.242 264.479C293.742 252.769 295.362 240.149 294.862 226.949C294.352 213.599 294.202 200.219 294.522 186.859C294.672 180.639 296.282 174.439 299.872 168.209C300.792 170.019 301.552 171.029 301.832 172.149C304.662 183.639 307.892 195.059 310.072 206.669C313.132 222.989 314.332 239.669 320.042 255.439C320.452 256.559 321.012 257.619 321.502 258.709C322.472 257.059 322.472 255.719 322.472 254.369C322.652 225.119 319.782 196.069 316.792 167.019C314.002 139.879 310.972 112.729 313.242 85.3695C313.692 79.9695 314.352 74.5795 314.912 69.1895C315.492 69.1595 316.072 69.1295 316.652 69.0995C319.842 84.1595 323.032 99.2195 326.302 114.639C327.742 109.529 328.802 104.869 330.372 100.399C333.712 90.9095 341.252 87.3395 350.832 90.4195C352.462 90.9395 354.072 91.4995 355.982 92.1395C357.662 83.0495 359.262 74.4195 361.032 64.8495C363.202 66.8795 364.862 68.2095 366.252 69.7695C376.672 81.4595 381.232 95.8195 384.712 110.649C385.852 115.529 386.472 120.639 388.342 125.229C393.692 138.309 400.182 150.949 405.042 164.209C409.252 175.709 411.842 187.809 415.122 199.579C415.922 197.949 416.872 195.989 418.402 192.849C419.522 195.739 420.182 197.419 420.842 199.109C420.712 199.229 420.592 199.339 420.462 199.459C419.882 198.809 419.302 198.159 417.762 196.429C416.752 201.349 415.272 205.229 415.302 209.089C415.382 219.349 415.232 229.519 411.612 239.279C411.142 240.549 409.802 241.489 408.872 242.579C406.752 248.379 405.862 254.869 404.182 261.159C402.152 268.739 399.962 276.359 396.912 283.559C393.882 290.699 388.442 295.899 379.942 295.179C371.302 294.439 365.832 288.919 362.172 281.419C366.512 285.049 370.462 289.339 375.272 292.159C381.412 295.749 387.022 294.099 391.622 288.569C397.182 281.879 399.522 273.709 401.532 265.499C403.152 258.889 404.252 252.159 405.672 245.499C406.652 240.899 406.572 236.779 404.492 232.129C397.372 216.179 394.582 199.079 392.722 181.829C390.822 164.219 389.442 146.529 386.752 129.029C385.952 123.829 381.872 118.919 378.632 114.339C373.172 106.619 366.242 100.309 357.442 94.8795C356.622 101.319 355.832 107.189 355.132 113.059C350.432 152.149 349.422 191.379 350.622 230.709C350.762 235.199 350.922 239.769 350.352 244.199C349.302 252.289 351.672 259.529 354.822 266.699C355.642 268.559 356.312 270.489 357.042 272.379C354.712 267.989 352.372 263.599 350.082 259.289C348.502 268.909 346.942 278.409 345.382 287.919C344.882 287.899 344.392 287.869 343.892 287.849C343.592 286.749 343.152 285.669 343.012 284.549C341.522 272.509 339.932 260.479 338.672 248.409C336.922 231.729 335.702 214.989 333.742 198.339C332.102 184.409 329.402 170.599 327.802 156.669C326.532 145.579 326.752 134.299 325.332 123.229C323.742 110.809 321.102 98.5195 318.802 86.1895C318.232 83.1195 317.232 80.1295 316.432 77.0995C315.032 84.3895 313.962 91.5995 314.302 98.7495C315.462 122.579 317.032 146.389 318.622 170.199C320.272 194.819 322.262 219.429 323.792 244.059C324.202 250.589 323.442 257.199 323.212 264.289C322.222 263.609 321.782 263.469 321.622 263.179C320.922 261.859 320.252 260.519 319.652 259.149C314.152 246.519 312.212 233.029 309.872 219.599C307.402 205.389 304.532 191.239 301.732 177.089C301.452 175.689 300.472 174.419 299.812 173.089C299.292 173.159 298.782 173.229 298.262 173.299C297.552 179.439 296.312 185.559 296.212 191.709C295.932 209.029 296.312 226.349 296.042 243.669C295.902 252.559 293.192 260.889 287.702 268.029C283.382 273.659 278.272 273.719 273.762 268.229C271.532 265.519 269.822 262.389 267.642 259.109C265.792 261.629 264.482 259.869 263.692 258.019C261.722 253.419 258.872 248.819 258.402 244.019C257.332 232.939 257.412 221.739 257.152 210.589C257.062 206.499 257.372 202.409 257.432 198.319C257.482 194.369 257.442 190.419 257.442 186.469C253.902 198.389 251.472 210.469 243.162 220.799C241.372 214.309 239.582 207.819 238.102 202.439C234.972 200.599 232.522 199.139 230.082 197.709C230.082 202.959 230.002 208.219 230.102 213.469C230.292 224.409 230.622 235.519 226.552 245.779C223.702 252.969 222.612 260.029 222.792 267.579C222.922 273.029 222.822 278.529 222.272 283.939C220.912 297.159 221.172 310.729 214.352 322.869C213.782 323.889 213.752 325.239 213.592 326.449C210.772 347.319 200.392 363.809 183.772 376.289C170.422 386.319 159.202 382.829 147.242 377.399C146.602 377.109 146.222 376.249 145.722 375.649C146.222 375.769 146.732 375.889 146.562 375.849C142.022 369.479 136.712 363.089 132.632 355.979C129.432 350.409 127.872 343.909 125.322 337.939C124.772 336.649 123.262 335.269 121.932 334.919C119.082 334.179 116.052 334.079 112.052 333.589C115.672 339.489 118.902 344.729 122.102 349.979C123.362 352.039 124.552 354.139 125.772 356.219C121.692 350.479 117.082 345.019 113.692 338.899C111.042 334.109 107.392 332.219 102.542 330.539C93.992 327.569 85.782 323.619 77.422 320.079C80.482 321.159 83.502 322.349 86.562 323.439ZM74.912 241.969C73.662 249.949 77.582 261.909 83.002 265.659C83.882 258.739 84.892 252.179 82.552 245.609C83.602 242.029 83.072 239.039 79.842 236.609C77.942 235.179 76.452 233.199 74.652 231.329C72.962 238.779 73.362 239.599 79.602 243.159C80.702 243.779 81.572 244.789 82.552 245.619C80.022 244.429 77.492 243.209 74.912 241.969ZM104.452 75.7595C106.452 73.0195 108.122 70.0295 110.202 67.3495C110.912 66.4295 112.432 66.1395 114.382 65.1595C115.132 59.3295 116.442 52.4795 116.792 45.5795C117.352 34.4395 117.532 23.2595 117.282 12.1095C117.222 9.39946 115.452 5.53946 113.322 4.44946C111.762 3.64946 107.842 5.97946 105.822 7.83946C102.252 11.1295 99.322 15.1195 95.922 19.0495C97.412 20.3495 98.502 21.2895 99.582 22.2595C106.632 28.6095 109.572 36.3595 106.092 45.4295C102.382 55.0795 97.922 64.4295 93.842 73.9395C91.762 78.7795 89.802 83.6795 87.902 88.2695C91.382 85.8795 94.892 83.4695 98.392 81.0695C87.682 89.6195 85.912 102.249 83.132 114.419C82.472 117.319 81.912 120.249 81.282 123.299C79.562 123.209 78.122 123.129 76.682 123.049C78.802 128.059 80.862 132.959 82.932 137.859C80.672 133.889 78.412 129.919 75.532 124.849C73.252 132.839 71.402 139.829 69.252 146.719C67.842 151.259 68.002 155.379 69.512 160.029C71.172 165.109 71.332 170.689 71.982 176.069C73.012 184.639 73.912 193.239 74.772 201.009C79.202 199.909 82.822 197.939 85.992 198.519C89.412 199.139 92.402 202.139 95.562 204.089C94.082 197.519 92.202 190.749 91.082 183.859C89.882 176.489 88.562 168.979 88.802 161.579C89.092 152.829 85.752 145.419 82.772 137.719C84.522 140.759 86.262 143.799 88.022 146.859C89.282 138.369 90.102 129.789 91.902 121.419C94.692 108.449 98.172 95.6195 101.262 82.7095C101.472 81.8295 100.892 80.7695 100.682 79.7895C101.962 78.4495 103.372 77.2295 104.452 75.7595ZM133.522 334.179C131.332 334.749 129.012 334.879 126.212 335.279C130.942 352.439 138.122 367.489 153.172 377.509C157.152 380.159 163.882 377.979 166.182 372.639C168.352 367.609 169.982 362.049 170.402 356.619C172.022 335.649 168.672 315.029 164.952 294.479C164.762 293.419 164.182 292.429 163.272 291.439C160.922 303.009 159.192 314.599 150.672 323.519C156.162 314.549 159.162 304.769 160.452 294.359C160.872 290.979 160.002 289.029 157.262 286.849C151.512 282.289 146.212 277.139 140.892 272.059C139.762 270.979 139.342 269.159 137.872 268.169C127.022 289.429 121.452 310.429 126.172 333.989C131.012 333.199 135.642 332.439 140.272 331.689C138.042 332.539 135.832 333.579 133.522 334.179ZM6.98198 212.459C6.86198 221.639 8.53198 230.339 11.712 238.749C17.852 254.919 28.712 267.469 42.302 277.819C44.232 279.289 46.492 280.359 48.682 281.449C53.902 284.049 58.442 284.719 63.012 279.339C65.982 275.839 70.672 273.789 74.642 271.159C76.772 269.749 79.002 268.489 81.362 267.049C75.962 260.799 73.852 253.649 73.052 246.099C72.622 242.059 71.492 238.819 67.472 237.089C66.142 236.519 65.032 235.419 63.602 234.409C60.092 244.129 56.522 253.549 46.992 259.519C34.982 241.129 35.762 220.489 35.042 199.579C31.992 203.179 29.322 206.069 27.032 209.219C26.452 210.009 26.982 211.689 27.172 212.939C28.012 218.439 29.272 223.909 29.602 229.439C29.732 231.599 27.792 233.889 26.792 236.119C24.462 235.019 21.042 234.519 20.012 232.689C17.532 228.299 15.822 223.369 14.492 218.469C13.822 215.999 13.402 213.969 10.762 213.139C11.692 213.089 12.612 213.039 13.522 212.979C14.942 194.039 12.342 174.399 25.462 156.879C28.922 161.679 31.732 165.589 35.222 170.429C35.222 164.689 35.892 159.759 35.082 155.089C33.292 144.639 30.772 134.319 28.542 123.949C28.462 123.559 28.242 123.199 27.772 122.019C25.692 125.149 23.712 127.759 22.132 130.589C11.022 150.429 4.67198 171.689 4.56198 194.479C4.54198 199.669 6.66198 204.899 8.09198 210.029C8.44198 211.279 9.95198 212.199 10.932 213.269C9.76198 213.029 8.59198 212.789 6.98198 212.459ZM275.372 229.689C277.272 214.559 278.362 199.329 279.652 184.129C280.882 169.599 281.852 155.039 286.142 140.969C286.482 139.859 286.912 138.769 287.332 137.619C295.762 142.439 296.582 142.309 300.082 133.059C303.932 122.879 304.082 112.249 302.602 101.589C300.252 84.6295 295.482 68.5494 284.262 55.1194C276.602 45.9394 270.022 46.5895 265.962 57.6495C263.042 65.5895 261.282 74.1895 260.532 82.6395C259.072 99.0495 258.682 115.559 257.852 132.019C258.202 132.049 258.562 132.079 258.912 132.109C259.962 125.229 261.002 118.349 262.052 111.469C262.552 111.479 263.052 111.499 263.552 111.509C263.662 112.839 263.952 114.179 263.842 115.499C262.572 131.799 260.922 148.069 260.062 164.389C259.512 174.829 259.392 185.399 260.362 195.789C261.902 212.179 264.492 228.469 266.722 244.789C267.032 247.049 267.842 249.249 268.422 251.469C268.972 251.529 269.522 251.589 270.062 251.649C271.882 244.329 274.442 237.109 275.372 229.689ZM93.692 20.2895C86.402 16.1795 78.712 13.7895 70.682 12.1495C59.232 9.81946 47.872 10.0495 36.652 13.0995C19.752 17.6995 12.942 34.6694 21.962 50.5094C25.842 57.3194 31.112 63.3295 35.682 69.7595C43.582 80.8495 51.402 91.9995 59.312 103.079C61.172 105.689 63.272 108.139 65.252 110.669C65.612 110.509 65.972 110.349 66.342 110.189C70.542 78.8295 77.092 48.1895 93.692 20.2895ZM125.482 194.019C131.692 196.799 135.282 202.459 139.672 207.429C142.242 204.619 143.182 201.669 142.622 198.019C138.592 171.929 135.382 145.659 127.692 120.309C125.152 111.919 121.042 103.989 117.382 95.9795C116.542 94.1395 114.592 92.7995 112.682 90.7195C107.742 119.769 102.932 148.009 98.132 176.259C97.692 176.329 97.252 176.399 96.812 176.469C95.972 174.529 95.122 172.589 94.282 170.649C95.622 189.619 93.912 209.499 111.442 223.989C116.082 214.069 120.682 204.259 125.482 194.019ZM177.852 289.019C178.172 288.609 178.502 288.199 178.822 287.789C181.532 297.799 188.012 298.819 196.732 297.869C204.542 297.019 210.832 303.169 212.822 310.979C213.392 313.209 213.752 315.489 214.212 317.749C214.582 317.829 214.952 317.899 215.322 317.979C216.492 313.329 218.322 308.739 218.722 304.029C220.002 289.089 220.772 274.109 221.672 259.139C221.722 258.369 221.282 257.089 220.712 256.829C212.912 253.199 208.232 246.529 203.552 239.269C201.512 246.569 199.582 253.469 197.472 260.999C178.592 252.049 172.592 234.759 164.892 217.929C162.462 221.989 160.202 225.629 158.122 229.369C157.732 230.069 157.982 231.189 158.112 232.099C159.302 240.739 160.602 249.359 161.712 258.009C162.912 267.329 163.982 276.679 165.012 286.019C165.402 289.589 167.152 291.969 170.422 293.399C174.342 295.119 178.222 296.949 182.112 298.739C182.322 298.359 182.532 297.979 182.742 297.599C181.112 294.739 179.482 291.879 177.852 289.019ZM174.802 43.9895C173.622 49.0195 172.522 54.0895 171.782 59.1995C171.112 63.8795 172.052 67.7995 174.952 72.2695C179.382 79.0895 182.082 87.1995 184.612 95.0495C189.622 110.579 192.122 126.569 191.092 142.389C194.262 142.789 198.202 142.129 199.812 143.759C202.402 146.379 204.202 150.349 205.032 154.039C208.292 168.399 208.072 183.049 207.192 197.629C206.482 209.319 204.992 220.969 203.842 232.629C203.812 232.899 203.712 233.169 203.712 233.439C203.622 237.499 213.752 251.329 217.682 252.319C220.902 253.129 222.222 251.469 222.252 248.389C222.382 237.889 222.542 227.379 222.692 216.879C222.712 215.239 222.632 213.599 222.702 211.969C223.452 195.769 221.452 180.399 214.562 165.179C205.042 144.169 199.852 121.559 196.182 98.7995C193.932 84.8595 193.392 70.6495 191.942 56.5795C191.742 54.6895 191.142 52.4894 189.942 51.1194C186.232 46.8794 182.152 42.9695 177.632 38.3295C176.292 40.9195 175.182 42.3695 174.802 43.9895ZM348.492 198.489C348.232 164.869 350.442 131.409 355.392 98.1595C355.902 94.7295 355.222 93.0395 351.812 91.8095C343.512 88.7995 337.132 91.0495 333.282 99.2195C328.322 109.739 327.142 120.869 328.422 132.369C330.832 153.909 332.592 175.539 335.732 196.979C337.662 210.129 341.582 222.989 344.732 235.949C345.682 239.839 347.052 243.619 348.502 248.329C348.512 230.959 348.612 214.719 348.492 198.489ZM196.922 319.039C192.972 314.219 189.752 308.789 186.402 303.499C185.172 301.559 183.892 300.529 181.522 299.839C176.612 298.419 171.942 296.159 166.892 294.129C168.052 302.019 169.372 309.769 170.302 317.549C172.082 332.429 174.482 347.299 172.012 362.339C170.762 369.939 167.782 376.399 160.212 379.849C163.662 381.829 169.152 381.869 173.902 380.139C182.402 377.049 188.772 371.169 194.272 364.289C202.702 353.729 209.222 342.179 211.742 328.699C211.912 327.789 211.942 326.859 212.112 325.329C204.722 327.779 200.532 323.439 196.922 319.039ZM227.932 184.719C229.012 171.279 230.422 157.859 231.022 144.399C231.302 138.059 230.212 131.629 229.422 125.289C227.142 107.179 225.142 89.0095 222.152 71.0095C220.492 60.9995 217.322 51.1995 214.342 41.4595C212.992 37.0395 210.532 32.3595 205.012 32.4095C199.552 32.4595 197.982 37.3195 196.382 41.5595C194.082 47.6595 193.922 53.0795 198.172 59.0795C207.012 71.5595 211.632 86.0495 215.052 100.849C220.962 126.479 222.552 152.589 223.512 178.779C223.632 182.029 225.332 185.229 226.302 188.459C226.742 188.359 227.192 188.269 227.632 188.169C227.732 187.019 227.842 185.869 227.932 184.719ZM177.332 156.209C177.892 155.489 178.092 154.159 177.912 153.209C172.792 126.139 170.342 98.7795 168.912 71.2995C168.912 71.2195 168.732 71.1495 167.772 70.3695C165.852 72.7895 163.302 74.9495 162.092 77.6995C155.422 92.9095 152.272 108.599 155.462 125.329C158.362 140.559 158.222 155.919 155.722 171.279C155.122 174.979 155.902 178.909 156.062 183.089C163.552 173.679 170.492 164.979 177.332 156.209ZM82.882 95.9995C89.362 80.4295 96.442 65.1095 102.982 49.5595C104.532 45.8695 105.542 41.6895 105.662 37.7095C105.872 30.2995 102.142 24.7995 94.782 20.8695C91.662 27.4295 88.312 33.7695 85.582 40.3595C76.622 61.9995 71.282 84.5795 68.202 107.779C67.422 113.629 71.052 115.969 74.652 119.739C77.512 111.349 79.762 103.489 82.882 95.9995ZM148.642 188.429C152.052 180.179 153.252 172.829 152.632 164.779C151.632 151.759 150.972 138.629 151.552 125.599C152.112 112.999 147.102 103.189 139.422 94.1695C134.622 88.5295 128.702 84.3295 121.342 81.8495C130.482 117.469 139.442 152.479 148.642 188.429ZM167.492 213.409C166.942 214.489 166.642 216.189 167.102 217.199C173.202 230.409 179.182 243.729 189.782 254.189C190.262 254.669 190.742 255.159 191.262 255.589C195.012 258.729 196.302 258.469 197.682 253.709C199.202 248.489 200.372 243.169 201.522 237.859C201.762 236.759 201.562 235.369 201.092 234.329C193.762 218.169 188.562 201.309 184.252 184.139C184.062 183.379 183.772 182.639 183.612 182.169C178.162 192.679 172.762 203.009 167.492 213.409ZM37.162 146.959C36.362 154.769 39.342 161.349 43.102 167.729C43.782 168.879 45.232 169.579 46.322 170.479C47.112 169.469 48.152 168.559 48.642 167.419C53.752 155.549 59.142 143.789 63.622 131.689C65.412 126.859 65.502 121.269 65.552 116.019C65.562 114.219 63.352 112.079 61.692 110.629C55.512 105.249 45.842 105.179 39.442 110.409C38.582 111.109 38.062 112.679 38.042 113.859C37.912 120.399 37.982 126.939 37.982 133.479C37.742 133.479 37.502 133.479 37.262 133.479C37.242 137.979 37.612 142.509 37.162 146.959ZM194.042 57.7195C194.712 99.3195 205.412 138.659 221.462 176.789C218.702 135.639 216.922 94.2695 194.042 57.7195ZM204.722 211.259C205.742 193.849 206.922 176.409 204.192 159.039C203.712 155.969 202.892 152.919 201.932 149.959C200.932 146.849 198.922 144.829 195.262 145.189C191.622 145.539 190.602 147.639 190.022 151.099C188.682 159.129 186.622 167.029 185.022 175.009C184.612 177.069 184.232 179.459 184.852 181.359C190.102 197.359 195.592 213.279 201.032 229.209C201.202 229.699 201.562 230.119 201.832 230.579C202.182 230.599 202.542 230.619 202.892 230.639C203.522 224.189 204.342 217.729 204.722 211.259ZM407.492 232.979C407.852 231.269 408.282 229.569 408.572 227.839C409.882 219.949 412.712 211.939 412.152 204.179C410.302 178.769 402.292 154.949 390.442 132.419C390.142 131.859 389.702 131.369 389.332 130.839C394.622 165.119 394.312 200.139 407.492 232.979ZM187.482 146.659C188.362 145.719 188.662 143.999 188.772 142.599C190.042 126.229 187.892 110.249 182.802 94.6795C180.822 88.6095 178.602 82.6095 176.202 76.6995C175.402 74.7195 173.692 73.0995 171.892 71.5695C171.462 99.2895 174.352 126.489 179.002 154.349C182.312 151.409 185.072 149.209 187.482 146.659ZM139.252 212.649C133.292 221.249 127.372 229.789 121.492 238.359C121.172 238.829 121.012 239.739 121.252 240.199C125.512 248.249 127.562 257.749 136.472 263.009C151.202 241.889 147.532 222.619 139.252 212.649ZM104.712 233.929C104.952 232.999 104.482 231.829 104.152 230.829C102.392 225.539 100.272 220.349 98.852 214.969C97.242 208.859 93.172 204.869 88.392 201.379C85.942 199.579 83.082 198.819 80.402 200.789C77.672 202.789 76.662 205.389 77.632 209.009C79.912 217.549 81.852 226.189 83.822 234.809C84.832 239.209 88.472 242.389 92.932 242.449C96.662 242.499 103.802 237.479 104.712 233.929ZM158.682 184.629C157.922 185.729 157.412 187.549 157.742 188.779C159.842 196.629 162.212 204.399 164.492 212.199C164.922 212.249 165.352 212.299 165.782 212.339C168.152 207.909 170.742 203.579 172.842 199.019C175.742 192.729 178.502 186.349 180.872 179.849C181.742 177.459 181.732 174.549 181.392 171.969C180.812 167.549 179.662 163.209 178.752 158.829C178.252 158.689 177.752 158.549 177.262 158.419C171.042 167.149 164.792 175.839 158.682 184.629ZM98.762 102.369C97.102 109.799 96.052 117.399 95.342 124.989C94.312 135.989 93.492 147.029 93.272 158.059C93.182 162.479 94.952 166.929 95.882 171.359C96.362 171.339 96.832 171.319 97.312 171.289C101.722 144.469 106.142 117.649 110.732 89.7195C103.162 91.9195 100.022 96.7095 98.762 102.369ZM64.412 158.389C64.742 156.899 64.052 155.189 63.832 153.569C62.222 154.089 60.562 154.479 59.032 155.179C58.222 155.549 57.392 156.329 57.002 157.129C52.092 167.099 45.362 176.209 43.092 187.419C42.092 192.339 43.652 197.099 47.772 200.089C49.952 201.669 52.042 203.379 53.802 204.749C57.412 189.099 60.992 173.759 64.412 158.389ZM362.252 69.4195C361.292 73.7295 360.492 77.9295 359.412 82.0595C357.602 89.0295 357.902 94.1695 365.342 98.8395C372.032 103.039 376.782 110.319 382.362 116.269C383.252 117.219 383.992 118.319 385.122 119.739C383.732 104.389 371.802 73.8995 362.252 69.4195ZM137.352 211.909C137.732 211.349 137.912 210.149 137.572 209.699C134.242 205.179 130.782 200.749 126.722 195.469C123.492 202.469 120.882 208.099 118.282 213.729C117.942 214.469 117.612 215.219 117.242 215.949C111.702 226.849 111.702 226.849 119.922 237.199C125.812 228.669 131.622 220.319 137.352 211.909ZM48.702 231.499C48.692 235.789 46.082 240.179 44.192 244.319C42.982 246.969 44.172 254.649 46.792 255.539C47.852 255.899 49.792 255.209 50.662 254.329C56.392 248.529 59.122 241.109 61.302 233.469C61.532 232.659 60.742 231.549 60.402 230.579C58.622 225.509 55.582 220.499 55.352 215.369C55.032 208.169 51.582 204.189 46.662 201.459C47.412 211.289 48.732 221.399 48.702 231.499ZM159.612 286.669C160.022 286.379 160.432 286.079 160.842 285.789C162.392 270.059 155.412 256.019 152.052 241.259C151.562 241.159 151.082 241.069 150.592 240.969C149.392 244.279 147.692 247.509 147.112 250.919C146.082 256.979 145.502 263.069 142.512 266.299C148.342 273.239 153.982 279.949 159.612 286.669ZM34.662 192.729C36.512 182.269 34.912 172.179 27.932 163.259C25.782 160.509 24.622 160.539 23.032 163.659C18.322 172.929 17.072 182.989 16.042 192.719C22.652 192.729 28.622 192.729 34.662 192.729ZM106.072 235.849C100.552 243.069 94.042 246.699 85.282 241.139C84.702 244.639 85.382 246.979 88.402 248.229C91.862 249.659 92.622 252.109 91.042 255.359C89.222 259.099 87.342 262.799 85.512 266.469C91.152 268.389 101.022 261.179 111.512 246.949C109.812 243.489 108.092 239.969 106.072 235.849ZM59.422 190.719C58.962 192.989 58.672 195.289 58.412 197.589C56.932 211.079 55.642 206.069 65.442 217.089C69.932 199.469 70.902 182.289 64.922 164.149C62.972 173.549 61.162 182.119 59.422 190.719ZM203.232 321.929C204.652 323.009 206.692 323.669 208.482 323.749C210.872 323.859 212.842 322.629 212.372 319.759C211.792 316.179 211.502 312.389 210.102 309.119C206.712 301.199 202.112 298.819 193.562 299.659C191.532 299.859 189.502 300.059 186.472 300.359C191.812 308.379 195.942 316.379 203.232 321.929ZM123.742 298.909C119.472 305.109 114.252 311.979 109.822 319.319C106.002 325.649 109.222 331.499 116.452 332.579C118.952 332.949 121.472 333.239 123.742 333.539C123.742 321.459 123.742 309.759 123.742 298.909ZM41.932 243.589C49.132 238.299 48.562 204.889 40.852 197.459C37.612 213.339 37.362 228.419 41.932 243.589ZM344.402 278.989C344.672 279.019 344.932 279.059 345.202 279.089C345.542 277.539 345.912 275.989 346.232 274.429C346.562 272.829 346.932 271.229 347.152 269.619C348.252 261.519 349.132 253.659 345.892 245.539C342.592 237.289 340.802 228.439 338.362 219.859C337.982 219.919 337.592 219.969 337.212 220.029C339.602 239.679 342.002 259.329 344.402 278.989ZM152.642 206.169C154.582 212.469 155.562 219.069 157.212 226.689C159.692 222.559 161.712 219.279 163.622 215.949C163.902 215.449 163.872 214.609 163.672 214.029C161.142 206.339 158.552 198.679 155.722 190.209C153.462 195.809 150.822 200.279 152.642 206.169ZM227.602 195.069C227.642 193.129 225.812 191.139 224.842 189.179C224.432 189.269 224.022 189.349 223.612 189.439C223.612 208.769 223.612 228.089 223.612 248.509C229.162 230.339 227.212 212.599 227.602 195.069ZM232.612 154.359C232.212 154.349 231.822 154.349 231.422 154.339C231.132 158.249 230.822 162.159 230.552 166.079C230.272 170.149 229.982 174.219 229.792 178.289C229.652 181.139 229.982 184.049 229.542 186.839C228.702 192.289 231.162 195.909 235.252 198.859C235.792 198.759 236.342 198.659 236.882 198.559C235.452 183.819 234.032 169.089 232.612 154.359ZM17.872 194.779C17.072 195.009 16.022 196.209 15.992 196.979C15.822 202.249 15.902 207.529 16.482 212.969C20.322 209.579 17.692 204.179 20.312 199.409C22.232 202.399 23.842 204.899 25.952 208.189C29.162 203.819 32.132 199.769 35.342 195.399C29.072 192.999 23.462 193.159 17.872 194.779ZM29.742 115.209C33.462 112.789 36.632 110.659 36.352 105.329C35.942 97.4795 35.982 89.6495 32.412 81.5395C29.242 89.5095 27.962 106.899 29.742 115.209ZM15.922 214.839C16.192 221.349 17.312 227.649 22.082 232.679C22.972 233.619 24.592 233.859 25.872 234.429C26.312 233.199 27.232 231.929 27.122 230.759C26.542 224.569 25.692 218.409 24.872 211.689C21.352 212.919 18.832 213.809 15.922 214.839ZM67.852 213.919C66.952 218.069 67.402 221.339 71.662 224.379C71.492 213.859 77.992 203.929 71.242 193.299C70.092 200.539 69.282 207.299 67.852 213.919ZM30.452 123.939C32.192 131.649 33.162 139.549 34.462 147.359C34.862 147.309 35.252 147.249 35.652 147.199C35.652 136.239 35.652 125.279 35.652 113.579C31.932 116.499 29.312 118.899 30.452 123.939ZM73.342 123.949C73.712 121.959 70.382 119.279 68.752 116.919C68.222 117.139 67.692 117.369 67.162 117.589C67.162 127.449 67.162 137.309 67.162 147.039C69.282 139.499 71.892 131.829 73.342 123.949ZM266.022 256.339C263.802 241.659 261.582 227.059 259.322 212.089C257.672 233.529 260.672 253.309 266.022 256.339ZM45.082 175.839C45.382 175.149 45.162 173.969 44.732 173.289C42.442 169.649 40.002 166.099 37.652 162.569C35.442 168.729 36.542 176.519 40.942 184.339C42.432 181.349 43.872 178.639 45.082 175.839ZM74.442 227.129C74.862 230.169 78.612 232.749 80.862 235.539C81.302 235.349 81.742 235.169 82.172 234.979C80.352 226.739 78.522 218.499 76.702 210.259C76.242 210.289 75.792 210.319 75.332 210.339C74.922 215.959 73.682 221.689 74.442 227.129ZM155.012 224.719C153.482 218.859 152.372 212.889 150.722 207.019C148.472 216.219 149.282 225.219 151.872 234.569C154.982 231.519 156.012 228.589 155.012 224.719ZM112.992 86.2995C112.932 87.1395 113.142 88.2495 113.682 88.8195C115.442 90.6795 117.562 92.1995 119.242 94.1195C120.912 96.0295 122.202 98.2595 124.432 100.099C122.562 93.9995 120.862 87.8295 118.692 81.8395C118.272 80.6795 116.012 80.1995 113.982 79.0595C113.512 82.2795 113.132 84.2795 112.992 86.2995ZM188.392 149.909C181.832 152.529 179.362 156.849 180.602 162.679C181.252 165.709 181.912 168.749 182.572 171.779C182.962 171.829 183.352 171.879 183.742 171.929C185.272 164.699 186.802 157.479 188.392 149.909ZM81.532 268.879C74.242 273.579 67.432 277.969 60.632 282.359C60.832 282.749 61.032 283.149 61.232 283.539C69.972 284.399 79.532 277.799 81.532 268.879ZM153.542 127.739C153.542 139.979 153.542 152.209 153.542 164.449C153.982 164.439 154.432 164.429 154.872 164.409C156.272 152.139 156.382 139.899 153.542 127.739ZM109.522 88.0095C111.342 86.0395 111.592 82.5995 112.542 79.7695C105.652 78.1295 105.292 78.2695 103.412 83.8595C102.342 87.0495 101.492 90.3195 100.602 93.3495C103.782 91.5495 107.322 90.3995 109.522 88.0095ZM235.662 133.369C230.872 146.519 235.932 159.329 235.882 172.319C236.382 172.339 236.882 172.369 237.382 172.389C236.802 159.379 236.232 146.379 235.662 133.369ZM144.972 196.079C145.222 196.179 145.482 196.279 145.732 196.379C146.252 194.489 147.562 192.429 147.172 190.749C144.522 179.229 141.532 167.779 138.642 156.309C138.402 156.339 138.172 156.379 137.932 156.409C140.282 169.629 142.632 182.859 144.972 196.079ZM60.782 229.399C66.422 222.619 65.062 217.099 56.602 211.609C58.162 218.229 59.472 223.819 60.782 229.399ZM71.642 238.079C71.642 232.229 72.942 226.489 66.832 222.549C63.592 233.589 62.502 231.909 71.642 238.079ZM156.612 233.729C151.512 235.569 152.662 241.199 159.382 253.049C158.452 246.629 157.532 240.199 156.612 233.729ZM126.762 260.189C126.262 253.049 120.352 249.669 116.962 243.749C115.632 247.699 120.772 255.529 126.762 260.189ZM113.192 72.4095C113.232 71.3995 112.502 70.3595 112.112 69.3295C111.242 69.8195 110.052 70.0995 109.552 70.8395C108.232 72.8395 107.202 75.0295 105.802 77.6195C108.082 77.6195 109.952 77.6195 112.202 77.6195C112.582 75.8195 113.122 74.1195 113.192 72.4095ZM83.082 101.659C81.112 107.619 79.152 113.579 77.182 119.529C77.632 119.669 78.072 119.819 78.522 119.959C83.252 114.899 82.692 108.119 83.082 101.659ZM85.722 261.479C90.652 256.109 90.822 251.959 85.722 248.159C85.722 252.979 85.722 257.159 85.722 261.479ZM408.882 237.359C409.422 237.459 409.972 237.549 410.512 237.649C413.192 231.549 412.792 224.899 413.432 218.429C413.052 218.379 412.662 218.319 412.282 218.269C411.142 224.629 410.012 230.989 408.882 237.359ZM58.892 152.659C60.922 152.169 62.422 151.799 64.142 151.379C64.142 147.519 64.142 143.639 64.142 139.759C63.882 139.739 63.622 139.719 63.362 139.689C61.932 143.849 60.502 147.989 58.892 152.659ZM150.442 194.839C152.542 190.259 157.332 186.349 153.502 179.969C152.562 185.329 148.912 189.509 150.442 194.839ZM146.412 211.259C146.772 211.289 147.142 211.329 147.502 211.359C148.072 206.309 148.642 201.259 149.222 196.199C148.752 196.219 148.292 196.229 147.822 196.249C143.872 201.019 146.922 206.259 146.412 211.259ZM116.282 240.219C116.772 239.969 117.272 239.719 117.762 239.469C117.602 234.699 113.222 232.009 111.472 228.029C110.822 228.359 110.162 228.679 109.512 229.009C111.762 232.739 114.022 236.479 116.282 240.219ZM137.742 266.159C142.442 264.299 144.652 259.729 144.242 253.149C142.202 257.239 140.152 261.329 137.742 266.159ZM129.992 266.779C129.992 270.449 129.992 273.689 129.992 276.929C130.192 276.999 130.382 277.079 130.582 277.149C131.702 274.399 132.822 271.659 134.052 268.639C132.662 267.999 131.502 267.469 129.992 266.779ZM108.922 232.169C108.492 232.399 108.062 232.639 107.632 232.869C109.642 236.459 111.642 240.049 113.652 243.649C114.262 243.359 114.862 243.069 115.472 242.779C113.282 239.239 111.102 235.699 108.922 232.169ZM91.162 177.719C91.212 177.709 91.272 177.699 91.322 177.689C91.322 172.099 91.322 166.509 91.322 160.919C90.942 160.939 90.562 160.949 90.172 160.969C90.502 166.549 90.832 172.139 91.162 177.719ZM91.602 138.739C91.542 138.719 91.472 138.709 91.412 138.689C91.042 143.899 90.672 149.119 90.302 154.329C90.732 154.339 91.162 154.349 91.602 154.349C91.602 149.159 91.602 143.949 91.602 138.739ZM36.742 190.829C40.442 188.009 38.422 185.409 36.742 182.819C36.742 185.379 36.742 187.949 36.742 190.829ZM19.972 203.599C20.102 206.019 20.232 208.439 20.422 211.919C25.002 208.249 21.452 206.019 19.972 203.599ZM147.882 241.039C151.802 238.089 150.082 235.219 147.882 231.159C147.882 235.099 147.882 237.899 147.882 241.039ZM144.442 214.069C144.102 211.579 143.762 209.079 143.352 206.079C139.112 209.779 142.612 211.779 144.442 214.069ZM129.172 259.329C128.372 264.059 131.552 264.929 134.752 265.709C133.012 263.719 131.262 261.719 129.172 259.329Z" stroke="#2E3192" stroke-width="2" stroke-miterlimit="10"/>
<path d="M362.182 281.369C366.522 284.999 370.472 289.289 375.282 292.109C381.422 295.699 387.032 294.049 391.632 288.519C397.192 281.829 399.532 273.659 401.542 265.449C403.162 258.839 404.262 252.109 405.682 245.449C406.662 240.849 406.582 236.729 404.502 232.079C397.382 216.129 394.592 199.029 392.732 181.779C390.832 164.169 389.452 146.479 386.762 128.979C385.962 123.779 381.882 118.869 378.642 114.289C373.182 106.569 366.252 100.259 357.452 94.8295C356.632 101.269 355.842 107.139 355.142 113.009C350.442 152.099 349.432 191.329 350.632 230.659C350.772 235.149 350.932 239.719 350.362 244.149C349.312 252.239 351.682 259.479 354.832 266.649C355.652 268.509 356.322 270.439 357.052 272.329C358.762 275.349 360.472 278.359 362.182 281.369Z" stroke="#2E3192" stroke-width="2" stroke-miterlimit="10"/>
<path d="M77.442 320.019C80.482 321.159 83.502 322.349 86.552 323.429C93.572 325.929 100.602 328.369 108.972 331.319C104.962 322.169 109.302 316.399 113.842 310.699C123.632 298.399 128.822 284.529 127.862 268.699C127.752 266.959 126.572 265.029 125.352 263.649C121.232 258.969 116.882 254.499 112.612 249.949C108.632 253.669 104.402 257.899 99.872 261.769C95.352 265.639 90.862 269.889 83.752 268.639C81.862 274.479 79.052 279.879 73.202 282.449C69.672 283.999 65.722 284.839 61.882 285.329C59.452 285.639 58.202 286.439 57.502 288.669C55.712 294.349 57.462 299.379 60.122 304.299C60.762 305.469 61.292 306.699 61.882 307.899C67.072 311.929 72.262 315.979 77.442 320.019Z" stroke="#2E3192" stroke-width="2" stroke-miterlimit="10"/>
<path d="M539.442 112.849C538.792 111.909 538.132 110.969 537.482 110.029C536.402 109.599 535.282 109.269 534.262 108.729C523.812 103.279 512.992 102.109 502.602 108.069C492.552 113.829 489.672 124.069 488.672 134.879C488.562 136.089 489.312 137.489 489.942 138.639C493.272 144.729 496.452 150.919 500.142 156.789C503.752 162.529 507.612 168.159 511.942 173.369C515.172 177.249 518.412 176.689 521.252 172.419C522.602 170.399 523.782 168.169 524.542 165.869C528.992 152.439 533.452 139.019 537.552 125.479C538.772 121.449 538.842 117.069 539.442 112.849Z" stroke="#2E3192" stroke-width="2" stroke-miterlimit="10"/>
<path d="M540.992 123.139C536.972 135.279 533.032 147.449 528.822 159.519C527.262 163.999 525.412 168.449 523.082 172.559C519.732 178.459 515.532 178.889 510.382 174.369C509.052 173.209 507.702 171.969 506.742 170.519C502.322 163.819 497.982 157.079 493.742 150.259C491.892 147.289 490.372 144.109 488.692 141.029C487.882 163.939 491.002 185.999 498.632 207.239C501.422 214.999 504.712 222.789 509.132 229.699C514.842 238.619 522.442 238.429 527.662 229.239C532.602 220.539 536.492 211.149 540.052 201.769C543.812 191.869 546.602 181.599 549.902 171.519C551.132 167.749 553.902 165.839 557.872 165.569C561.792 165.299 562.212 168.679 563.602 170.999C568.032 178.339 572.112 185.919 576.902 193.019C581.452 199.769 587.262 199.789 592.182 193.259C597.122 186.689 600.102 179.339 599.402 170.819C598.622 161.289 594.332 153.079 589.912 144.919C587.092 139.719 583.982 134.669 581.002 129.559C582.282 129.639 583.122 130.089 583.522 130.789C587.992 138.599 592.642 146.319 596.762 154.309C603.622 167.629 602.592 180.989 595.382 193.779C590.512 202.429 582.742 203.129 576.632 195.279C571.642 188.869 567.702 181.629 563.352 174.729C561.562 171.899 560.222 167.409 556.492 168.279C554.172 168.819 551.982 172.719 550.952 175.549C546.402 188.089 542.752 200.959 537.852 213.349C535.092 220.329 531.232 227.119 526.652 233.059C521.832 239.319 515.012 239.179 509.752 233.309C506.452 229.629 503.592 225.239 501.682 220.689C490.642 194.449 485.732 166.969 485.972 138.539C485.982 137.099 485.832 135.439 485.122 134.269C482.202 129.519 479.372 124.639 475.842 120.349C473.502 117.509 470.332 114.919 466.992 113.419C461.992 111.169 458.312 114.149 458.342 119.469C458.462 140.909 457.982 162.319 453.522 183.399C452.472 188.349 450.632 193.129 449.042 198.329C443.962 195.409 441.902 191.339 440.622 187.079C439.332 182.809 438.952 178.259 438.182 173.899C434.612 202.849 431.082 214.899 425.002 218.089C423.492 211.819 422.002 205.629 420.502 199.429C420.632 199.309 420.752 199.199 420.882 199.079C422.692 203.969 424.502 208.849 426.712 214.799C428.162 211.619 429.772 209.339 430.242 206.839C432.402 195.489 434.772 184.149 436.052 172.689C437.682 158.069 438.102 143.309 439.472 128.659C440.562 117.019 443.502 105.839 450.662 96.2195C451.492 95.1095 452.572 94.1795 454.402 92.2495C455.752 99.7695 456.892 106.089 458.072 112.639C464.982 110.029 470.732 111.559 475.422 116.709C477.792 119.319 479.862 122.199 481.942 125.049C483.382 127.019 484.622 129.139 486.292 131.719C487.122 128.529 487.722 126.179 488.352 123.839C491.472 112.279 498.132 104.409 510.682 103.099C514.862 102.659 519.152 102.469 523.312 102.899C528.812 103.469 534.002 105.209 537.492 110.029C536.412 109.599 535.292 109.269 534.272 108.729C523.822 103.279 513.002 102.109 502.612 108.069C492.562 113.829 489.682 124.069 488.682 134.879C488.572 136.089 489.322 137.489 489.952 138.639C493.282 144.729 496.462 150.919 500.152 156.789C503.762 162.529 507.622 168.159 511.952 173.369C515.182 177.249 518.422 176.689 521.262 172.419C522.612 170.399 523.792 168.169 524.552 165.869C529.002 152.439 533.462 139.019 537.562 125.479C538.782 121.449 538.852 117.059 539.452 112.839C542.402 115.909 542.212 119.469 540.992 123.139ZM446.762 134.829C442.222 147.199 439.452 160.019 440.622 173.249C441.162 179.399 443.082 185.449 444.612 191.489C444.882 192.569 446.282 193.369 447.162 194.299C447.952 193.269 449.232 192.349 449.462 191.209C451.362 182.029 453.832 172.869 454.662 163.579C455.992 148.689 456.202 133.709 456.882 118.759C456.072 118.539 455.272 118.309 454.462 118.089C451.872 123.659 448.872 129.079 446.762 134.829ZM439.562 154.619C439.952 152.259 440.282 149.879 440.732 147.529C441.192 145.119 441.732 142.729 442.302 140.349C444.542 130.989 447.412 121.939 454.772 115.099C455.062 114.829 455.542 114.489 455.542 114.199C455.412 108.469 455.592 102.689 453.152 97.1395C439.692 114.199 440.622 134.659 439.562 154.619Z" stroke="#2E3192" stroke-width="2" stroke-miterlimit="10"/>
<path d="M1242.62 136.759C1241.46 136.699 1240.3 136.569 1239.14 136.579C1141.63 137.249 1044.13 138.119 946.622 138.499C913.852 138.629 881.042 138.279 848.332 136.649C825.642 135.519 802.982 132.439 780.472 129.079C760.362 126.079 740.772 126.209 721.622 133.429C710.052 137.789 698.602 142.499 687.192 147.279C682.092 149.419 677.742 148.429 674.002 144.869C670.362 141.399 667.132 137.509 663.682 133.839C662.472 132.549 661.252 131.239 659.862 130.159C654.782 126.189 649.072 126.359 644.992 131.369C642.042 134.999 640.072 139.439 637.762 143.579C636.842 145.239 636.292 147.099 635.382 148.769C631.762 155.429 627.472 156.269 622.212 150.669C617.472 145.619 613.602 139.759 609.052 134.519C604.532 129.309 600.132 123.829 594.812 119.519C588.882 114.719 582.822 115.859 577.032 121.589C577.882 123.339 578.772 125.209 580.012 127.759C580.802 118.019 586.562 114.979 593.562 120.709C599.372 125.469 603.852 131.839 608.912 137.509C613.982 143.179 618.632 149.309 624.212 154.419C629.882 159.609 633.422 158.369 636.682 151.399C639.272 145.869 641.362 140.019 644.652 134.939C648.982 128.269 654.602 127.959 660.462 133.389C664.462 137.099 667.952 141.369 672.062 144.929C680.232 151.979 683.592 151.019 691.092 147.289C711.962 136.929 733.742 128.729 757.402 128.569C767.532 128.499 777.732 130.519 787.802 132.189C811.412 136.099 835.172 138.509 859.062 138.729C936.212 139.469 1013.37 140.149 1090.52 140.169C1139.68 140.179 1188.84 138.969 1237.99 138.299C1239.56 138.279 1241.13 138.149 1242.7 138.069C1242.71 137.619 1242.66 137.189 1242.62 136.759Z" stroke="#2E3192" stroke-width="2" stroke-miterlimit="10"/>
<path d="M145.742 375.589C146.242 375.709 146.752 375.829 146.582 375.789C142.042 369.419 136.732 363.029 132.652 355.919C129.452 350.349 127.892 343.849 125.342 337.879C124.792 336.589 123.282 335.209 121.952 334.859C119.102 334.119 116.072 334.019 112.072 333.529C115.692 339.429 118.922 344.669 122.122 349.919C123.382 351.979 124.572 354.079 125.792 356.159C132.442 362.639 139.092 369.119 145.742 375.589Z" stroke="#2E3192" stroke-width="2" stroke-miterlimit="10"/>
<path d="M270.062 251.639C271.882 244.329 274.442 237.109 275.372 229.689C277.272 214.559 278.362 199.329 279.652 184.129C280.882 169.599 281.852 155.039 286.142 140.969C286.482 139.859 286.912 138.769 287.332 137.619C295.762 142.439 296.582 142.309 300.082 133.059C303.932 122.879 304.082 112.249 302.602 101.589C300.252 84.6295 295.482 68.5495 284.262 55.1195C276.602 45.9395 270.022 46.5895 265.962 57.6495C263.042 65.5895 261.282 74.1895 260.532 82.6395C259.072 99.0495 258.682 115.559 257.852 132.019C258.202 132.049 258.562 132.079 258.912 132.109C259.962 125.229 261.002 118.349 262.052 111.469C262.552 111.479 263.052 111.499 263.552 111.509C263.662 112.839 263.952 114.179 263.842 115.499C262.572 131.799 260.922 148.069 260.062 164.389C259.512 174.829 259.392 185.399 260.362 195.789C261.902 212.179 264.492 228.469 266.722 244.789C267.032 247.049 267.842 249.249 268.422 251.469C268.972 251.519 269.512 251.579 270.062 251.639Z" stroke="#2E3192" stroke-width="2" stroke-miterlimit="10"/>
<path d="M66.342 110.179C70.542 78.8295 77.092 48.1894 93.682 20.2894C86.392 16.1794 78.702 13.7894 70.672 12.1494C59.222 9.81945 47.862 10.0494 36.642 13.0994C19.742 17.6994 12.932 34.6694 21.952 50.5094C25.832 57.3194 31.102 63.3294 35.672 69.7594C43.572 80.8494 51.392 91.9995 59.302 103.079C61.162 105.689 63.262 108.139 65.242 110.669C65.622 110.499 65.982 110.339 66.342 110.179Z" stroke="#2E3192" stroke-width="2" stroke-miterlimit="10"/>
<path d="M111.442 223.979C116.082 214.059 120.682 204.249 125.482 194.009C131.692 196.789 135.282 202.449 139.672 207.419C142.242 204.609 143.182 201.659 142.622 198.009C138.592 171.919 135.382 145.649 127.692 120.299C125.152 111.909 121.042 103.979 117.382 95.9695C116.542 94.1295 114.592 92.7895 112.682 90.7095C107.742 119.759 102.932 147.999 98.132 176.249C97.692 176.319 97.252 176.389 96.812 176.459C95.972 174.519 95.122 172.579 94.282 170.639C95.622 189.609 93.912 209.489 111.442 223.979Z" stroke="#2E3192" stroke-width="2" stroke-miterlimit="10"/>
<path d="M182.732 297.599C181.102 294.739 179.482 291.879 177.852 289.019C178.172 288.609 178.502 288.199 178.822 287.789C181.532 297.799 188.012 298.819 196.732 297.869C204.542 297.019 210.832 303.169 212.822 310.979C213.392 313.209 213.752 315.489 214.212 317.749C214.582 317.829 214.952 317.899 215.322 317.979C216.492 313.329 218.322 308.739 218.722 304.029C220.002 289.089 220.772 274.109 221.672 259.139C221.722 258.369 221.282 257.089 220.712 256.829C212.912 253.199 208.232 246.529 203.552 239.269C201.512 246.569 199.582 253.469 197.472 260.999C178.592 252.049 172.592 234.759 164.892 217.929C162.462 221.989 160.202 225.629 158.122 229.369C157.732 230.069 157.982 231.189 158.112 232.099C159.302 240.739 160.602 249.359 161.712 258.009C162.912 267.329 163.982 276.679 165.012 286.019C165.402 289.589 167.152 291.969 170.422 293.399C174.342 295.119 178.222 296.949 182.112 298.739C182.322 298.359 182.522 297.979 182.732 297.599Z" stroke="#2E3192" stroke-width="2" stroke-miterlimit="10"/>
<path d="M177.642 38.2995C176.302 40.9295 175.182 42.3695 174.802 43.9895C173.622 49.0195 172.522 54.0895 171.782 59.1995C171.112 63.8795 172.052 67.7995 174.952 72.2695C179.382 79.0895 182.082 87.1995 184.612 95.0495C189.622 110.579 192.122 126.569 191.092 142.389C194.262 142.789 198.202 142.129 199.812 143.759C202.402 146.379 204.202 150.349 205.032 154.039C208.292 168.399 208.072 183.049 207.192 197.629C206.482 209.319 204.992 220.969 203.842 232.629C203.812 232.899 203.712 233.169 203.712 233.439C203.622 237.499 213.752 251.329 217.682 252.319C220.902 253.129 222.222 251.469 222.252 248.389C222.382 237.889 222.542 227.379 222.692 216.879C222.712 215.239 222.632 213.599 222.702 211.969C223.452 195.769 221.452 180.399 214.562 165.179C205.042 144.169 199.852 121.559 196.182 98.7995C193.932 84.8595 193.392 70.6495 191.942 56.5795C191.742 54.6895 191.142 52.4895 189.942 51.1195C186.252 46.8495 182.162 42.9395 177.642 38.2995Z" stroke="#2E3192" stroke-width="2" stroke-miterlimit="10"/>
<path d="M348.512 248.319C348.512 230.949 348.612 214.719 348.492 198.489C348.232 164.869 350.442 131.409 355.392 98.1595C355.902 94.7295 355.222 93.0395 351.812 91.8095C343.512 88.7995 337.132 91.0495 333.282 99.2195C328.322 109.739 327.142 120.869 328.422 132.369C330.832 153.909 332.592 175.539 335.732 196.979C337.662 210.129 341.582 222.989 344.732 235.949C345.682 239.829 347.062 243.609 348.512 248.319Z" stroke="#2E3192" stroke-width="2" stroke-miterlimit="10"/>
<path d="M10.932 213.269C9.762 213.029 8.592 212.789 6.982 212.459C6.862 221.639 8.532 230.339 11.712 238.749C17.852 254.919 28.712 267.469 42.302 277.819C44.232 279.289 46.492 280.359 48.682 281.449C53.902 284.049 58.442 284.719 63.012 279.339C65.982 275.839 70.672 273.789 74.642 271.159C76.772 269.749 79.002 268.489 81.362 267.049C75.962 260.799 73.852 253.649 73.052 246.099C72.622 242.059 71.492 238.819 67.472 237.089C66.142 236.519 65.032 235.419 63.602 234.409C60.092 244.129 56.522 253.549 46.992 259.519C34.982 241.129 35.762 220.489 35.042 199.579C31.992 203.179 29.322 206.069 27.032 209.219C26.452 210.009 26.982 211.689 27.172 212.939C28.012 218.439 29.272 223.909 29.602 229.439C29.732 231.599 27.792 233.889 26.792 236.119C24.462 235.019 21.042 234.519 20.012 232.689C17.532 228.299 15.822 223.369 14.492 218.469C13.822 215.999 13.402 213.969 10.762 213.139L10.932 213.269Z" stroke="#2E3192" stroke-width="2" stroke-miterlimit="10"/>
<path d="M212.112 325.329C204.722 327.789 200.522 323.439 196.922 319.039C192.972 314.219 189.752 308.789 186.402 303.499C185.172 301.559 183.892 300.529 181.522 299.839C176.612 298.419 171.942 296.159 166.892 294.129C168.052 302.019 169.372 309.769 170.302 317.549C172.082 332.429 174.482 347.299 172.012 362.339C170.762 369.939 167.782 376.399 160.212 379.849C163.662 381.829 169.152 381.869 173.902 380.139C182.402 377.049 188.772 371.169 194.272 364.289C202.702 353.729 209.222 342.179 211.742 328.699C211.922 327.789 211.952 326.859 212.112 325.329Z" stroke="#2E3192" stroke-width="2" stroke-miterlimit="10"/>
<path d="M140.292 331.689C138.042 332.539 135.842 333.569 133.522 334.179C131.332 334.749 129.012 334.879 126.212 335.279C130.942 352.439 138.122 367.489 153.172 377.509C157.152 380.159 163.882 377.979 166.182 372.639C168.352 367.609 169.982 362.049 170.402 356.619C172.022 335.649 168.672 315.029 164.952 294.479C164.762 293.419 164.182 292.429 163.272 291.439C160.922 303.009 159.192 314.599 150.682 323.509C147.232 326.239 143.762 328.959 140.292 331.689Z" stroke="#2E3192" stroke-width="2" stroke-miterlimit="10"/>
<path d="M227.622 188.169C227.722 187.019 227.832 185.869 227.932 184.719C229.012 171.279 230.422 157.859 231.022 144.399C231.302 138.059 230.212 131.629 229.422 125.289C227.142 107.179 225.142 89.0094 222.152 71.0094C220.492 60.9994 217.322 51.1995 214.342 41.4595C212.992 37.0395 210.532 32.3595 205.012 32.4095C199.552 32.4595 197.982 37.3194 196.382 41.5594C194.082 47.6594 193.922 53.0795 198.172 59.0795C207.012 71.5595 211.632 86.0495 215.052 100.849C220.962 126.479 222.552 152.589 223.512 178.779C223.632 182.029 225.332 185.229 226.302 188.459C226.732 188.359 227.182 188.269 227.622 188.169Z" stroke="#2E3192" stroke-width="2" stroke-miterlimit="10"/>
<path d="M156.072 183.109C163.552 173.679 170.492 164.989 177.342 156.209C177.902 155.489 178.102 154.159 177.922 153.209C172.802 126.139 170.352 98.7795 168.922 71.2995C168.922 71.2195 168.742 71.1494 167.782 70.3694C165.862 72.7894 163.312 74.9494 162.102 77.6994C155.432 92.9094 152.282 108.599 155.472 125.329C158.372 140.559 158.232 155.919 155.732 171.279C155.122 174.999 155.912 178.919 156.072 183.109Z" stroke="#2E3192" stroke-width="2" stroke-miterlimit="10"/>
<path d="M140.292 331.689C143.762 328.959 147.232 326.239 150.692 323.519C156.172 314.549 159.172 304.779 160.462 294.369C160.882 290.989 160.012 289.039 157.272 286.859C151.522 282.299 146.222 277.149 140.902 272.069C139.772 270.989 139.352 269.169 137.882 268.179C127.032 289.439 121.462 310.439 126.182 333.999C131.022 333.199 135.662 332.449 140.292 331.689Z" stroke="#2E3192" stroke-width="2" stroke-miterlimit="10"/>
<path d="M74.642 119.729C77.512 111.349 79.752 103.489 82.872 95.9995C89.352 80.4295 96.432 65.1095 102.972 49.5595C104.522 45.8695 105.532 41.6895 105.652 37.7095C105.862 30.2995 102.132 24.7995 94.772 20.8695C91.652 27.4295 88.302 33.7695 85.572 40.3595C76.612 61.9995 71.272 84.5795 68.192 107.779C67.412 113.619 71.032 115.959 74.642 119.729Z" stroke="#2E3192" stroke-width="2" stroke-miterlimit="10"/>
<path d="M121.362 81.8495C130.482 117.469 139.442 152.469 148.642 188.429C152.052 180.179 153.252 172.829 152.632 164.779C151.632 151.759 150.972 138.629 151.552 125.599C152.112 112.999 147.102 103.189 139.422 94.1694C134.632 88.5294 128.722 84.3295 121.362 81.8495Z" stroke="#2E3192" stroke-width="2" stroke-miterlimit="10"/>
<path d="M183.612 182.169C178.162 192.689 172.762 203.019 167.492 213.409C166.942 214.489 166.642 216.189 167.102 217.199C173.202 230.409 179.182 243.729 189.782 254.189C190.262 254.669 190.742 255.159 191.262 255.589C195.012 258.729 196.302 258.469 197.682 253.709C199.202 248.489 200.372 243.169 201.522 237.859C201.762 236.759 201.562 235.369 201.092 234.329C193.762 218.169 188.562 201.309 184.252 184.139C184.062 183.369 183.772 182.629 183.612 182.169Z" stroke="#2E3192" stroke-width="2" stroke-miterlimit="10"/>
<path d="M37.242 133.479C37.242 137.979 37.612 142.509 37.162 146.959C36.362 154.769 39.342 161.349 43.102 167.729C43.782 168.879 45.232 169.579 46.322 170.479C47.112 169.469 48.152 168.559 48.642 167.419C53.752 155.549 59.142 143.789 63.622 131.689C65.412 126.859 65.502 121.269 65.552 116.019C65.562 114.219 63.352 112.079 61.692 110.629C55.512 105.249 45.842 105.179 39.442 110.409C38.582 111.109 38.062 112.679 38.042 113.859C37.912 120.399 37.982 126.939 37.982 133.479C37.722 133.479 37.482 133.479 37.242 133.479Z" stroke="#2E3192" stroke-width="2" stroke-miterlimit="10"/>
<path d="M221.472 176.789C218.702 135.639 216.922 94.2695 194.052 57.7195C194.712 99.3195 205.412 138.659 221.472 176.789Z" stroke="#2E3192" stroke-width="2" stroke-miterlimit="10"/>
<path d="M202.892 230.649C203.512 224.189 204.342 217.729 204.722 211.259C205.742 193.849 206.922 176.409 204.192 159.039C203.712 155.969 202.892 152.919 201.932 149.959C200.932 146.849 198.922 144.829 195.262 145.189C191.622 145.539 190.602 147.639 190.022 151.099C188.682 159.129 186.622 167.029 185.022 175.009C184.612 177.069 184.232 179.459 184.852 181.359C190.102 197.359 195.592 213.279 201.032 229.209C201.202 229.699 201.562 230.119 201.832 230.579C202.192 230.609 202.542 230.629 202.892 230.649Z" stroke="#2E3192" stroke-width="2" stroke-miterlimit="10"/>
<path d="M82.922 137.839C80.662 133.869 78.412 129.909 75.532 124.829C73.252 132.819 71.402 139.809 69.252 146.699C67.842 151.239 68.002 155.359 69.512 160.009C71.172 165.089 71.332 170.669 71.982 176.049C73.012 184.619 73.912 193.219 74.772 200.989C79.202 199.889 82.822 197.919 85.992 198.499C89.412 199.119 92.402 202.119 95.562 204.069C94.082 197.499 92.202 190.729 91.082 183.839C89.882 176.469 88.562 168.959 88.802 161.559C89.092 152.809 85.752 145.399 82.782 137.709C82.792 137.709 82.922 137.839 82.922 137.839Z" stroke="#2E3192" stroke-width="2" stroke-miterlimit="10"/>
<path d="M10.782 213.129C11.712 213.079 12.632 213.029 13.542 212.969C14.962 194.029 12.362 174.389 25.482 156.869C28.942 161.669 31.752 165.579 35.242 170.419C35.242 164.679 35.912 159.749 35.102 155.079C33.312 144.629 30.792 134.309 28.562 123.939C28.482 123.549 28.262 123.189 27.792 122.009C25.712 125.139 23.732 127.749 22.152 130.579C11.042 150.419 4.69199 171.679 4.58199 194.469C4.56199 199.659 6.68199 204.889 8.11199 210.019C8.46199 211.269 9.97199 212.189 10.942 213.259C10.932 213.269 10.782 213.129 10.782 213.129Z" stroke="#2E3192" stroke-width="2" stroke-miterlimit="10"/>
<path d="M100.702 79.7795C101.962 78.4495 103.382 77.2295 104.452 75.7595C106.452 73.0195 108.122 70.0295 110.202 67.3495C110.912 66.4295 112.432 66.1395 114.382 65.1595C115.132 59.3295 116.442 52.4795 116.792 45.5795C117.352 34.4395 117.532 23.2595 117.282 12.1095C117.222 9.39947 115.452 5.53947 113.322 4.44947C111.762 3.64947 107.842 5.97947 105.822 7.83947C102.252 11.1295 99.322 15.1195 95.922 19.0495C97.412 20.3495 98.502 21.2895 99.582 22.2595C106.632 28.6095 109.572 36.3595 106.092 45.4295C102.382 55.0795 97.922 64.4295 93.842 73.9395C91.762 78.7795 89.802 83.6795 87.902 88.2695C91.382 85.8795 94.892 83.4695 98.392 81.0695C99.162 80.6295 99.932 80.2095 100.702 79.7795Z" stroke="#2E3192" stroke-width="2" stroke-miterlimit="10"/>
<path d="M389.332 130.849C394.632 165.119 394.312 200.139 407.502 232.979C407.862 231.269 408.292 229.569 408.582 227.839C409.892 219.949 412.722 211.939 412.162 204.179C410.312 178.769 402.302 154.949 390.452 132.419C390.142 131.859 389.702 131.379 389.332 130.849Z" stroke="#2E3192" stroke-width="2" stroke-miterlimit="10"/>
<path d="M179.002 154.349C182.302 151.409 185.072 149.199 187.472 146.659C188.352 145.719 188.652 143.999 188.762 142.599C190.032 126.229 187.882 110.249 182.792 94.6795C180.812 88.6095 178.592 82.6094 176.192 76.6994C175.392 74.7194 173.682 73.0995 171.882 71.5695C171.462 99.2895 174.352 126.499 179.002 154.349Z" stroke="#2E3192" stroke-width="2" stroke-miterlimit="10"/>
<path d="M136.472 263.009C151.192 241.889 147.532 222.619 139.252 212.649C133.292 221.249 127.372 229.789 121.492 238.359C121.172 238.829 121.012 239.739 121.252 240.199C125.512 248.259 127.562 257.759 136.472 263.009Z" stroke="#2E3192" stroke-width="2" stroke-miterlimit="10"/>
<path d="M92.932 242.449C96.662 242.499 103.802 237.479 104.722 233.929C104.962 232.999 104.492 231.829 104.162 230.829C102.402 225.539 100.282 220.349 98.862 214.969C97.252 208.859 93.182 204.869 88.402 201.379C85.952 199.579 83.092 198.819 80.412 200.789C77.682 202.789 76.672 205.389 77.642 209.009C79.922 217.549 81.862 226.189 83.832 234.809C84.832 239.209 88.482 242.389 92.932 242.449Z" stroke="#2E3192" stroke-width="2" stroke-miterlimit="10"/>
<path d="M177.252 158.419C171.042 167.139 164.782 175.829 158.682 184.629C157.922 185.729 157.412 187.549 157.742 188.779C159.842 196.629 162.212 204.399 164.492 212.199C164.922 212.249 165.352 212.299 165.782 212.339C168.152 207.909 170.742 203.579 172.842 199.019C175.742 192.729 178.502 186.349 180.872 179.849C181.742 177.459 181.732 174.549 181.392 171.969C180.812 167.549 179.662 163.209 178.752 158.829C178.252 158.699 177.752 158.559 177.252 158.419Z" stroke="#2E3192" stroke-width="2" stroke-miterlimit="10"/>
<path d="M110.742 89.7195C103.162 91.9195 100.032 96.6995 98.762 102.359C97.102 109.789 96.052 117.389 95.342 124.979C94.312 135.979 93.492 147.019 93.272 158.049C93.182 162.469 94.952 166.919 95.882 171.349C96.362 171.329 96.832 171.309 97.312 171.279C101.732 144.479 106.142 117.659 110.742 89.7195Z" stroke="#2E3192" stroke-width="2" stroke-miterlimit="10"/>
<path d="M100.702 79.7794C99.932 80.2094 99.162 80.6394 98.392 81.0594C87.682 89.6094 85.912 102.239 83.132 114.409C82.472 117.309 81.912 120.239 81.282 123.289C79.562 123.199 78.122 123.119 76.682 123.039C78.802 128.049 80.862 132.949 82.932 137.839C82.932 137.839 82.802 137.709 82.792 137.709C84.532 140.749 86.282 143.779 88.042 146.849C89.302 138.359 90.122 129.779 91.922 121.409C94.712 108.439 98.192 95.6094 101.282 82.6994C101.492 81.8194 100.912 80.7594 100.702 79.7794Z" stroke="#2E3192" stroke-width="2" stroke-miterlimit="10"/>
<path d="M53.802 204.749C57.412 189.099 60.992 173.759 64.412 158.389C64.742 156.899 64.052 155.189 63.832 153.569C62.222 154.089 60.562 154.479 59.032 155.179C58.222 155.549 57.392 156.329 57.002 157.129C52.092 167.099 45.362 176.209 43.092 187.419C42.092 192.339 43.652 197.099 47.772 200.089C49.952 201.669 52.042 203.379 53.802 204.749Z" stroke="#2E3192" stroke-width="2" stroke-miterlimit="10"/>
<path d="M385.112 119.739C383.732 104.379 371.802 73.8995 362.252 69.4195C361.292 73.7295 360.492 77.9295 359.412 82.0595C357.602 89.0295 357.902 94.1695 365.342 98.8395C372.032 103.039 376.782 110.319 382.362 116.269C383.242 117.219 383.992 118.319 385.112 119.739Z" stroke="#2E3192" stroke-width="2" stroke-miterlimit="10"/>
<path d="M119.912 237.199C125.822 228.669 131.622 220.309 137.352 211.909C137.732 211.349 137.912 210.149 137.572 209.699C134.242 205.179 130.782 200.749 126.722 195.469C123.492 202.469 120.882 208.099 118.282 213.729C117.942 214.469 117.612 215.219 117.242 215.949C111.702 226.849 111.702 226.849 119.912 237.199Z" stroke="#2E3192" stroke-width="2" stroke-miterlimit="10"/>
<path d="M46.662 201.449C47.412 211.289 48.732 221.389 48.702 231.499C48.692 235.789 46.082 240.179 44.192 244.319C42.982 246.969 44.172 254.649 46.792 255.539C47.852 255.899 49.792 255.209 50.662 254.329C56.392 248.529 59.122 241.109 61.302 233.469C61.532 232.659 60.742 231.549 60.402 230.579C58.622 225.509 55.582 220.499 55.352 215.369C55.032 208.159 51.592 204.189 46.662 201.449Z" stroke="#2E3192" stroke-width="2" stroke-miterlimit="10"/>
<path d="M142.512 266.299C148.342 273.239 153.972 279.949 159.612 286.669C160.022 286.379 160.432 286.079 160.842 285.789C162.392 270.059 155.412 256.019 152.052 241.259C151.562 241.159 151.082 241.069 150.592 240.969C149.392 244.279 147.692 247.509 147.112 250.919C146.082 256.969 145.502 263.069 142.512 266.299Z" stroke="#2E3192" stroke-width="2" stroke-miterlimit="10"/>
<path d="M16.052 192.729C22.652 192.729 28.622 192.729 34.662 192.729C36.512 182.269 34.912 172.179 27.932 163.259C25.782 160.509 24.622 160.539 23.032 163.659C18.322 172.929 17.072 182.989 16.052 192.729Z" stroke="#2E3192" stroke-width="2" stroke-miterlimit="10"/>
<path d="M111.512 246.959C109.812 243.499 108.092 239.969 106.072 235.849C100.552 243.069 94.042 246.699 85.282 241.139C84.702 244.639 85.382 246.979 88.402 248.229C91.862 249.659 92.622 252.109 91.042 255.359C89.222 259.099 87.342 262.799 85.512 266.469C91.152 268.399 101.022 261.199 111.512 246.959Z" stroke="#2E3192" stroke-width="2" stroke-miterlimit="10"/>
<path d="M64.922 164.149C62.972 173.549 61.152 182.129 59.422 190.719C58.962 192.989 58.672 195.289 58.412 197.589C56.932 211.079 55.642 206.069 65.442 217.089C69.942 199.459 70.902 182.289 64.922 164.149Z" stroke="#2E3192" stroke-width="2" stroke-miterlimit="10"/>
<path d="M186.462 300.359C191.812 308.379 195.942 316.379 203.222 321.929C204.642 323.009 206.682 323.669 208.472 323.749C210.862 323.859 212.832 322.629 212.362 319.759C211.782 316.179 211.492 312.389 210.092 309.119C206.702 301.199 202.102 298.819 193.552 299.659C191.532 299.859 189.492 300.059 186.462 300.359Z" stroke="#2E3192" stroke-width="2" stroke-miterlimit="10"/>
<path d="M123.742 333.539C123.742 321.459 123.742 309.759 123.742 298.899C119.472 305.099 114.252 311.969 109.822 319.309C106.002 325.639 109.222 331.489 116.452 332.569C118.952 332.949 121.462 333.249 123.742 333.539Z" stroke="#2E3192" stroke-width="2" stroke-miterlimit="10"/>
<path d="M40.852 197.459C37.612 213.339 37.362 228.409 41.932 243.589C49.122 238.299 48.562 204.889 40.852 197.459Z" stroke="#2E3192" stroke-width="2" stroke-miterlimit="10"/>
<path d="M337.202 220.019C339.602 239.679 342.002 259.329 344.402 278.989C344.672 279.019 344.932 279.059 345.202 279.089C345.542 277.539 345.912 275.989 346.232 274.429C346.562 272.829 346.932 271.229 347.152 269.619C348.252 261.519 349.132 253.659 345.892 245.539C342.592 237.289 340.802 228.439 338.362 219.859C337.962 219.909 337.582 219.969 337.202 220.019Z" stroke="#2E3192" stroke-width="2" stroke-miterlimit="10"/>
<path d="M155.712 190.199C153.462 195.809 150.822 200.279 152.632 206.169C154.572 212.469 155.552 219.069 157.202 226.689C159.682 222.559 161.702 219.279 163.612 215.949C163.892 215.449 163.862 214.609 163.662 214.029C161.132 206.339 158.552 198.669 155.712 190.199Z" stroke="#2E3192" stroke-width="2" stroke-miterlimit="10"/>
<path d="M223.612 248.509C229.162 230.329 227.202 212.589 227.602 195.069C227.642 193.129 225.812 191.139 224.842 189.179C224.432 189.269 224.022 189.349 223.612 189.439C223.612 208.769 223.612 228.089 223.612 248.509Z" stroke="#2E3192" stroke-width="2" stroke-miterlimit="10"/>
<path d="M236.882 198.559C235.462 183.829 234.032 169.089 232.612 154.359C232.212 154.349 231.822 154.349 231.422 154.339C231.132 158.249 230.822 162.159 230.552 166.079C230.272 170.149 229.982 174.219 229.792 178.289C229.652 181.139 229.982 184.049 229.542 186.839C228.702 192.289 231.162 195.909 235.252 198.859C235.792 198.759 236.332 198.659 236.882 198.559Z" stroke="#2E3192" stroke-width="2" stroke-miterlimit="10"/>
<path d="M35.352 195.409C29.072 192.999 23.472 193.159 17.872 194.779C17.072 195.009 16.022 196.209 15.992 196.979C15.822 202.249 15.902 207.529 16.482 212.969C20.322 209.579 17.692 204.179 20.312 199.409C22.232 202.399 23.842 204.899 25.952 208.189C29.172 203.819 32.142 199.779 35.352 195.409Z" stroke="#2E3192" stroke-width="2" stroke-miterlimit="10"/>
<path d="M32.422 81.5395C29.242 89.5095 27.962 106.899 29.752 115.209C33.472 112.789 36.642 110.659 36.362 105.329C35.942 97.4795 35.982 89.6495 32.422 81.5395Z" stroke="#2E3192" stroke-width="2" stroke-miterlimit="10"/>
<path d="M24.872 211.689C21.362 212.929 18.832 213.819 15.922 214.839C16.192 221.349 17.312 227.649 22.082 232.679C22.972 233.619 24.592 233.859 25.872 234.429C26.312 233.199 27.232 231.929 27.122 230.759C26.532 224.559 25.692 218.399 24.872 211.689Z" stroke="#2E3192" stroke-width="2" stroke-miterlimit="10"/>
<path d="M82.562 245.639C80.032 244.419 77.492 243.209 74.912 241.969C73.662 249.949 77.582 261.909 83.002 265.659C83.882 258.739 84.892 252.179 82.552 245.609L82.562 245.639Z" stroke="#2E3192" stroke-width="2" stroke-miterlimit="10"/>
<path d="M71.242 193.299C70.082 200.539 69.282 207.299 67.852 213.919C66.952 218.069 67.402 221.339 71.662 224.379C71.482 213.859 77.992 203.929 71.242 193.299Z" stroke="#2E3192" stroke-width="2" stroke-miterlimit="10"/>
<path d="M35.652 113.569C31.932 116.499 29.322 118.899 30.452 123.929C32.192 131.639 33.162 139.539 34.462 147.349C34.862 147.299 35.252 147.239 35.652 147.189C35.652 136.239 35.652 125.269 35.652 113.569Z" stroke="#2E3192" stroke-width="2" stroke-miterlimit="10"/>
<path d="M67.162 147.039C69.282 139.509 71.892 131.829 73.342 123.949C73.712 121.959 70.382 119.279 68.752 116.919C68.222 117.139 67.692 117.369 67.162 117.589C67.162 127.449 67.162 137.299 67.162 147.039Z" stroke="#2E3192" stroke-width="2" stroke-miterlimit="10"/>
<path d="M259.322 212.089C257.672 233.519 260.672 253.309 266.022 256.339C263.802 241.659 261.582 227.059 259.322 212.089Z" stroke="#2E3192" stroke-width="2" stroke-miterlimit="10"/>
<path d="M40.942 184.339C42.422 181.339 43.872 178.639 45.082 175.839C45.382 175.149 45.162 173.969 44.732 173.289C42.442 169.649 40.002 166.099 37.652 162.569C35.442 168.729 36.532 176.519 40.942 184.339Z" stroke="#2E3192" stroke-width="2" stroke-miterlimit="10"/>
<path d="M75.332 210.349C74.922 215.959 73.682 221.689 74.442 227.129C74.862 230.169 78.612 232.749 80.862 235.539C81.302 235.349 81.742 235.169 82.172 234.979C80.352 226.739 78.522 218.499 76.702 210.259C76.242 210.289 75.792 210.319 75.332 210.349Z" stroke="#2E3192" stroke-width="2" stroke-miterlimit="10"/>
<path d="M151.872 234.579C154.982 231.519 156.022 228.589 155.012 224.719C153.482 218.859 152.372 212.889 150.722 207.019C148.472 216.229 149.282 225.229 151.872 234.579Z" stroke="#2E3192" stroke-width="2" stroke-miterlimit="10"/>
<path d="M113.972 79.0495C113.512 82.2895 113.132 84.2895 112.992 86.2995C112.932 87.1395 113.142 88.2495 113.682 88.8195C115.442 90.6795 117.562 92.1995 119.242 94.1195C120.912 96.0295 122.202 98.2595 124.432 100.099C122.562 93.9995 120.862 87.8295 118.692 81.8395C118.262 80.6695 116.002 80.1895 113.972 79.0495Z" stroke="#2E3192" stroke-width="2" stroke-miterlimit="10"/>
<path d="M183.752 171.929C185.272 164.709 186.802 157.489 188.402 149.909C181.842 152.529 179.372 156.849 180.612 162.679C181.262 165.709 181.922 168.749 182.582 171.779C182.972 171.829 183.362 171.879 183.752 171.929Z" stroke="#2E3192" stroke-width="2" stroke-miterlimit="10"/>
<path d="M61.232 283.539C69.972 284.399 79.532 277.799 81.532 268.879C74.242 273.579 67.432 277.969 60.632 282.359C60.832 282.749 61.032 283.139 61.232 283.539Z" stroke="#2E3192" stroke-width="2" stroke-miterlimit="10"/>
<path d="M154.872 164.409C156.272 152.129 156.382 139.889 153.542 127.739C153.542 139.979 153.542 152.209 153.542 164.449C153.992 164.439 154.432 164.429 154.872 164.409Z" stroke="#2E3192" stroke-width="2" stroke-miterlimit="10"/>
<path d="M100.622 93.3495C103.782 91.5495 107.322 90.3995 109.532 88.0095C111.352 86.0395 111.602 82.5995 112.552 79.7695C105.662 78.1295 105.302 78.2695 103.422 83.8595C102.352 87.0495 101.502 90.3195 100.622 93.3495Z" stroke="#2E3192" stroke-width="2" stroke-miterlimit="10"/>
<path d="M237.372 172.389C236.802 159.379 236.222 146.379 235.652 133.369C230.862 146.519 235.922 159.329 235.872 172.319C236.382 172.339 236.882 172.369 237.372 172.389Z" stroke="#2E3192" stroke-width="2" stroke-miterlimit="10"/>
<path d="M137.942 156.409C140.282 169.629 142.632 182.859 144.972 196.079C145.222 196.179 145.482 196.279 145.732 196.379C146.252 194.489 147.562 192.429 147.172 190.749C144.522 179.229 141.532 167.779 138.642 156.309C138.412 156.339 138.182 156.369 137.942 156.409Z" stroke="#2E3192" stroke-width="2" stroke-miterlimit="10"/>
<path d="M56.602 211.609C58.152 218.229 59.462 223.819 60.782 229.399C66.422 222.619 65.062 217.109 56.602 211.609Z" stroke="#2E3192" stroke-width="2" stroke-miterlimit="10"/>
<path d="M66.832 222.549C63.592 233.579 62.502 231.899 71.642 238.079C71.642 232.219 72.932 226.489 66.832 222.549Z" stroke="#2E3192" stroke-width="2" stroke-miterlimit="10"/>
<path d="M82.552 245.609C83.602 242.029 83.072 239.039 79.842 236.609C77.942 235.179 76.452 233.199 74.652 231.329C72.962 238.779 73.362 239.599 79.602 243.159C80.702 243.779 81.572 244.789 82.552 245.629C82.562 245.639 82.552 245.609 82.552 245.609Z" stroke="#2E3192" stroke-width="2" stroke-miterlimit="10"/>
<path d="M159.372 253.049C158.452 246.629 157.532 240.199 156.602 233.729C151.512 235.579 152.662 241.199 159.372 253.049Z" stroke="#2E3192" stroke-width="2" stroke-miterlimit="10"/>
<path d="M116.962 243.749C115.632 247.699 120.772 255.529 126.762 260.189C126.262 253.049 120.352 249.669 116.962 243.749Z" stroke="#2E3192" stroke-width="2" stroke-miterlimit="10"/>
<path d="M112.212 77.6295C112.582 75.8195 113.122 74.1195 113.192 72.4095C113.232 71.3995 112.502 70.3595 112.112 69.3295C111.242 69.8195 110.052 70.0995 109.552 70.8395C108.232 72.8395 107.202 75.0295 105.802 77.6195C108.092 77.6295 109.962 77.6295 112.212 77.6295Z" stroke="#2E3192" stroke-width="2" stroke-miterlimit="10"/>
<path d="M78.532 119.959C83.252 114.889 82.702 108.119 83.092 101.649C81.122 107.609 79.162 113.569 77.192 119.519C77.632 119.669 78.082 119.819 78.532 119.959Z" stroke="#2E3192" stroke-width="2" stroke-miterlimit="10"/>
<path d="M85.722 248.159C85.722 252.989 85.722 257.159 85.722 261.479C90.642 256.109 90.822 251.959 85.722 248.159Z" stroke="#2E3192" stroke-width="2" stroke-miterlimit="10"/>
<path d="M412.282 218.259C411.152 224.629 410.012 230.989 408.882 237.359C409.422 237.459 409.972 237.549 410.512 237.649C413.192 231.549 412.792 224.899 413.432 218.429C413.052 218.369 412.662 218.319 412.282 218.259Z" stroke="#2E3192" stroke-width="2" stroke-miterlimit="10"/>
<path d="M63.362 139.699C61.932 143.849 60.502 147.999 58.902 152.669C60.932 152.179 62.432 151.809 64.152 151.389C64.152 147.529 64.152 143.649 64.152 139.769C63.882 139.739 63.622 139.719 63.362 139.699Z" stroke="#2E3192" stroke-width="2" stroke-miterlimit="10"/>
<path d="M153.492 179.969C152.562 185.329 148.912 189.509 150.432 194.839C152.532 190.269 157.332 186.359 153.492 179.969Z" stroke="#2E3192" stroke-width="2" stroke-miterlimit="10"/>
<path d="M147.822 196.249C143.872 201.019 146.922 206.259 146.412 211.259C146.772 211.289 147.142 211.329 147.502 211.359C148.072 206.309 148.642 201.259 149.222 196.199C148.752 196.219 148.292 196.229 147.822 196.249Z" stroke="#2E3192" stroke-width="2" stroke-miterlimit="10"/>
<path d="M109.512 229.009C111.772 232.749 114.032 236.489 116.292 240.219C116.782 239.969 117.282 239.719 117.772 239.469C117.612 234.699 113.232 232.009 111.482 228.029C110.812 228.349 110.162 228.679 109.512 229.009Z" stroke="#2E3192" stroke-width="2" stroke-miterlimit="10"/>
<path d="M144.242 253.149C142.202 257.239 140.162 261.329 137.742 266.159C142.442 264.299 144.652 259.729 144.242 253.149Z" stroke="#2E3192" stroke-width="2" stroke-miterlimit="10"/>
<path d="M134.052 268.639C132.652 267.999 131.502 267.469 129.992 266.779C129.992 270.449 129.992 273.689 129.992 276.929C130.192 276.999 130.382 277.079 130.582 277.149C131.702 274.409 132.822 271.669 134.052 268.639Z" stroke="#2E3192" stroke-width="2" stroke-miterlimit="10"/>
<path d="M115.472 242.769C113.292 239.229 111.102 235.699 108.922 232.159C108.492 232.389 108.062 232.629 107.632 232.859C109.642 236.449 111.642 240.039 113.652 243.639C114.262 243.349 114.862 243.059 115.472 242.769Z" stroke="#2E3192" stroke-width="2" stroke-miterlimit="10"/>
<path d="M90.172 160.969C90.502 166.559 90.832 172.139 91.162 177.729C91.212 177.719 91.272 177.709 91.322 177.699C91.322 172.109 91.322 166.519 91.322 160.929C90.932 160.929 90.552 160.949 90.172 160.969Z" stroke="#2E3192" stroke-width="2" stroke-miterlimit="10"/>
<path d="M91.602 154.359C91.602 149.149 91.602 143.949 91.602 138.739C91.542 138.719 91.472 138.709 91.412 138.689C91.042 143.899 90.672 149.119 90.302 154.329C90.742 154.349 91.172 154.359 91.602 154.359Z" stroke="#2E3192" stroke-width="2" stroke-miterlimit="10"/>
<path d="M36.7419 182.819C36.7419 185.389 36.7419 187.959 36.7419 190.829C40.4419 188.009 38.4219 185.409 36.7419 182.819Z" stroke="#2E3192" stroke-width="2" stroke-miterlimit="10"/>
<path d="M20.432 211.909C25.012 208.249 21.462 206.009 19.982 203.589C20.112 206.019 20.242 208.439 20.432 211.909Z" stroke="#2E3192" stroke-width="2" stroke-miterlimit="10"/>
<path d="M147.882 231.159C147.882 235.099 147.882 237.899 147.882 241.039C151.802 238.089 150.092 235.219 147.882 231.159Z" stroke="#2E3192" stroke-width="2" stroke-miterlimit="10"/>
<path d="M143.352 206.079C139.102 209.769 142.612 211.779 144.442 214.069C144.102 211.579 143.762 209.089 143.352 206.079Z" stroke="#2E3192" stroke-width="2" stroke-miterlimit="10"/>
<path d="M134.752 265.709C133.002 263.709 131.262 261.719 129.172 259.329C128.372 264.059 131.562 264.939 134.752 265.709Z" stroke="#2E3192" stroke-width="2" stroke-miterlimit="10"/>
<path d="M454.472 118.089C451.872 123.659 448.872 129.079 446.762 134.829C442.222 147.199 439.452 160.019 440.622 173.249C441.162 179.399 443.082 185.449 444.612 191.489C444.882 192.569 446.282 193.369 447.162 194.299C447.952 193.269 449.232 192.349 449.462 191.209C451.362 182.029 453.832 172.869 454.662 163.579C455.992 148.689 456.202 133.709 456.882 118.759C456.082 118.539 455.272 118.309 454.472 118.089Z" stroke="#2E3192" stroke-width="2" stroke-miterlimit="10"/>
<path d="M453.152 97.1395C439.682 114.199 440.622 134.659 439.562 154.619C439.952 152.259 440.282 149.879 440.732 147.529C441.192 145.119 441.732 142.729 442.302 140.349C444.542 130.989 447.412 121.939 454.772 115.099C455.062 114.829 455.542 114.489 455.542 114.199C455.412 108.469 455.592 102.689 453.152 97.1395Z" stroke="#2E3192" stroke-width="2" stroke-miterlimit="10"/>
</g></a></svg>
