<svg id="squiggle-green" width="125%" height="200%" viewBox="0 0 1244 384" fill="none" xmlns="http://www.w3.org/2000/svg">
<a href="">
<g><path d="M77.4419 64.5395C85.7919 60.9995 94.0119 57.0395 102.562 54.0795C107.412 52.3995 111.062 50.5095 113.712 45.7195C117.102 39.5895 121.712 34.1395 125.792 28.3995C124.572 30.4795 123.372 32.5795 122.122 34.6395C118.922 39.8895 115.692 45.1294 112.072 51.0294C116.072 50.5394 119.092 50.4395 121.952 49.6995C123.282 49.3495 124.792 47.9695 125.342 46.6795C127.892 40.7095 129.452 34.2095 132.652 28.6395C136.732 21.5395 142.042 15.1395 146.582 8.76945C146.752 8.72945 146.252 8.84945 145.742 8.96945C146.242 8.36945 146.622 7.50945 147.262 7.21945C159.222 1.78945 170.442 -1.70055 183.792 8.32945C200.402 20.8095 210.792 37.2994 213.612 58.1694C213.772 59.3794 213.802 60.7295 214.372 61.7495C221.202 73.8795 220.932 87.4595 222.292 100.679C222.852 106.099 222.942 111.589 222.812 117.039C222.632 124.589 223.732 131.659 226.572 138.839C230.642 149.099 230.322 160.219 230.122 171.149C230.032 176.399 230.102 181.659 230.102 186.909C232.532 185.469 234.992 184.019 238.122 182.179C239.602 176.799 241.392 170.309 243.182 163.819C251.502 174.149 253.922 186.239 257.462 198.149C257.462 194.199 257.502 190.249 257.452 186.299C257.392 182.209 257.082 178.109 257.172 174.029C257.432 162.879 257.352 151.679 258.422 140.599C258.882 135.799 261.732 131.199 263.712 126.599C264.502 124.739 265.812 122.989 267.662 125.509C269.832 122.229 271.552 119.099 273.782 116.389C278.282 110.899 283.392 110.969 287.722 116.589C293.212 123.729 295.922 132.059 296.062 140.949C296.342 158.269 295.952 175.589 296.232 192.909C296.332 199.059 297.562 205.179 298.282 211.319C298.802 211.389 299.312 211.459 299.832 211.529C300.492 210.199 301.472 208.939 301.752 207.529C304.552 193.379 307.412 179.229 309.892 165.019C312.232 151.589 314.172 138.099 319.672 125.469C320.272 124.099 320.942 122.759 321.642 121.439C321.802 121.149 322.242 120.999 323.232 120.329C323.472 127.419 324.222 134.029 323.812 140.559C322.282 165.189 320.292 189.789 318.642 214.419C317.052 238.229 315.472 262.039 314.322 285.869C313.972 293.009 315.052 300.229 316.452 307.519C317.252 304.489 318.242 301.499 318.822 298.429C321.122 286.099 323.762 273.819 325.352 261.389C326.772 250.319 326.552 239.049 327.822 227.949C329.422 214.019 332.122 200.209 333.762 186.279C335.722 169.629 336.942 152.889 338.692 136.209C339.952 124.139 341.552 112.109 343.032 100.069C343.172 98.9495 343.612 97.8695 343.912 96.7695C344.412 96.7495 344.902 96.7194 345.402 96.6994C346.962 106.199 348.522 115.709 350.102 125.329C352.392 121.019 354.732 116.629 357.062 112.239C356.322 114.139 355.652 116.059 354.842 117.919C351.692 125.089 349.322 132.329 350.372 140.419C350.952 144.859 350.782 149.419 350.642 153.909C349.442 193.229 350.452 232.459 355.152 271.559C355.862 277.429 356.642 283.299 357.462 289.739C366.262 284.319 373.192 277.999 378.652 270.279C381.892 265.699 385.972 260.799 386.772 255.589C389.462 238.099 390.842 220.409 392.742 202.789C394.602 185.539 397.402 168.439 404.512 152.489C406.582 147.839 406.672 143.719 405.692 139.119C404.272 132.459 403.162 125.729 401.552 119.119C399.542 110.909 397.202 102.749 391.642 96.0495C387.052 90.5195 381.432 88.8695 375.292 92.4595C370.482 95.2795 366.522 99.5594 362.192 103.199C365.862 95.6894 371.322 90.1795 379.962 89.4395C388.472 88.7095 393.912 93.9194 396.932 101.059C399.982 108.259 402.172 115.879 404.202 123.459C405.882 129.739 406.782 136.239 408.892 142.039C409.832 143.129 411.162 144.079 411.632 145.339C415.252 155.099 415.402 165.269 415.322 175.529C415.292 179.389 416.772 183.259 417.782 188.189C419.332 186.459 419.912 185.809 420.482 185.159C420.612 185.279 420.732 185.389 420.862 185.509C420.202 187.199 419.552 188.879 418.422 191.769C416.892 188.629 415.942 186.669 415.142 185.039C411.852 196.809 409.272 208.909 405.062 220.409C400.212 233.659 393.712 246.299 388.362 259.389C386.482 263.979 385.872 269.089 384.732 273.969C381.252 288.809 376.702 303.159 366.272 314.849C364.882 316.409 363.222 317.739 361.052 319.769C359.282 310.199 357.682 301.569 356.002 292.479C354.092 293.119 352.482 293.679 350.852 294.199C341.272 297.269 333.732 293.699 330.392 284.219C328.812 279.749 327.762 275.089 326.322 269.979C323.062 285.389 319.862 300.449 316.672 315.519C316.092 315.489 315.512 315.459 314.932 315.429C314.372 310.039 313.712 304.649 313.262 299.249C310.992 271.889 314.012 244.739 316.812 217.599C319.802 188.549 322.672 159.499 322.492 130.249C322.482 128.899 322.492 127.559 321.522 125.909C321.032 126.999 320.462 128.059 320.062 129.179C314.352 144.949 313.152 161.629 310.092 177.949C307.912 189.559 304.682 200.979 301.852 212.469C301.572 213.589 300.812 214.599 299.892 216.409C296.292 210.189 294.692 203.989 294.542 197.759C294.222 184.409 294.372 171.019 294.882 157.669C295.382 144.459 293.752 131.849 287.262 120.139C286.802 119.309 286.332 118.459 285.762 117.709C281.922 112.659 278.182 112.679 274.882 118.079C272.972 121.199 271.562 124.629 270.132 128.009C269.772 128.869 269.912 130.199 270.322 131.079C277.202 145.859 278.612 161.719 279.912 177.659C281.352 195.319 283.082 212.959 284.792 230.599C285.052 233.289 285.802 235.949 286.552 238.569C287.892 243.229 289.082 243.549 293.022 240.559C293.552 240.159 294.082 239.759 294.732 239.259C299.992 245.159 303.132 252.039 304.172 259.479C307.892 286.009 301.142 309.969 285.232 331.409C284.192 332.809 282.822 334.009 281.442 335.089C275.812 339.509 269.972 338.909 266.662 332.559C263.892 327.229 261.892 321.239 260.832 315.309C255.492 285.299 256.342 254.929 256.972 224.669C257.252 211.319 254.662 198.679 251.472 186.019C249.902 179.789 247.222 173.839 244.502 167.839C241.002 177.479 238.512 187.109 238.302 197.229C237.912 215.769 237.492 234.319 237.042 252.859C237.002 254.319 236.602 255.779 235.462 257.459C234.522 254.839 233.572 252.219 232.332 248.769C231.162 258.869 230.312 268.179 228.972 277.409C226.322 295.599 223.742 313.819 220.392 331.889C219.302 337.759 216.582 343.599 213.472 348.769C208.912 356.349 201.032 355.869 196.752 347.959C194.592 343.979 193.552 339.389 192.022 335.129C187.432 339.249 182.462 343.719 177.212 348.439C172.112 341.769 171.002 334.659 169.862 327.559C169.842 327.429 169.852 327.289 169.842 327.149C169.452 321.999 168.462 317.679 164.472 313.299C155.912 303.889 153.852 291.489 152.572 279.149C152.462 278.069 152.342 276.979 152.172 275.909C152.132 275.669 151.892 275.469 151.722 275.219C149.102 279.639 146.712 284.199 143.822 288.409C138.902 295.579 132.142 300.539 124.022 303.629C119.452 305.369 115.002 312.589 115.642 317.519C117.122 328.869 118.892 340.189 120.202 351.559C121.172 359.989 121.102 368.449 118.392 376.669C116.112 383.619 112.522 384.959 106.982 380.089C102.422 376.069 98.5919 371.219 94.2019 366.469C80.3719 373.149 65.1019 375.709 49.4419 374.889C42.3719 374.519 35.0919 372.909 28.4719 370.379C19.3019 366.879 15.2519 358.319 16.1719 348.569C17.3719 335.849 24.3119 326.009 31.6719 316.239C40.7519 304.209 49.5719 291.979 58.2519 280.189C51.0619 279.049 44.6619 278.039 38.0519 276.999C38.1519 286.399 37.9219 296.569 32.7719 305.749C32.3519 305.829 31.9219 305.919 31.5019 305.999C30.3619 301.679 28.5719 297.419 28.2119 293.029C27.5719 285.309 27.8319 277.519 27.6219 269.759C27.5819 268.209 27.5619 266.299 26.7119 265.189C17.1919 252.839 11.8819 238.509 7.77193 223.789C5.03193 213.989 3.24193 203.889 1.68193 193.819C0.651935 187.179 1.14194 180.459 5.28194 174.569C5.83194 173.779 5.94194 172.499 5.87194 171.479C4.37194 151.699 12.1619 135.139 24.5519 120.659C30.0419 114.239 36.9419 108.879 43.7819 103.809C47.3519 101.169 52.1719 100.199 56.6019 98.4095C52.8719 90.0795 55.1919 82.8594 61.9119 76.7094C61.3319 77.9094 60.7919 79.1395 60.1519 80.3095C57.4919 85.2195 55.7419 90.2595 57.5319 95.9395C58.2319 98.1695 59.4819 98.9694 61.9119 99.2794C65.7519 99.7694 69.7019 100.609 73.2319 102.159C79.0919 104.719 81.8919 110.129 83.7819 115.969C90.8919 114.729 95.3819 118.979 99.9019 122.839C104.432 126.709 108.652 130.939 112.642 134.659C116.912 130.109 121.272 125.639 125.382 120.959C126.592 119.579 127.782 117.649 127.892 115.909C128.852 100.069 123.662 86.1995 113.872 73.9095C109.332 68.1995 104.992 62.4395 109.002 53.2895C100.622 56.2295 93.5919 58.6795 86.5819 61.1795C83.5019 62.2095 80.4819 63.3995 77.4419 64.5395ZM82.5619 138.929C81.5819 139.759 80.7119 140.769 79.6119 141.389C73.3619 144.949 72.9719 145.769 74.6619 153.219C76.4619 151.359 77.9519 149.369 79.8519 147.939C83.0819 145.509 83.6119 142.529 82.5619 138.939C84.9019 132.369 83.8819 125.809 83.0119 118.889C77.5919 122.639 73.6719 134.599 74.9219 142.579C77.4919 141.349 80.0219 140.129 82.5619 138.929ZM100.702 304.779C100.912 303.799 101.492 302.739 101.282 301.859C98.1919 288.949 94.7119 276.129 91.9219 263.149C90.1219 254.779 89.3019 246.199 88.0419 237.709C86.2819 240.769 84.5319 243.809 82.7919 246.849C85.7619 239.149 89.1119 231.739 88.8219 222.989C88.5719 215.589 89.9019 208.079 91.1019 200.709C92.2219 193.819 94.0919 187.049 95.5819 180.479C92.4219 182.429 89.4319 185.429 86.0119 186.049C82.8519 186.629 79.2219 184.659 74.7919 183.559C73.9319 191.339 73.0319 199.929 72.0019 208.499C71.3519 213.879 71.1819 219.459 69.5319 224.539C68.0119 229.189 67.8519 233.309 69.2719 237.849C71.4219 244.739 73.2719 251.729 75.5519 259.719C78.4319 254.649 80.6919 250.679 82.9519 246.709C80.8819 251.609 78.8119 256.509 76.7019 261.519C78.1419 261.439 79.5819 261.359 81.3019 261.269C81.9319 264.319 82.4919 267.249 83.1519 270.149C85.9319 282.319 87.7019 294.949 98.4119 303.499C94.9119 301.089 91.4019 298.689 87.9219 296.299C89.8219 300.889 91.7819 305.789 93.8619 310.629C97.9419 320.139 102.402 329.489 106.112 339.139C109.592 348.199 106.662 355.949 99.6019 362.309C98.5319 363.279 97.4319 364.219 95.9419 365.519C99.3419 369.449 102.272 373.439 105.842 376.729C107.862 378.589 111.782 380.919 113.342 380.119C115.472 379.019 117.242 375.169 117.302 372.459C117.552 361.309 117.372 350.129 116.812 338.989C116.462 332.089 115.152 325.239 114.402 319.409C112.452 318.429 110.932 318.139 110.222 317.219C108.142 314.539 106.472 311.559 104.472 308.809C103.372 307.329 101.962 306.109 100.702 304.779ZM140.292 52.8695C135.662 52.1095 131.032 51.3595 126.192 50.5695C121.472 74.1294 127.042 95.1294 137.892 116.389C139.362 115.389 139.782 113.579 140.912 112.499C146.232 107.419 151.532 102.279 157.282 97.7095C160.022 95.5295 160.892 93.5794 160.472 90.1994C159.182 79.7894 156.182 70.0095 150.692 61.0395C159.222 69.9595 160.942 81.5494 163.292 93.1194C164.202 92.1294 164.772 91.1395 164.972 90.0795C168.692 69.5295 172.042 48.9095 170.422 27.9395C170.002 22.4995 168.372 16.9495 166.202 11.9195C163.902 6.57945 157.172 4.39945 153.192 7.04945C138.142 17.0695 130.962 32.1094 126.232 49.2794C129.032 49.6794 131.342 49.7995 133.542 50.3795C135.832 50.9795 138.042 52.0195 140.292 52.8695ZM10.9419 171.289C9.96193 172.359 8.45193 173.279 8.10193 174.529C6.67193 179.659 4.54194 184.889 4.57194 190.079C4.68194 212.869 11.0319 234.129 22.1419 253.969C23.7319 256.799 25.7119 259.409 27.7819 262.539C28.2619 261.359 28.4719 260.999 28.5519 260.609C30.7819 250.239 33.3019 239.919 35.0919 229.469C35.8919 224.799 35.2319 219.869 35.2319 214.129C31.7519 218.969 28.9319 222.869 25.4719 227.679C12.3419 210.159 14.9519 190.529 13.5319 171.579C12.6319 171.529 11.7019 171.479 10.7719 171.419C13.4119 170.589 13.8319 168.549 14.5019 166.089C15.8319 161.189 17.5319 156.259 20.0219 151.869C21.0619 150.029 24.4719 149.539 26.8019 148.439C27.8019 150.669 29.7319 152.959 29.6119 155.119C29.2919 160.649 28.0219 166.119 27.1819 171.619C26.9919 172.869 26.4619 174.549 27.0419 175.339C29.3319 178.499 32.0019 181.379 35.0519 184.979C35.7619 164.069 34.9919 143.429 47.0119 125.029C56.5419 130.999 60.1119 140.419 63.6219 150.139C65.0519 149.129 66.1519 148.039 67.4919 147.459C71.5219 145.719 72.6419 142.489 73.0719 138.449C73.8719 130.899 75.9819 123.749 81.3819 117.499C79.0219 116.059 76.7919 114.799 74.6619 113.389C70.6919 110.759 66.0019 108.709 63.0319 105.209C58.4619 99.8295 53.9219 100.499 48.7019 103.099C46.5119 104.189 44.2519 105.259 42.3219 106.729C28.7319 117.079 17.8719 129.629 11.7319 145.799C8.54194 154.199 6.88194 162.899 7.00194 172.089C8.59194 171.769 9.76193 171.529 10.9419 171.289ZM270.062 132.919C269.512 132.979 268.962 133.039 268.422 133.099C267.842 135.329 267.032 137.519 266.722 139.779C264.492 156.099 261.902 172.389 260.362 188.779C259.382 199.169 259.502 209.739 260.062 220.179C260.922 236.499 262.582 252.769 263.842 269.069C263.942 270.379 263.652 271.729 263.552 273.059C263.052 273.069 262.552 273.089 262.052 273.099C261.002 266.219 259.962 259.339 258.912 252.459C258.562 252.489 258.202 252.519 257.852 252.549C258.682 269.019 259.072 285.519 260.532 301.929C261.282 310.369 263.042 318.979 265.962 326.919C270.022 337.979 276.602 338.619 284.262 329.449C295.482 316.019 300.252 299.939 302.602 282.979C304.082 272.329 303.932 261.689 300.082 251.509C296.582 242.269 295.762 242.129 287.332 246.949C286.922 245.789 286.482 244.709 286.142 243.599C281.852 229.529 280.872 214.969 279.652 200.439C278.372 185.239 277.272 170.009 275.372 154.879C274.442 147.449 271.882 140.229 270.062 132.919ZM66.3419 274.379C65.9819 274.219 65.6219 274.059 65.2519 273.899C63.2619 276.419 61.1719 278.869 59.3119 281.489C51.4019 292.569 43.5819 303.719 35.6819 314.809C31.1119 321.229 25.8419 327.249 21.9619 334.059C12.9319 349.899 19.7519 366.869 36.6519 371.469C47.8719 374.519 59.2319 374.749 70.6819 372.419C78.7119 370.789 86.4019 368.389 93.6919 364.279C77.0919 336.369 70.5419 305.729 66.3419 274.379ZM111.442 160.579C93.9119 175.069 95.6319 194.949 94.2819 213.919C95.1219 211.979 95.9719 210.039 96.8119 208.099C97.2519 208.169 97.6919 208.239 98.1319 208.309C102.942 236.549 107.742 264.799 112.682 293.849C114.592 291.769 116.542 290.429 117.382 288.589C121.042 280.569 125.142 272.639 127.692 264.259C135.382 238.909 138.592 212.639 142.622 186.549C143.182 182.899 142.242 179.949 139.672 177.139C135.272 182.119 131.682 187.769 125.482 190.549C120.682 180.299 116.082 170.489 111.442 160.579ZM182.732 86.9594C182.522 86.5794 182.312 86.1995 182.102 85.8195C178.202 87.5995 174.332 89.4395 170.412 91.1595C167.142 92.5895 165.392 94.9695 165.002 98.5395C163.972 107.879 162.902 117.229 161.702 126.549C160.592 135.199 159.292 143.819 158.102 152.459C157.982 153.369 157.732 154.489 158.112 155.189C160.192 158.929 162.452 162.579 164.882 166.629C172.582 149.799 178.582 132.509 197.462 123.559C199.562 131.089 201.502 137.989 203.542 145.289C208.222 138.039 212.902 131.359 220.702 127.729C221.272 127.459 221.702 126.189 221.662 125.419C220.772 110.449 220.002 95.4694 218.712 80.5294C218.312 75.8194 216.482 71.2295 215.312 66.5795C214.942 66.6595 214.572 66.7295 214.202 66.8095C213.742 69.0695 213.382 71.3495 212.812 73.5795C210.822 81.3895 204.522 87.5395 196.722 86.6895C188.002 85.7395 181.522 86.7595 178.812 96.7695C178.492 96.3595 178.162 95.9495 177.842 95.5395C179.482 92.6795 181.112 89.8194 182.732 86.9594ZM177.642 346.259C182.162 341.619 186.252 337.709 189.952 333.469C191.152 332.099 191.752 329.899 191.952 328.009C193.402 313.939 193.942 299.729 196.192 285.789C199.862 263.039 205.052 240.429 214.572 219.409C221.462 204.189 223.462 188.819 222.712 172.619C222.632 170.989 222.722 169.349 222.702 167.709C222.562 157.209 222.392 146.699 222.262 136.199C222.222 133.109 220.902 131.459 217.692 132.269C213.762 133.259 203.622 147.089 203.722 151.149C203.732 151.419 203.832 151.689 203.852 151.959C205.002 163.629 206.492 175.269 207.202 186.959C208.082 201.539 208.302 216.189 205.042 230.549C204.202 234.239 202.412 238.209 199.822 240.829C198.202 242.459 194.272 241.799 191.102 242.199C192.142 258.019 189.642 274.009 184.622 289.539C182.092 297.389 179.392 305.499 174.962 312.319C172.062 316.789 171.112 320.709 171.792 325.389C172.522 330.499 173.632 335.559 174.812 340.599C175.182 342.189 176.292 343.629 177.642 346.259ZM348.512 136.239C347.062 140.949 345.682 144.729 344.742 148.619C341.592 161.579 337.662 174.439 335.742 187.589C332.602 209.019 330.842 230.659 328.432 252.199C327.142 263.689 328.322 274.819 333.292 285.349C337.142 293.519 343.522 295.769 351.822 292.759C355.232 291.519 355.912 289.839 355.402 286.409C350.462 253.149 348.252 219.699 348.502 186.079C348.612 169.839 348.512 153.599 348.512 136.239ZM212.112 59.2295C211.952 57.6895 211.912 56.7595 211.742 55.8595C209.222 42.3795 202.702 30.8195 194.272 20.2695C188.772 13.3895 182.402 7.50945 173.902 4.41945C169.142 2.68945 163.652 2.72945 160.212 4.70945C167.792 8.16945 170.772 14.6195 172.012 22.2195C174.482 37.2695 172.082 52.1395 170.302 67.0095C169.372 74.7995 168.052 82.5395 166.892 90.4295C171.942 88.3995 176.612 86.1395 181.522 84.7195C183.892 84.0395 185.172 82.9995 186.402 81.0595C189.752 75.7695 192.972 70.3395 196.922 65.5195C200.532 61.1195 204.722 56.7695 212.112 59.2295ZM227.622 196.389C227.182 196.289 226.732 196.199 226.292 196.099C225.322 199.319 223.622 202.519 223.502 205.779C222.542 231.969 220.952 258.079 215.042 283.709C211.632 298.509 207.012 312.999 198.162 325.479C193.912 331.479 194.072 336.889 196.372 342.999C197.972 347.239 199.542 352.099 205.002 352.149C210.522 352.199 212.982 347.519 214.332 343.099C217.312 333.359 220.482 323.559 222.142 313.549C225.132 295.549 227.142 277.389 229.412 259.269C230.212 252.919 231.302 246.489 231.012 240.159C230.412 226.699 229.002 213.279 227.922 199.839C227.842 198.689 227.732 197.539 227.622 196.389ZM156.072 201.449C155.912 205.629 155.122 209.559 155.732 213.259C158.232 228.619 158.372 243.979 155.472 259.209C152.282 275.939 155.442 291.629 162.102 306.839C163.312 309.589 165.862 311.759 167.782 314.169C168.742 313.399 168.912 313.319 168.922 313.239C170.352 285.769 172.802 258.399 177.922 231.329C178.102 230.389 177.902 229.059 177.342 228.329C170.492 219.579 163.552 210.879 156.072 201.449ZM74.6419 264.829C71.0319 268.599 67.4119 270.939 68.1919 276.789C71.2719 299.989 76.6119 322.569 85.5719 344.209C88.3019 350.799 91.6619 357.139 94.7719 363.699C102.132 359.759 105.852 354.269 105.652 346.859C105.542 342.869 104.522 338.699 102.972 335.009C96.4419 319.459 89.3619 304.139 82.8719 288.569C79.7619 281.069 77.5119 273.209 74.6419 264.829ZM121.362 302.709C128.722 300.229 134.632 296.029 139.442 290.389C147.112 281.379 152.132 271.569 151.572 258.959C150.992 245.939 151.642 232.799 152.652 219.779C153.272 211.729 152.072 204.379 148.662 196.129C139.442 232.079 130.482 267.089 121.362 302.709ZM183.612 202.389C183.762 201.919 184.052 201.179 184.252 200.419C188.572 183.259 193.762 166.389 201.092 150.229C201.562 149.189 201.762 147.799 201.522 146.699C200.362 141.389 199.192 136.059 197.682 130.849C196.302 126.099 195.012 125.839 191.262 128.969C190.742 129.399 190.262 129.889 189.782 130.369C179.182 140.829 173.202 154.139 167.102 167.359C166.642 168.369 166.942 170.069 167.492 171.149C172.762 181.549 178.162 191.879 183.612 202.389ZM37.2419 251.079C37.4819 251.079 37.7219 251.079 37.9619 251.079C37.9619 257.619 37.8919 264.159 38.0219 270.699C38.0419 271.879 38.5619 273.449 39.4219 274.149C45.8219 279.379 55.4919 279.309 61.6719 273.929C63.3319 272.479 65.5519 270.339 65.5319 268.539C65.4919 263.289 65.3919 257.699 63.6019 252.869C59.1219 240.769 53.7319 228.999 48.6219 217.139C48.1319 215.999 47.0919 215.099 46.3019 214.079C45.2119 214.989 43.7619 215.679 43.0819 216.829C39.3319 223.219 36.3519 229.799 37.1419 237.599C37.6119 242.049 37.2419 246.579 37.2419 251.079ZM221.472 207.769C205.422 245.899 194.722 285.239 194.052 326.839C216.922 290.289 218.702 248.919 221.472 207.769ZM202.892 153.909C202.542 153.929 202.182 153.949 201.832 153.969C201.562 154.429 201.202 154.849 201.032 155.339C195.592 171.279 190.112 187.199 184.852 203.189C184.222 205.089 184.602 207.479 185.022 209.539C186.622 217.529 188.692 225.429 190.022 233.449C190.602 236.909 191.612 239.009 195.262 239.359C198.922 239.719 200.922 237.689 201.932 234.589C202.892 231.629 203.702 228.579 204.192 225.509C206.922 208.139 205.742 190.709 204.722 173.289C204.342 166.819 203.522 160.369 202.892 153.909ZM389.332 253.709C389.702 253.189 390.152 252.699 390.442 252.129C402.292 229.599 410.302 205.779 412.152 180.369C412.722 172.609 409.882 164.599 408.572 156.709C408.282 154.989 407.852 153.289 407.492 151.569C394.312 184.419 394.622 219.439 389.332 253.709ZM179.002 230.209C174.352 258.069 171.462 285.269 171.892 312.989C173.692 311.449 175.402 309.839 176.202 307.859C178.602 301.949 180.822 295.949 182.802 289.879C187.892 274.309 190.032 258.329 188.772 241.959C188.662 240.559 188.362 238.839 187.482 237.899C185.072 235.349 182.312 233.149 179.002 230.209ZM136.472 121.549C127.562 126.799 125.512 136.299 121.252 144.359C121.012 144.819 121.172 145.729 121.492 146.199C127.362 154.769 133.292 163.309 139.252 171.909C147.532 161.939 151.202 142.669 136.472 121.549ZM92.9319 142.109C88.4819 142.169 84.8319 145.349 83.8219 149.749C81.8519 158.369 79.9219 167.009 77.6319 175.549C76.6619 179.169 77.6719 181.769 80.4019 183.769C83.0819 185.729 85.9419 184.969 88.3919 183.179C93.1719 179.679 97.2319 175.699 98.8519 169.589C100.272 164.209 102.392 159.019 104.152 153.729C104.482 152.729 104.952 151.559 104.712 150.629C103.802 147.079 96.6619 142.059 92.9319 142.109ZM177.252 226.129C177.752 225.989 178.252 225.849 178.742 225.719C179.652 221.339 180.802 216.999 181.382 212.579C181.722 209.999 181.732 207.089 180.862 204.699C178.492 198.199 175.742 191.819 172.832 185.529C170.732 180.979 168.142 176.649 165.772 172.209C165.342 172.259 164.912 172.309 164.482 172.349C162.202 180.149 159.832 187.919 157.732 195.769C157.402 196.999 157.912 198.819 158.672 199.919C164.792 208.719 171.042 217.409 177.252 226.129ZM110.742 294.829C106.142 266.899 101.732 240.079 97.3219 213.259C96.8419 213.239 96.3719 213.219 95.8919 213.189C94.9619 217.629 93.1919 222.079 93.2819 226.489C93.4919 237.529 94.3219 248.569 95.3519 259.559C96.0619 267.149 97.1019 274.749 98.7719 282.179C100.022 287.849 103.162 292.639 110.742 294.829ZM53.8019 179.809C52.0419 181.179 49.9519 182.889 47.7719 184.469C43.6519 187.449 42.1019 192.219 43.0919 197.139C45.3619 208.349 52.0919 217.459 57.0019 227.429C57.3919 228.229 58.2219 229.009 59.0319 229.379C60.5519 230.079 62.2219 230.469 63.8319 230.989C64.0519 229.379 64.7419 227.659 64.4119 226.169C60.9919 210.799 57.4119 195.459 53.8019 179.809ZM385.112 264.819C383.992 266.239 383.252 267.339 382.352 268.289C376.772 274.239 372.022 281.519 365.332 285.719C357.892 290.389 357.592 295.529 359.402 302.499C360.472 306.629 361.282 310.829 362.242 315.139C371.802 310.659 383.732 280.169 385.112 264.819ZM119.912 147.359C111.702 157.709 111.702 157.709 117.232 168.609C117.602 169.339 117.932 170.089 118.272 170.829C120.882 176.459 123.482 182.099 126.712 189.089C130.772 183.809 134.232 179.379 137.562 174.859C137.902 174.399 137.722 173.199 137.342 172.649C131.622 164.239 125.812 155.889 119.912 147.359ZM46.6619 183.109C51.5819 180.369 55.0319 176.399 55.3519 169.199C55.5819 164.059 58.6219 159.049 60.4019 153.989C60.7419 153.019 61.5319 151.909 61.3019 151.099C59.1219 143.459 56.3919 136.039 50.6619 130.239C49.7919 129.359 47.8519 128.679 46.7919 129.029C44.1719 129.909 42.9819 137.599 44.1919 140.249C46.0819 144.379 48.6919 148.779 48.7019 153.069C48.7319 163.159 47.4119 173.269 46.6619 183.109ZM142.512 118.259C145.492 121.489 146.082 127.579 147.112 133.639C147.692 137.059 149.402 140.279 150.592 143.589C151.082 143.489 151.562 143.399 152.052 143.299C155.412 128.539 162.392 114.499 160.842 98.7695C160.432 98.4795 160.022 98.1795 159.612 97.8895C153.982 104.609 148.342 111.319 142.512 118.259ZM16.0519 191.829C17.0719 201.569 18.3319 211.629 23.0419 220.889C24.6319 224.019 25.7919 224.039 27.9419 221.289C34.9119 212.369 36.5219 202.279 34.6719 191.819C28.6219 191.829 22.6519 191.829 16.0519 191.829ZM111.512 137.599C101.022 123.359 91.1519 116.159 85.5119 118.079C87.3419 121.749 89.2219 125.449 91.0419 129.189C92.6219 132.449 91.8619 134.889 88.4019 136.319C85.3819 137.569 84.7019 139.919 85.2819 143.409C94.0419 137.849 100.562 141.479 106.072 148.699C108.092 144.589 109.812 141.069 111.512 137.599ZM64.9219 220.409C70.9019 202.269 69.9419 185.089 65.4419 167.469C55.6419 178.489 56.9319 173.479 58.4119 186.969C58.6619 189.269 58.9619 191.569 59.4219 193.839C61.1619 202.439 62.9719 211.009 64.9219 220.409ZM186.462 84.1995C189.492 84.4995 191.522 84.6995 193.552 84.8995C202.102 85.7395 206.712 83.3695 210.092 75.4395C211.492 72.1595 211.782 68.3795 212.362 64.7995C212.832 61.9295 210.862 60.6995 208.472 60.8095C206.682 60.8895 204.642 61.5495 203.222 62.6295C195.942 68.1795 191.812 76.1795 186.462 84.1995ZM123.742 51.0195C121.472 51.3195 118.952 51.6095 116.452 51.9795C109.212 53.0595 105.992 58.9095 109.822 65.2395C114.252 72.5795 119.472 79.4595 123.742 85.6495C123.742 74.7995 123.742 63.0895 123.742 51.0195ZM40.8519 187.099C48.5619 179.669 49.1219 146.259 41.9319 140.969C37.3619 156.139 37.6119 171.219 40.8519 187.099ZM337.202 164.539C337.582 164.599 337.972 164.649 338.352 164.709C340.802 156.119 342.592 147.269 345.882 139.029C349.132 130.899 348.252 123.039 347.142 114.949C346.922 113.329 346.552 111.739 346.222 110.139C345.902 108.579 345.542 107.029 345.192 105.479C344.922 105.509 344.662 105.549 344.392 105.579C342.002 125.219 339.602 144.879 337.202 164.539ZM155.712 194.359C158.552 185.889 161.132 178.219 163.662 170.539C163.852 169.959 163.892 169.109 163.612 168.619C161.702 165.279 159.692 162.009 157.202 157.879C155.552 165.489 154.572 172.089 152.632 178.399C150.822 184.279 153.462 188.749 155.712 194.359ZM223.612 136.049C223.612 156.469 223.612 175.799 223.612 195.119C224.022 195.209 224.432 195.289 224.842 195.379C225.812 193.419 227.642 191.429 227.602 189.489C227.212 171.959 229.162 154.219 223.612 136.049ZM236.882 185.999C236.342 185.899 235.792 185.799 235.252 185.699C231.162 188.649 228.702 192.279 229.542 197.719C229.972 200.519 229.652 203.419 229.792 206.269C229.992 210.339 230.272 214.409 230.552 218.479C230.822 222.389 231.132 226.309 231.422 230.219C231.822 230.209 232.212 230.209 232.612 230.199C234.032 215.469 235.452 200.739 236.882 185.999ZM35.3519 189.149C32.1419 184.779 29.1719 180.729 25.9619 176.359C23.8519 179.649 22.2419 182.149 20.3219 185.139C17.7019 180.369 20.3219 174.969 16.4919 171.579C15.9119 177.009 15.8319 182.289 16.0019 187.569C16.0219 188.349 17.0819 189.539 17.8819 189.769C23.4619 191.399 29.0719 191.559 35.3519 189.149ZM32.4219 303.019C35.9819 294.909 35.9519 287.079 36.3619 279.229C36.6419 273.889 33.4819 271.769 29.7519 269.349C27.9619 277.659 29.2419 295.049 32.4219 303.019ZM24.8719 172.869C25.6919 166.159 26.5319 159.989 27.1219 153.799C27.2319 152.629 26.3119 151.359 25.8719 150.129C24.5919 150.689 22.9719 150.939 22.0819 151.879C17.3119 156.899 16.1919 163.199 15.9219 169.719C18.8319 170.749 21.3519 171.639 24.8719 172.869ZM71.2419 191.259C77.9919 180.629 71.4819 170.699 71.6619 160.179C67.4019 163.219 66.9519 166.489 67.8519 170.639C69.2819 177.259 70.0919 184.019 71.2419 191.259ZM35.6519 270.979C35.6519 259.279 35.6519 248.319 35.6519 237.359C35.2519 237.309 34.8619 237.249 34.4619 237.199C33.1619 245.019 32.2019 252.909 30.4519 260.619C29.3119 265.649 31.9319 268.059 35.6519 270.979ZM67.1619 237.519C67.1619 247.249 67.1619 257.109 67.1619 266.969C67.6919 267.189 68.2219 267.419 68.7519 267.639C70.3819 265.279 73.7119 262.599 73.3419 260.609C71.8919 252.729 69.2819 245.059 67.1619 237.519ZM259.322 172.469C261.592 157.509 263.802 142.899 266.022 128.219C260.672 131.239 257.672 151.029 259.322 172.469ZM40.9419 200.219C36.5319 208.039 35.4419 215.829 37.6519 221.989C40.0019 218.459 42.4419 214.909 44.7319 211.269C45.1619 210.589 45.3819 209.409 45.0819 208.719C43.8719 205.909 42.4319 203.209 40.9419 200.219ZM75.3319 174.209C75.7919 174.239 76.2419 174.269 76.7019 174.289C78.5219 166.049 80.3519 157.809 82.1719 149.569C81.7319 149.379 81.2919 149.199 80.8619 149.009C78.6119 151.799 74.8719 154.379 74.4419 157.419C73.6819 162.869 74.9219 168.599 75.3319 174.209ZM151.872 149.979C149.282 159.329 148.472 168.329 150.722 177.529C152.372 171.659 153.482 165.689 155.012 159.829C156.012 155.969 154.982 153.029 151.872 149.979ZM113.972 305.509C116.002 304.369 118.262 303.879 118.682 302.729C120.852 296.739 122.562 290.569 124.422 284.469C122.192 286.299 120.902 288.539 119.232 290.449C117.562 292.369 115.432 293.889 113.672 295.749C113.132 296.319 112.922 297.429 112.982 298.269C113.132 300.279 113.512 302.269 113.972 305.509ZM183.752 212.629C183.362 212.679 182.972 212.729 182.582 212.779C181.922 215.809 181.252 218.839 180.612 221.879C179.362 227.719 181.842 232.029 188.402 234.649C186.802 227.079 185.272 219.849 183.752 212.629ZM61.2319 101.019C61.0319 101.409 60.8319 101.809 60.6319 102.199C67.4419 106.589 74.2419 110.979 81.5319 115.679C79.5319 106.759 69.9719 100.159 61.2319 101.019ZM154.872 220.139C154.432 220.129 153.982 220.119 153.542 220.099C153.542 232.339 153.542 244.569 153.542 256.809C156.382 244.659 156.272 232.419 154.872 220.139ZM100.622 291.209C101.512 294.239 102.352 297.509 103.432 300.699C105.312 306.289 105.662 306.429 112.562 304.789C111.602 301.949 111.362 298.519 109.542 296.549C107.322 294.159 103.782 293.009 100.622 291.209ZM237.372 212.169C236.872 212.189 236.372 212.219 235.872 212.239C235.922 225.229 230.862 238.039 235.652 251.189C236.232 238.179 236.802 225.179 237.372 212.169ZM137.942 228.149C138.182 228.179 138.412 228.219 138.652 228.249C141.542 216.779 144.532 205.339 147.182 193.809C147.572 192.129 146.262 190.059 145.742 188.179C145.492 188.279 145.232 188.379 144.982 188.479C142.632 201.699 140.282 214.929 137.942 228.149ZM56.6019 172.949C65.0519 167.459 66.4119 161.939 60.7819 155.159C59.4719 160.739 58.1619 166.329 56.6019 172.949ZM66.8319 162.009C72.9319 158.069 71.6419 152.339 71.6419 146.479C62.5019 152.649 63.5919 150.969 66.8319 162.009ZM159.372 131.509C152.662 143.359 151.502 148.979 156.602 150.829C157.532 144.349 158.452 137.929 159.372 131.509ZM116.962 140.809C120.352 134.889 126.262 131.509 126.762 124.369C120.772 129.029 115.632 136.859 116.962 140.809ZM112.212 306.929C109.962 306.929 108.092 306.929 105.812 306.929C107.212 309.519 108.232 311.719 109.562 313.709C110.052 314.449 111.242 314.729 112.122 315.219C112.502 314.189 113.232 313.149 113.202 312.139C113.122 310.439 112.582 308.739 112.212 306.929ZM78.5319 264.599C78.0819 264.739 77.6419 264.889 77.1919 265.029C79.1619 270.989 81.1219 276.949 83.0919 282.899C82.6919 276.439 83.2519 269.659 78.5319 264.599ZM85.7219 136.399C90.8219 132.599 90.6519 128.449 85.7219 123.079C85.7219 127.399 85.7219 131.579 85.7219 136.399ZM412.282 166.299C412.662 166.249 413.052 166.189 413.432 166.139C412.792 159.669 413.182 153.009 410.512 146.919C409.972 147.019 409.422 147.109 408.882 147.209C410.012 153.559 411.142 159.929 412.282 166.299ZM63.3619 244.859C63.6219 244.839 63.8819 244.819 64.1419 244.789C64.1419 240.909 64.1419 237.019 64.1419 233.169C62.4219 232.749 60.9219 232.389 58.8919 231.889C60.5019 236.559 61.9319 240.709 63.3619 244.859ZM153.492 204.589C157.332 198.209 152.532 194.299 150.432 189.719C148.912 195.049 152.562 199.229 153.492 204.589ZM147.822 188.309C148.292 188.329 148.752 188.339 149.222 188.359C148.652 183.309 148.082 178.259 147.502 173.199C147.142 173.229 146.772 173.269 146.412 173.299C146.922 178.299 143.872 183.539 147.822 188.309ZM109.512 155.549C110.162 155.879 110.822 156.209 111.472 156.529C113.222 152.549 117.602 149.859 117.762 145.089C117.272 144.839 116.772 144.589 116.282 144.339C114.022 148.079 111.762 151.809 109.512 155.549ZM144.242 131.409C144.652 124.829 142.442 120.259 137.742 118.399C140.152 123.229 142.202 127.319 144.242 131.409ZM134.052 115.919C132.822 112.899 131.702 110.149 130.582 107.409C130.382 107.479 130.192 107.559 129.992 107.629C129.992 110.869 129.992 114.109 129.992 117.779C131.502 117.089 132.662 116.559 134.052 115.919ZM115.472 141.789C114.862 141.499 114.262 141.209 113.652 140.919C111.642 144.509 109.642 148.099 107.632 151.699C108.062 151.929 108.492 152.169 108.922 152.399C111.102 148.859 113.282 145.319 115.472 141.789ZM90.1719 223.589C90.5519 223.609 90.9319 223.619 91.3219 223.639C91.3219 218.049 91.3219 212.459 91.3219 206.869C91.2719 206.859 91.2119 206.849 91.1619 206.839C90.8319 212.419 90.5019 218.009 90.1719 223.589ZM91.6019 230.199C91.1719 230.209 90.7419 230.219 90.3019 230.219C90.6719 235.429 91.0419 240.649 91.4119 245.859C91.4719 245.839 91.5419 245.829 91.6019 245.809C91.6019 240.609 91.6019 235.399 91.6019 230.199ZM36.7419 201.739C38.4219 199.139 40.4419 196.549 36.7419 193.729C36.7419 196.609 36.7419 199.169 36.7419 201.739ZM20.4319 172.649C20.2419 176.129 20.1119 178.549 19.9819 180.969C21.4519 178.539 25.0019 176.309 20.4319 172.649ZM147.882 153.399C150.082 149.339 151.802 146.459 147.882 143.519C147.882 146.659 147.882 149.459 147.882 153.399ZM143.352 178.469C143.762 175.469 144.102 172.969 144.442 170.479C142.612 172.779 139.112 174.779 143.352 178.469ZM134.752 118.849C131.552 119.619 128.372 120.499 129.172 125.229C131.262 122.839 133.012 120.839 134.752 118.849Z" stroke="#009245" stroke-width="2" stroke-miterlimit="10"/>
<path d="M362.182 103.189C366.522 99.5594 370.472 95.2694 375.282 92.4494C381.422 88.8594 387.032 90.5095 391.632 96.0395C397.192 102.729 399.532 110.899 401.542 119.109C403.162 125.719 404.262 132.449 405.682 139.109C406.662 143.709 406.582 147.829 404.502 152.479C397.382 168.429 394.592 185.529 392.732 202.779C390.832 220.389 389.452 238.079 386.762 255.579C385.962 260.779 381.882 265.689 378.642 270.269C373.182 277.989 366.252 284.299 357.452 289.729C356.632 283.289 355.842 277.419 355.142 271.549C350.442 232.459 349.432 193.229 350.632 153.899C350.772 149.409 350.932 144.839 350.362 140.409C349.312 132.319 351.682 125.079 354.832 117.909C355.652 116.049 356.322 114.119 357.052 112.229C358.762 109.209 360.472 106.199 362.182 103.189Z" stroke="#009245" stroke-width="2" stroke-miterlimit="10"/>
<path d="M77.442 64.5395C80.482 63.3995 83.502 62.2095 86.552 61.1295C93.572 58.6295 100.602 56.1895 108.972 53.2395C104.962 62.3895 109.302 68.1595 113.842 73.8595C123.632 86.1595 128.822 100.029 127.862 115.859C127.752 117.599 126.572 119.529 125.352 120.909C121.232 125.589 116.882 130.059 112.612 134.609C108.632 130.889 104.402 126.659 99.872 122.789C95.352 118.919 90.862 114.669 83.752 115.919C81.862 110.079 79.052 104.679 73.202 102.109C69.672 100.559 65.722 99.7194 61.882 99.2294C59.452 98.9194 58.202 98.1195 57.502 95.8895C55.712 90.2095 57.462 85.1795 60.122 80.2595C60.762 79.0895 61.292 77.8595 61.882 76.6595C67.072 72.6295 72.262 68.5795 77.442 64.5395Z" stroke="#009245" stroke-width="2" stroke-miterlimit="10"/>
<path d="M539.442 271.709C538.792 272.649 538.132 273.589 537.482 274.529C536.402 274.959 535.282 275.289 534.262 275.829C523.812 281.279 512.992 282.449 502.602 276.489C492.552 270.729 489.672 260.489 488.672 249.679C488.562 248.469 489.312 247.069 489.942 245.919C493.272 239.829 496.452 233.639 500.142 227.769C503.752 222.029 507.612 216.399 511.942 211.189C515.172 207.309 518.412 207.869 521.252 212.139C522.602 214.159 523.782 216.389 524.542 218.689C528.992 232.119 533.452 245.539 537.552 259.079C538.772 263.109 538.842 267.489 539.442 271.709Z" stroke="#009245" stroke-width="2" stroke-miterlimit="10"/>
<path d="M539.442 271.709C538.842 267.489 538.772 263.109 537.552 259.069C533.452 245.539 528.992 232.109 524.542 218.679C523.782 216.379 522.592 214.149 521.252 212.129C518.412 207.869 515.162 207.299 511.942 211.179C507.612 216.379 503.752 222.019 500.142 227.759C496.452 233.629 493.272 239.819 489.942 245.909C489.312 247.069 488.562 248.459 488.672 249.669C489.662 260.479 492.552 270.709 502.602 276.479C512.982 282.439 523.802 281.269 534.262 275.819C535.282 275.289 536.412 274.949 537.482 274.519C533.982 279.339 528.792 281.079 523.302 281.649C519.142 282.079 514.852 281.889 510.672 281.449C498.122 280.129 491.462 272.259 488.342 260.709C487.712 258.369 487.112 256.019 486.282 252.829C484.612 255.409 483.372 257.529 481.932 259.499C479.852 262.349 477.782 265.239 475.412 267.839C470.732 272.989 464.972 274.509 458.062 271.909C456.882 278.469 455.742 284.789 454.392 292.299C452.552 290.369 451.472 289.439 450.652 288.329C443.492 278.709 440.552 267.539 439.462 255.889C438.092 241.229 437.672 226.479 436.042 211.859C434.762 200.399 432.392 189.049 430.232 177.709C429.762 175.209 428.152 172.929 426.702 169.749C424.492 175.699 422.682 180.589 420.872 185.469C420.742 185.349 420.622 185.239 420.492 185.119C421.982 178.919 423.482 172.729 424.992 166.459C431.072 169.659 434.602 181.699 438.172 210.649C438.942 206.289 439.322 201.739 440.612 197.469C441.892 193.219 443.962 189.139 449.032 186.219C450.622 191.429 452.472 196.209 453.512 201.149C457.972 222.229 458.452 243.639 458.332 265.079C458.302 270.399 461.982 273.369 466.982 271.129C470.322 269.629 473.492 267.049 475.832 264.199C479.362 259.919 482.192 255.039 485.112 250.279C485.832 249.109 485.972 247.439 485.962 246.009C485.722 217.569 490.632 190.099 501.672 163.859C503.582 159.309 506.442 154.919 509.742 151.239C515.002 145.369 521.822 145.229 526.642 151.489C531.222 157.429 535.092 164.219 537.842 171.199C542.732 183.589 546.392 196.459 550.942 208.999C551.972 211.829 554.162 215.729 556.482 216.269C560.202 217.139 561.552 212.649 563.342 209.819C567.692 202.919 571.632 195.689 576.622 189.269C582.732 181.409 590.502 182.109 595.372 190.769C602.582 203.569 603.612 216.919 596.752 230.239C592.632 238.229 587.982 245.949 583.512 253.759C583.112 254.459 582.272 254.909 580.992 254.989C583.972 249.869 587.082 244.829 589.902 239.629C594.322 231.479 598.612 223.259 599.392 213.729C600.092 205.209 597.122 197.849 592.172 191.289C587.252 184.759 581.452 184.779 576.892 191.529C572.102 198.629 568.022 206.209 563.592 213.549C562.192 215.869 561.772 219.249 557.862 218.979C553.892 218.709 551.122 216.799 549.892 213.029C546.592 202.949 543.802 192.679 540.042 182.779C536.482 173.399 532.592 164.009 527.652 155.309C522.432 146.119 514.822 145.929 509.122 154.849C504.702 161.759 501.402 169.549 498.622 177.309C490.992 198.549 487.872 220.609 488.682 243.519C490.352 240.439 491.882 237.259 493.732 234.289C497.972 227.479 502.312 220.729 506.732 214.029C507.692 212.579 509.052 211.339 510.372 210.179C515.522 205.659 519.722 206.089 523.072 211.989C525.412 216.099 527.262 220.549 528.812 225.029C533.012 237.109 536.962 249.269 540.982 261.409C542.212 265.089 542.402 268.649 539.442 271.709ZM454.472 266.469C455.282 266.249 456.082 266.019 456.892 265.799C456.212 250.859 456.002 235.869 454.672 220.979C453.842 211.689 451.372 202.529 449.472 193.349C449.232 192.209 447.962 191.279 447.172 190.259C446.292 191.189 444.892 191.989 444.622 193.069C443.092 199.109 441.182 205.159 440.632 211.309C439.462 224.539 442.232 237.369 446.772 249.729C448.872 255.479 451.872 260.899 454.472 266.469ZM453.152 287.419C455.592 281.869 455.412 276.089 455.542 270.359C455.552 270.059 455.072 269.729 454.772 269.459C447.412 262.619 444.542 253.569 442.302 244.209C441.732 241.829 441.192 239.429 440.732 237.029C440.282 234.679 439.942 232.309 439.562 229.939C440.622 249.899 439.692 270.359 453.152 287.419Z" stroke="#009245" stroke-width="2" stroke-miterlimit="10"/>
<path d="M1242.62 247.799C1241.46 247.859 1240.3 247.989 1239.14 247.979C1141.63 247.309 1044.13 246.439 946.622 246.059C913.852 245.929 881.042 246.279 848.332 247.909C825.642 249.039 802.982 252.119 780.472 255.479C760.362 258.479 740.772 258.349 721.622 251.129C710.052 246.769 698.602 242.059 687.192 237.279C682.092 235.139 677.742 236.129 674.002 239.689C670.362 243.159 667.132 247.049 663.682 250.719C662.472 252.009 661.252 253.319 659.862 254.399C654.782 258.369 649.072 258.199 644.992 253.189C642.042 249.559 640.072 245.119 637.762 240.979C636.842 239.319 636.292 237.459 635.382 235.789C631.762 229.129 627.472 228.289 622.212 233.889C617.472 238.939 613.602 244.799 609.052 250.039C604.532 255.249 600.132 260.729 594.812 265.039C588.882 269.839 582.822 268.699 577.032 262.969C577.882 261.219 578.772 259.349 580.012 256.799C580.802 266.539 586.562 269.579 593.562 263.849C599.372 259.089 603.852 252.719 608.912 247.049C613.982 241.379 618.632 235.249 624.212 230.139C629.882 224.949 633.422 226.189 636.682 233.159C639.272 238.689 641.362 244.539 644.652 249.619C648.982 256.289 654.602 256.599 660.462 251.169C664.462 247.459 667.952 243.189 672.062 239.629C680.232 232.579 683.592 233.539 691.092 237.269C711.962 247.629 733.742 255.829 757.402 255.989C767.532 256.059 777.732 254.039 787.802 252.369C811.412 248.459 835.172 246.049 859.062 245.829C936.212 245.089 1013.37 244.409 1090.52 244.389C1139.68 244.379 1188.84 245.589 1237.99 246.259C1239.56 246.279 1241.13 246.409 1242.7 246.489C1242.71 246.939 1242.66 247.369 1242.62 247.799Z" stroke="#009245" stroke-width="2" stroke-miterlimit="10"/>
<path d="M145.742 8.96944C146.242 8.84944 146.752 8.72944 146.582 8.76944C142.042 15.1394 136.732 21.5294 132.652 28.6394C129.452 34.2094 127.892 40.7094 125.342 46.6794C124.792 47.9694 123.282 49.3494 121.952 49.6994C119.102 50.4394 116.072 50.5394 112.072 51.0294C115.692 45.1294 118.922 39.8894 122.122 34.6394C123.382 32.5794 124.572 30.4794 125.792 28.3994C132.442 21.9194 139.092 15.4394 145.742 8.96944Z" stroke="#009245" stroke-width="2" stroke-miterlimit="10"/>
<path d="M270.062 132.919C271.882 140.229 274.442 147.449 275.372 154.869C277.272 169.999 278.362 185.229 279.652 200.429C280.882 214.959 281.852 229.519 286.142 243.589C286.482 244.699 286.912 245.789 287.332 246.939C295.762 242.119 296.582 242.249 300.082 251.499C303.932 261.679 304.082 272.309 302.602 282.969C300.252 299.929 295.482 316.009 284.262 329.439C276.602 338.619 270.022 337.969 265.962 326.909C263.042 318.969 261.282 310.369 260.532 301.919C259.072 285.509 258.682 268.999 257.852 252.539C258.202 252.509 258.562 252.479 258.912 252.449C259.962 259.329 261.002 266.209 262.052 273.089C262.552 273.079 263.052 273.059 263.552 273.049C263.662 271.719 263.952 270.379 263.842 269.059C262.572 252.759 260.922 236.489 260.062 220.169C259.512 209.729 259.392 199.159 260.362 188.769C261.902 172.379 264.492 156.089 266.722 139.769C267.032 137.509 267.842 135.309 268.422 133.089C268.972 133.039 269.512 132.979 270.062 132.919Z" stroke="#009245" stroke-width="2" stroke-miterlimit="10"/>
<path d="M66.342 274.379C70.542 305.729 77.092 336.369 93.682 364.269C86.392 368.379 78.702 370.769 70.672 372.409C59.222 374.739 47.862 374.509 36.642 371.459C19.742 366.859 12.932 349.889 21.952 334.049C25.832 327.239 31.102 321.229 35.672 314.799C43.572 303.709 51.392 292.559 59.302 281.479C61.162 278.869 63.262 276.419 65.242 273.889C65.622 274.059 65.982 274.219 66.342 274.379Z" stroke="#009245" stroke-width="2" stroke-miterlimit="10"/>
<path d="M111.442 160.579C116.082 170.499 120.682 180.309 125.482 190.549C131.692 187.769 135.282 182.109 139.672 177.139C142.242 179.949 143.182 182.899 142.622 186.549C138.592 212.639 135.382 238.909 127.692 264.259C125.152 272.649 121.042 280.579 117.382 288.589C116.542 290.429 114.592 291.769 112.682 293.849C107.742 264.799 102.932 236.559 98.1319 208.309C97.6919 208.239 97.2519 208.169 96.8119 208.099C95.9719 210.039 95.1219 211.979 94.2819 213.919C95.6219 194.939 93.9119 175.069 111.442 160.579Z" stroke="#009245" stroke-width="2" stroke-miterlimit="10"/>
<path d="M182.732 86.9594C181.102 89.8194 179.482 92.6795 177.852 95.5395C178.172 95.9495 178.502 96.3595 178.822 96.7695C181.532 86.7595 188.012 85.7395 196.732 86.6895C204.542 87.5395 210.832 81.3895 212.822 73.5795C213.392 71.3495 213.752 69.0695 214.212 66.8095C214.582 66.7295 214.952 66.6595 215.322 66.5795C216.492 71.2295 218.322 75.8194 218.722 80.5294C220.002 95.4694 220.772 110.449 221.672 125.419C221.722 126.189 221.282 127.469 220.712 127.729C212.912 131.359 208.232 138.029 203.552 145.289C201.512 137.989 199.582 131.089 197.472 123.559C178.592 132.509 172.592 149.799 164.892 166.629C162.462 162.569 160.202 158.929 158.122 155.189C157.732 154.489 157.982 153.369 158.112 152.459C159.302 143.819 160.602 135.199 161.712 126.549C162.912 117.229 163.982 107.879 165.012 98.5395C165.402 94.9695 167.152 92.5895 170.422 91.1595C174.342 89.4395 178.222 87.6095 182.112 85.8195C182.322 86.1995 182.522 86.5794 182.732 86.9594Z" stroke="#009245" stroke-width="2" stroke-miterlimit="10"/>
<path d="M177.642 346.259C176.302 343.629 175.182 342.189 174.802 340.569C173.622 335.539 172.522 330.469 171.782 325.359C171.112 320.679 172.052 316.759 174.952 312.289C179.382 305.469 182.082 297.359 184.612 289.509C189.622 273.979 192.122 257.989 191.092 242.169C194.262 241.769 198.202 242.429 199.812 240.799C202.402 238.179 204.202 234.209 205.032 230.519C208.292 216.159 208.072 201.509 207.192 186.929C206.482 175.239 204.992 163.589 203.842 151.929C203.812 151.659 203.712 151.389 203.712 151.119C203.622 147.059 213.752 133.229 217.682 132.239C220.902 131.429 222.222 133.089 222.252 136.169C222.382 146.669 222.542 157.179 222.692 167.679C222.712 169.319 222.632 170.959 222.702 172.589C223.452 188.789 221.452 204.159 214.562 219.379C205.042 240.389 199.852 262.999 196.182 285.759C193.932 299.699 193.392 313.909 191.942 327.979C191.742 329.869 191.142 332.069 189.942 333.439C186.252 337.709 182.162 341.619 177.642 346.259Z" stroke="#009245" stroke-width="2" stroke-miterlimit="10"/>
<path d="M348.512 136.239C348.512 153.609 348.612 169.839 348.492 186.069C348.232 219.689 350.442 253.149 355.392 286.399C355.902 289.829 355.222 291.519 351.812 292.749C343.512 295.759 337.132 293.509 333.282 285.339C328.322 274.819 327.142 263.689 328.422 252.189C330.832 230.649 332.592 209.019 335.732 187.579C337.662 174.429 341.582 161.569 344.732 148.609C345.682 144.729 347.062 140.949 348.512 136.239Z" stroke="#009245" stroke-width="2" stroke-miterlimit="10"/>
<path d="M10.9319 171.289C9.76194 171.529 8.59194 171.769 6.98194 172.099C6.86194 162.919 8.53194 154.219 11.7119 145.809C17.8519 129.639 28.7119 117.089 42.3019 106.739C44.2319 105.269 46.4919 104.199 48.6819 103.109C53.9019 100.509 58.4419 99.8395 63.0119 105.219C65.9819 108.719 70.6719 110.769 74.6419 113.399C76.7719 114.809 79.0019 116.069 81.3619 117.509C75.9619 123.759 73.8519 130.909 73.0519 138.459C72.6219 142.499 71.4919 145.739 67.4719 147.469C66.1419 148.039 65.0319 149.139 63.6019 150.149C60.0919 140.429 56.5219 131.009 46.9919 125.039C34.9719 143.429 35.7519 164.079 35.0319 184.989C31.9819 181.389 29.3119 178.499 27.0219 175.349C26.4419 174.559 26.9719 172.879 27.1619 171.629C28.0019 166.129 29.2619 160.659 29.5919 155.129C29.7219 152.969 27.7819 150.679 26.7819 148.449C24.4519 149.549 21.0319 150.049 20.0019 151.879C17.5219 156.269 15.8119 161.199 14.4819 166.099C13.8119 168.569 13.3919 170.599 10.7519 171.429L10.9319 171.289Z" stroke="#009245" stroke-width="2" stroke-miterlimit="10"/>
<path d="M212.112 59.2294C204.722 56.7694 200.522 61.1194 196.922 65.5194C192.972 70.3394 189.752 75.7694 186.402 81.0594C185.172 82.9994 183.892 84.0294 181.522 84.7194C176.612 86.1394 171.942 88.3995 166.892 90.4295C168.052 82.5395 169.372 74.7894 170.302 67.0094C172.082 52.1294 174.482 37.2594 172.012 22.2194C170.762 14.6194 167.782 8.15944 160.212 4.70944C163.662 2.72944 169.152 2.68944 173.902 4.41944C182.402 7.50944 188.772 13.3894 194.272 20.2694C202.702 30.8294 209.222 42.3794 211.742 55.8594C211.922 56.7594 211.952 57.6994 212.112 59.2294Z" stroke="#009245" stroke-width="2" stroke-miterlimit="10"/>
<path d="M140.292 52.8695C138.042 52.0195 135.842 50.9895 133.522 50.3795C131.332 49.8095 129.012 49.6794 126.212 49.2794C130.942 32.1194 138.122 17.0695 153.172 7.04946C157.152 4.39946 163.882 6.57945 166.182 11.9195C168.352 16.9495 169.982 22.5095 170.402 27.9395C172.022 48.9095 168.672 69.5295 164.952 90.0795C164.762 91.1395 164.182 92.1294 163.272 93.1194C160.922 81.5494 159.192 69.9595 150.682 61.0495C147.232 58.3195 143.762 55.5895 140.292 52.8695Z" stroke="#009245" stroke-width="2" stroke-miterlimit="10"/>
<path d="M227.622 196.389C227.722 197.539 227.832 198.689 227.932 199.839C229.012 213.279 230.422 226.699 231.022 240.159C231.302 246.499 230.212 252.929 229.422 259.269C227.142 277.379 225.142 295.549 222.152 313.549C220.492 323.559 217.322 333.359 214.342 343.099C212.992 347.519 210.532 352.199 205.012 352.149C199.552 352.099 197.982 347.239 196.382 342.999C194.082 336.899 193.922 331.479 198.172 325.479C207.012 312.999 211.632 298.509 215.052 283.709C220.962 258.079 222.552 231.969 223.512 205.779C223.632 202.529 225.332 199.329 226.302 196.099C226.732 196.199 227.182 196.289 227.622 196.389Z" stroke="#009245" stroke-width="2" stroke-miterlimit="10"/>
<path d="M156.072 201.449C163.552 210.879 170.492 219.569 177.342 228.349C177.902 229.069 178.102 230.399 177.922 231.349C172.802 258.419 170.352 285.779 168.922 313.259C168.922 313.339 168.742 313.409 167.782 314.189C165.862 311.769 163.312 309.609 162.102 306.859C155.432 291.649 152.282 275.959 155.472 259.229C158.372 243.999 158.232 228.639 155.732 213.279C155.122 209.559 155.912 205.639 156.072 201.449Z" stroke="#009245" stroke-width="2" stroke-miterlimit="10"/>
<path d="M140.292 52.8695C143.762 55.5995 147.232 58.3195 150.692 61.0495C156.172 70.0195 159.172 79.7895 160.462 90.1995C160.882 93.5795 160.012 95.5295 157.272 97.7095C151.522 102.269 146.222 107.419 140.902 112.499C139.772 113.579 139.352 115.399 137.882 116.389C127.032 95.1295 121.462 74.1295 126.182 50.5695C131.022 51.3495 135.662 52.1095 140.292 52.8695Z" stroke="#009245" stroke-width="2" stroke-miterlimit="10"/>
<path d="M74.642 264.829C77.512 273.209 79.752 281.069 82.872 288.559C89.352 304.129 96.432 319.449 102.972 334.999C104.522 338.689 105.532 342.869 105.652 346.849C105.862 354.259 102.132 359.759 94.772 363.689C91.652 357.129 88.302 350.789 85.572 344.199C76.612 322.559 71.272 299.979 68.192 276.779C67.412 270.939 71.032 268.599 74.642 264.829Z" stroke="#009245" stroke-width="2" stroke-miterlimit="10"/>
<path d="M121.362 302.709C130.482 267.089 139.442 232.089 148.642 196.129C152.052 204.379 153.252 211.729 152.632 219.779C151.632 232.799 150.972 245.929 151.552 258.959C152.112 271.559 147.102 281.369 139.422 290.389C134.632 296.029 128.722 300.229 121.362 302.709Z" stroke="#009245" stroke-width="2" stroke-miterlimit="10"/>
<path d="M183.612 202.389C178.162 191.869 172.762 181.539 167.492 171.149C166.942 170.069 166.642 168.369 167.102 167.359C173.202 154.149 179.182 140.829 189.782 130.369C190.262 129.889 190.742 129.399 191.262 128.969C195.012 125.829 196.302 126.089 197.682 130.849C199.202 136.069 200.372 141.389 201.522 146.699C201.762 147.799 201.562 149.189 201.092 150.229C193.762 166.389 188.562 183.249 184.252 200.419C184.062 201.189 183.772 201.919 183.612 202.389Z" stroke="#009245" stroke-width="2" stroke-miterlimit="10"/>
<path d="M37.2419 251.079C37.2419 246.579 37.6119 242.049 37.1619 237.599C36.3619 229.789 39.3419 223.209 43.1019 216.829C43.7819 215.679 45.2319 214.979 46.3219 214.079C47.1119 215.089 48.1519 215.999 48.6419 217.139C53.7519 229.009 59.1419 240.769 63.6219 252.869C65.4119 257.699 65.5019 263.289 65.5519 268.539C65.5619 270.339 63.3519 272.479 61.6919 273.929C55.5119 279.309 45.8419 279.379 39.4419 274.149C38.5819 273.449 38.0619 271.879 38.0419 270.699C37.9119 264.159 37.9819 257.619 37.9819 251.079C37.7219 251.079 37.4819 251.079 37.2419 251.079Z" stroke="#009245" stroke-width="2" stroke-miterlimit="10"/>
<path d="M221.472 207.769C218.702 248.919 216.922 290.289 194.052 326.839C194.712 285.239 205.412 245.899 221.472 207.769Z" stroke="#009245" stroke-width="2" stroke-miterlimit="10"/>
<path d="M202.892 153.909C203.512 160.369 204.342 166.829 204.722 173.299C205.742 190.709 206.922 208.149 204.192 225.519C203.712 228.589 202.892 231.639 201.932 234.599C200.932 237.709 198.922 239.729 195.262 239.369C191.622 239.019 190.602 236.919 190.022 233.459C188.682 225.429 186.622 217.529 185.022 209.549C184.612 207.489 184.232 205.099 184.852 203.199C190.102 187.199 195.592 171.279 201.032 155.349C201.202 154.859 201.562 154.439 201.832 153.979C202.192 153.949 202.542 153.929 202.892 153.909Z" stroke="#009245" stroke-width="2" stroke-miterlimit="10"/>
<path d="M82.9219 246.719C80.6619 250.689 78.4119 254.649 75.5319 259.729C73.2519 251.739 71.4019 244.749 69.2519 237.859C67.8419 233.319 68.0019 229.199 69.5119 224.549C71.1719 219.469 71.3319 213.889 71.9819 208.509C73.0119 199.939 73.9119 191.339 74.7719 183.569C79.2019 184.669 82.8219 186.639 85.9919 186.059C89.4119 185.439 92.4019 182.439 95.5619 180.489C94.0819 187.059 92.2019 193.829 91.0819 200.719C89.8819 208.089 88.5619 215.599 88.8019 222.999C89.0919 231.749 85.7519 239.159 82.7819 246.849C82.7919 246.849 82.9219 246.719 82.9219 246.719Z" stroke="#009245" stroke-width="2" stroke-miterlimit="10"/>
<path d="M10.7819 171.429C11.7119 171.479 12.6319 171.529 13.5419 171.589C14.9619 190.529 12.3619 210.169 25.4819 227.689C28.9419 222.889 31.7519 218.979 35.2419 214.139C35.2419 219.879 35.9119 224.809 35.1019 229.479C33.3119 239.929 30.7919 250.249 28.5619 260.619C28.4819 261.009 28.2619 261.369 27.7919 262.549C25.7119 259.419 23.7319 256.809 22.1519 253.979C11.0219 234.129 4.68192 212.879 4.57192 190.079C4.55192 184.889 6.67192 179.659 8.10192 174.529C8.45192 173.279 9.96192 172.359 10.9319 171.289C10.9319 171.289 10.7819 171.429 10.7819 171.429Z" stroke="#009245" stroke-width="2" stroke-miterlimit="10"/>
<path d="M100.702 304.779C101.962 306.109 103.382 307.329 104.452 308.799C106.452 311.539 108.122 314.529 110.202 317.209C110.912 318.129 112.432 318.419 114.382 319.399C115.132 325.229 116.442 332.079 116.792 338.979C117.352 350.119 117.532 361.299 117.282 372.449C117.222 375.159 115.452 379.019 113.322 380.109C111.762 380.909 107.842 378.579 105.822 376.719C102.252 373.429 99.3219 369.439 95.9219 365.509C97.4119 364.209 98.5019 363.269 99.5819 362.299C106.632 355.949 109.572 348.199 106.092 339.129C102.382 329.479 97.9219 320.129 93.8419 310.619C91.7619 305.779 89.8019 300.879 87.9019 296.289C91.3819 298.679 94.8919 301.089 98.3919 303.489C99.1619 303.919 99.9319 304.349 100.702 304.779Z" stroke="#009245" stroke-width="2" stroke-miterlimit="10"/>
<path d="M389.332 253.709C394.632 219.439 394.312 184.419 407.502 151.579C407.862 153.289 408.292 154.989 408.582 156.719C409.892 164.609 412.722 172.619 412.162 180.379C410.312 205.789 402.302 229.609 390.452 252.139C390.142 252.699 389.702 253.179 389.332 253.709Z" stroke="#009245" stroke-width="2" stroke-miterlimit="10"/>
<path d="M179.002 230.209C182.302 233.149 185.072 235.359 187.472 237.899C188.352 238.839 188.652 240.559 188.762 241.959C190.032 258.329 187.882 274.309 182.792 289.879C180.812 295.949 178.592 301.949 176.192 307.859C175.392 309.839 173.682 311.459 171.882 312.989C171.462 285.269 174.352 258.059 179.002 230.209Z" stroke="#009245" stroke-width="2" stroke-miterlimit="10"/>
<path d="M136.472 121.549C151.192 142.669 147.532 161.939 139.252 171.909C133.292 163.309 127.372 154.769 121.492 146.199C121.172 145.729 121.012 144.819 121.252 144.359C125.512 136.299 127.562 126.799 136.472 121.549Z" stroke="#009245" stroke-width="2" stroke-miterlimit="10"/>
<path d="M92.9319 142.109C96.6619 142.059 103.802 147.079 104.722 150.629C104.962 151.559 104.492 152.729 104.162 153.729C102.402 159.019 100.282 164.209 98.8619 169.589C97.2519 175.699 93.1819 179.689 88.4019 183.179C85.9519 184.979 83.0919 185.739 80.4119 183.769C77.6819 181.769 76.6719 179.169 77.6419 175.549C79.9219 167.009 81.8619 158.369 83.8319 149.749C84.8319 145.349 88.4819 142.169 92.9319 142.109Z" stroke="#009245" stroke-width="2" stroke-miterlimit="10"/>
<path d="M177.252 226.129C171.042 217.409 164.782 208.719 158.682 199.919C157.922 198.819 157.412 196.999 157.742 195.769C159.842 187.919 162.212 180.149 164.492 172.349C164.922 172.299 165.352 172.249 165.782 172.209C168.152 176.639 170.742 180.969 172.842 185.529C175.742 191.819 178.502 198.199 180.872 204.699C181.742 207.089 181.732 209.999 181.392 212.579C180.812 216.999 179.662 221.339 178.752 225.719C178.252 225.859 177.752 225.999 177.252 226.129Z" stroke="#009245" stroke-width="2" stroke-miterlimit="10"/>
<path d="M110.742 294.829C103.162 292.629 100.032 287.849 98.7619 282.189C97.1019 274.759 96.0519 267.159 95.3419 259.569C94.3119 248.569 93.4919 237.529 93.2719 226.499C93.1819 222.079 94.9519 217.629 95.8819 213.199C96.3619 213.219 96.8319 213.239 97.3119 213.269C101.732 240.079 106.142 266.899 110.742 294.829Z" stroke="#009245" stroke-width="2" stroke-miterlimit="10"/>
<path d="M100.702 304.779C99.932 304.349 99.1619 303.919 98.3919 303.499C87.6819 294.949 85.912 282.319 83.132 270.149C82.472 267.249 81.9119 264.319 81.2819 261.269C79.5619 261.359 78.1219 261.439 76.6819 261.519C78.8019 256.509 80.8619 251.609 82.9319 246.719C82.9319 246.719 82.8019 246.849 82.7919 246.849C84.5319 243.809 86.2819 240.779 88.0419 237.709C89.3019 246.199 90.122 254.779 91.922 263.149C94.712 276.119 98.1919 288.949 101.282 301.859C101.492 302.739 100.912 303.799 100.702 304.779Z" stroke="#009245" stroke-width="2" stroke-miterlimit="10"/>
<path d="M53.8019 179.809C57.4119 195.459 60.9919 210.799 64.4119 226.169C64.7419 227.659 64.0519 229.369 63.8319 230.989C62.2219 230.469 60.5619 230.079 59.0319 229.379C58.2219 229.009 57.3919 228.229 57.0019 227.429C52.0919 217.459 45.3619 208.349 43.0919 197.139C42.0919 192.219 43.6519 187.459 47.7719 184.469C49.9519 182.889 52.0419 181.179 53.8019 179.809Z" stroke="#009245" stroke-width="2" stroke-miterlimit="10"/>
<path d="M385.112 264.819C383.732 280.179 371.802 310.659 362.252 315.139C361.292 310.829 360.492 306.629 359.412 302.499C357.602 295.529 357.902 290.389 365.342 285.719C372.032 281.519 376.782 274.239 382.362 268.289C383.242 267.339 383.992 266.239 385.112 264.819Z" stroke="#009245" stroke-width="2" stroke-miterlimit="10"/>
<path d="M119.912 147.359C125.822 155.889 131.622 164.249 137.352 172.649C137.732 173.209 137.912 174.409 137.572 174.859C134.242 179.379 130.782 183.809 126.722 189.089C123.492 182.089 120.882 176.459 118.282 170.829C117.942 170.089 117.612 169.339 117.242 168.609C111.702 157.699 111.702 157.709 119.912 147.359Z" stroke="#009245" stroke-width="2" stroke-miterlimit="10"/>
<path d="M46.6619 183.109C47.4119 173.269 48.7319 163.169 48.7019 153.059C48.6919 148.769 46.0819 144.379 44.1919 140.239C42.9819 137.589 44.1719 129.909 46.7919 129.019C47.8519 128.659 49.7919 129.349 50.6619 130.229C56.3919 136.029 59.1219 143.449 61.3019 151.089C61.5319 151.899 60.7419 153.009 60.4019 153.979C58.6219 159.049 55.5819 164.059 55.3519 169.189C55.0319 176.389 51.5919 180.369 46.6619 183.109Z" stroke="#009245" stroke-width="2" stroke-miterlimit="10"/>
<path d="M142.512 118.259C148.342 111.319 153.972 104.609 159.612 97.8895C160.022 98.1795 160.432 98.4795 160.842 98.7695C162.392 114.499 155.412 128.539 152.052 143.299C151.562 143.399 151.082 143.489 150.592 143.589C149.392 140.279 147.692 137.049 147.112 133.639C146.082 127.589 145.502 121.489 142.512 118.259Z" stroke="#009245" stroke-width="2" stroke-miterlimit="10"/>
<path d="M16.0519 191.829C22.6519 191.829 28.6219 191.829 34.6619 191.829C36.5119 202.289 34.9119 212.379 27.9319 221.299C25.7819 224.049 24.6219 224.019 23.0319 220.899C18.3219 211.629 17.0719 201.569 16.0519 191.829Z" stroke="#009245" stroke-width="2" stroke-miterlimit="10"/>
<path d="M111.512 137.599C109.812 141.059 108.092 144.589 106.072 148.709C100.552 141.489 94.0419 137.859 85.2819 143.419C84.7019 139.919 85.3819 137.579 88.4019 136.329C91.8619 134.899 92.6219 132.449 91.0419 129.199C89.2219 125.459 87.3419 121.759 85.5119 118.089C91.1519 116.159 101.022 123.359 111.512 137.599Z" stroke="#009245" stroke-width="2" stroke-miterlimit="10"/>
<path d="M64.9219 220.409C62.9719 211.009 61.1519 202.429 59.4219 193.839C58.9619 191.569 58.6719 189.269 58.4119 186.969C56.9319 173.479 55.6419 178.489 65.4419 167.469C69.9419 185.099 70.9019 202.269 64.9219 220.409Z" stroke="#009245" stroke-width="2" stroke-miterlimit="10"/>
<path d="M186.462 84.1995C191.812 76.1795 195.942 68.1795 203.222 62.6295C204.642 61.5495 206.682 60.8895 208.472 60.8095C210.862 60.6995 212.832 61.9295 212.362 64.7995C211.782 68.3795 211.492 72.1695 210.092 75.4395C206.702 83.3595 202.102 85.7395 193.552 84.8995C191.532 84.6995 189.492 84.4995 186.462 84.1995Z" stroke="#009245" stroke-width="2" stroke-miterlimit="10"/>
<path d="M123.742 51.0195C123.742 63.0995 123.742 74.7995 123.742 85.6595C119.472 79.4595 114.252 72.5895 109.822 65.2495C106.002 58.9195 109.222 53.0695 116.452 51.9895C118.952 51.6095 121.462 51.3095 123.742 51.0195Z" stroke="#009245" stroke-width="2" stroke-miterlimit="10"/>
<path d="M40.8519 187.099C37.6119 171.219 37.3619 156.149 41.932 140.969C49.122 146.259 48.5619 179.669 40.8519 187.099Z" stroke="#009245" stroke-width="2" stroke-miterlimit="10"/>
<path d="M337.202 164.539C339.602 144.879 342.002 125.229 344.402 105.569C344.672 105.539 344.932 105.499 345.202 105.469C345.542 107.019 345.912 108.569 346.232 110.129C346.562 111.729 346.932 113.329 347.152 114.939C348.252 123.039 349.132 130.899 345.892 139.019C342.592 147.269 340.802 156.119 338.362 164.699C337.962 164.649 337.582 164.589 337.202 164.539Z" stroke="#009245" stroke-width="2" stroke-miterlimit="10"/>
<path d="M155.712 194.359C153.462 188.749 150.822 184.279 152.632 178.389C154.572 172.089 155.552 165.489 157.202 157.869C159.682 161.999 161.702 165.279 163.612 168.609C163.892 169.109 163.862 169.949 163.662 170.529C161.132 178.219 158.552 185.889 155.712 194.359Z" stroke="#009245" stroke-width="2" stroke-miterlimit="10"/>
<path d="M223.612 136.049C229.162 154.229 227.202 171.969 227.602 189.489C227.642 191.429 225.812 193.419 224.842 195.379C224.432 195.289 224.022 195.209 223.612 195.119C223.612 175.789 223.612 156.469 223.612 136.049Z" stroke="#009245" stroke-width="2" stroke-miterlimit="10"/>
<path d="M236.882 185.999C235.462 200.729 234.032 215.469 232.612 230.199C232.212 230.209 231.822 230.209 231.422 230.219C231.132 226.309 230.822 222.399 230.552 218.479C230.272 214.409 229.982 210.339 229.792 206.269C229.652 203.419 229.982 200.509 229.542 197.719C228.702 192.269 231.162 188.649 235.252 185.699C235.792 185.799 236.332 185.899 236.882 185.999Z" stroke="#009245" stroke-width="2" stroke-miterlimit="10"/>
<path d="M35.3519 189.149C29.0719 191.559 23.4719 191.399 17.8719 189.779C17.0719 189.549 16.0219 188.349 15.9919 187.579C15.8219 182.309 15.9019 177.029 16.4819 171.589C20.3219 174.979 17.6919 180.379 20.3119 185.149C22.2319 182.159 23.8419 179.659 25.9519 176.369C29.1719 180.729 32.1419 184.779 35.3519 189.149Z" stroke="#009245" stroke-width="2" stroke-miterlimit="10"/>
<path d="M32.4219 303.019C29.2419 295.049 27.9619 277.659 29.7519 269.349C33.4719 271.769 36.6419 273.899 36.3619 279.229C35.9419 287.079 35.9819 294.909 32.4219 303.019Z" stroke="#009245" stroke-width="2" stroke-miterlimit="10"/>
<path d="M24.8719 172.869C21.3619 171.629 18.8319 170.739 15.9219 169.719C16.1919 163.209 17.3119 156.909 22.0819 151.879C22.9719 150.939 24.5919 150.699 25.8719 150.129C26.3119 151.359 27.2319 152.629 27.1219 153.799C26.5319 159.989 25.6919 166.159 24.8719 172.869Z" stroke="#009245" stroke-width="2" stroke-miterlimit="10"/>
<path d="M82.562 138.919C80.032 140.139 77.492 141.349 74.912 142.589C73.662 134.609 77.582 122.649 83.002 118.899C83.882 125.819 84.892 132.379 82.552 138.949C82.552 138.939 82.562 138.919 82.562 138.919Z" stroke="#009245" stroke-width="2" stroke-miterlimit="10"/>
<path d="M71.2419 191.259C70.0819 184.019 69.2819 177.259 67.8519 170.639C66.9519 166.489 67.4019 163.219 71.6619 160.179C71.4819 170.699 77.9919 180.629 71.2419 191.259Z" stroke="#009245" stroke-width="2" stroke-miterlimit="10"/>
<path d="M35.6519 270.979C31.9319 268.049 29.3219 265.649 30.4519 260.619C32.1919 252.909 33.1619 245.009 34.4619 237.199C34.8619 237.249 35.2519 237.309 35.6519 237.359C35.6519 248.319 35.6519 259.289 35.6519 270.979Z" stroke="#009245" stroke-width="2" stroke-miterlimit="10"/>
<path d="M67.1619 237.519C69.2819 245.049 71.8919 252.729 73.3419 260.609C73.7119 262.599 70.3819 265.279 68.7519 267.639C68.2219 267.419 67.6919 267.189 67.1619 266.969C67.1619 257.109 67.1619 247.259 67.1619 237.519Z" stroke="#009245" stroke-width="2" stroke-miterlimit="10"/>
<path d="M259.322 172.469C257.672 151.039 260.672 131.249 266.022 128.219C263.802 142.899 261.582 157.499 259.322 172.469Z" stroke="#009245" stroke-width="2" stroke-miterlimit="10"/>
<path d="M40.9419 200.219C42.4219 203.219 43.8719 205.919 45.0819 208.719C45.3819 209.409 45.1619 210.589 44.7319 211.269C42.4419 214.909 40.0019 218.459 37.6519 221.989C35.4419 215.829 36.5319 208.039 40.9419 200.219Z" stroke="#009245" stroke-width="2" stroke-miterlimit="10"/>
<path d="M75.3319 174.209C74.9219 168.599 73.6819 162.869 74.4419 157.429C74.8619 154.389 78.6119 151.809 80.8619 149.019C81.3019 149.209 81.7419 149.389 82.1719 149.579C80.3519 157.819 78.5219 166.059 76.7019 174.299C76.2419 174.269 75.7919 174.239 75.3319 174.209Z" stroke="#009245" stroke-width="2" stroke-miterlimit="10"/>
<path d="M151.872 149.979C154.982 153.039 156.022 155.969 155.012 159.839C153.482 165.699 152.372 171.669 150.722 177.539C148.472 168.329 149.282 159.329 151.872 149.979Z" stroke="#009245" stroke-width="2" stroke-miterlimit="10"/>
<path d="M113.972 305.509C113.512 302.269 113.132 300.269 112.992 298.259C112.932 297.429 113.142 296.309 113.682 295.739C115.442 293.879 117.562 292.359 119.242 290.439C120.912 288.529 122.202 286.299 124.432 284.459C122.562 290.559 120.862 296.729 118.692 302.719C118.262 303.879 116.002 304.369 113.972 305.509Z" stroke="#009245" stroke-width="2" stroke-miterlimit="10"/>
<path d="M183.752 212.629C185.272 219.849 186.802 227.069 188.402 234.649C181.842 232.029 179.372 227.709 180.612 221.879C181.262 218.849 181.922 215.809 182.582 212.779C182.972 212.729 183.362 212.679 183.752 212.629Z" stroke="#009245" stroke-width="2" stroke-miterlimit="10"/>
<path d="M61.232 101.019C69.972 100.159 79.532 106.759 81.532 115.679C74.242 110.979 67.432 106.589 60.632 102.199C60.832 101.809 61.032 101.419 61.232 101.019Z" stroke="#009245" stroke-width="2" stroke-miterlimit="10"/>
<path d="M154.872 220.139C156.272 232.419 156.382 244.659 153.542 256.809C153.542 244.569 153.542 232.339 153.542 220.099C153.992 220.119 154.432 220.129 154.872 220.139Z" stroke="#009245" stroke-width="2" stroke-miterlimit="10"/>
<path d="M100.622 291.209C103.782 293.009 107.322 294.159 109.532 296.549C111.352 298.519 111.602 301.959 112.552 304.789C105.662 306.429 105.302 306.289 103.422 300.699C102.352 297.509 101.502 294.239 100.622 291.209Z" stroke="#009245" stroke-width="2" stroke-miterlimit="10"/>
<path d="M237.372 212.169C236.802 225.179 236.222 238.179 235.652 251.189C230.862 238.039 235.922 225.229 235.872 212.239C236.382 212.219 236.882 212.189 237.372 212.169Z" stroke="#009245" stroke-width="2" stroke-miterlimit="10"/>
<path d="M137.942 228.149C140.282 214.929 142.632 201.699 144.972 188.479C145.222 188.379 145.482 188.279 145.732 188.179C146.252 190.069 147.562 192.129 147.172 193.809C144.522 205.329 141.532 216.779 138.642 228.249C138.412 228.219 138.182 228.179 137.942 228.149Z" stroke="#009245" stroke-width="2" stroke-miterlimit="10"/>
<path d="M56.6019 172.949C58.1519 166.329 59.4619 160.739 60.7819 155.159C66.4219 161.939 65.0619 167.449 56.6019 172.949Z" stroke="#009245" stroke-width="2" stroke-miterlimit="10"/>
<path d="M66.832 162.009C63.592 150.979 62.502 152.659 71.642 146.479C71.642 152.329 72.932 158.069 66.832 162.009Z" stroke="#009245" stroke-width="2" stroke-miterlimit="10"/>
<path d="M82.552 138.939C83.602 142.519 83.072 145.509 79.842 147.939C77.942 149.369 76.4519 151.349 74.6519 153.219C72.9619 145.769 73.362 144.949 79.602 141.389C80.702 140.769 81.572 139.759 82.552 138.919C82.562 138.919 82.552 138.939 82.552 138.939Z" stroke="#009245" stroke-width="2" stroke-miterlimit="10"/>
<path d="M159.372 131.509C158.452 137.929 157.532 144.359 156.602 150.829C151.512 148.979 152.662 143.359 159.372 131.509Z" stroke="#009245" stroke-width="2" stroke-miterlimit="10"/>
<path d="M116.962 140.809C115.632 136.859 120.772 129.029 126.762 124.369C126.262 131.509 120.352 134.889 116.962 140.809Z" stroke="#009245" stroke-width="2" stroke-miterlimit="10"/>
<path d="M112.212 306.929C112.582 308.739 113.122 310.439 113.192 312.149C113.232 313.159 112.502 314.199 112.112 315.229C111.242 314.739 110.052 314.459 109.552 313.719C108.232 311.719 107.202 309.529 105.802 306.939C108.092 306.929 109.962 306.929 112.212 306.929Z" stroke="#009245" stroke-width="2" stroke-miterlimit="10"/>
<path d="M78.532 264.599C83.252 269.669 82.702 276.439 83.092 282.909C81.122 276.949 79.162 270.989 77.192 265.039C77.632 264.889 78.082 264.739 78.532 264.599Z" stroke="#009245" stroke-width="2" stroke-miterlimit="10"/>
<path d="M85.7219 136.399C85.7219 131.569 85.7219 127.399 85.7219 123.079C90.6419 128.449 90.8219 132.599 85.7219 136.399Z" stroke="#009245" stroke-width="2" stroke-miterlimit="10"/>
<path d="M412.282 166.299C411.152 159.929 410.012 153.569 408.882 147.199C409.422 147.099 409.972 147.009 410.512 146.909C413.192 153.009 412.792 159.659 413.432 166.129C413.052 166.189 412.662 166.239 412.282 166.299Z" stroke="#009245" stroke-width="2" stroke-miterlimit="10"/>
<path d="M63.3619 244.859C61.9319 240.709 60.5019 236.559 58.9019 231.889C60.9319 232.379 62.4319 232.749 64.1519 233.169C64.1519 237.029 64.1519 240.909 64.1519 244.789C63.8819 244.819 63.6219 244.839 63.3619 244.859Z" stroke="#009245" stroke-width="2" stroke-miterlimit="10"/>
<path d="M153.492 204.589C152.562 199.229 148.912 195.049 150.432 189.719C152.532 194.289 157.332 198.199 153.492 204.589Z" stroke="#009245" stroke-width="2" stroke-miterlimit="10"/>
<path d="M147.822 188.309C143.872 183.539 146.922 178.299 146.412 173.299C146.772 173.269 147.142 173.229 147.502 173.199C148.072 178.249 148.642 183.299 149.222 188.359C148.752 188.339 148.292 188.329 147.822 188.309Z" stroke="#009245" stroke-width="2" stroke-miterlimit="10"/>
<path d="M109.512 155.549C111.772 151.809 114.032 148.069 116.292 144.339C116.782 144.589 117.282 144.839 117.772 145.089C117.612 149.859 113.232 152.549 111.482 156.529C110.812 156.209 110.162 155.879 109.512 155.549Z" stroke="#009245" stroke-width="2" stroke-miterlimit="10"/>
<path d="M144.242 131.409C142.202 127.319 140.162 123.229 137.742 118.399C142.442 120.259 144.652 124.829 144.242 131.409Z" stroke="#009245" stroke-width="2" stroke-miterlimit="10"/>
<path d="M134.052 115.919C132.652 116.559 131.502 117.089 129.992 117.779C129.992 114.109 129.992 110.869 129.992 107.629C130.192 107.559 130.382 107.479 130.582 107.409C131.702 110.149 132.822 112.889 134.052 115.919Z" stroke="#009245" stroke-width="2" stroke-miterlimit="10"/>
<path d="M115.472 141.789C113.292 145.329 111.102 148.859 108.922 152.399C108.492 152.169 108.062 151.929 107.632 151.699C109.642 148.109 111.642 144.519 113.652 140.919C114.262 141.209 114.862 141.499 115.472 141.789Z" stroke="#009245" stroke-width="2" stroke-miterlimit="10"/>
<path d="M90.1719 223.589C90.5019 217.999 90.8319 212.419 91.1619 206.829C91.2119 206.839 91.2719 206.849 91.3219 206.859C91.3219 212.449 91.3219 218.039 91.3219 223.629C90.9319 223.629 90.5519 223.609 90.1719 223.589Z" stroke="#009245" stroke-width="2" stroke-miterlimit="10"/>
<path d="M91.6019 230.199C91.6019 235.409 91.6019 240.609 91.6019 245.819C91.5419 245.839 91.4719 245.849 91.4119 245.869C91.0419 240.659 90.6719 235.439 90.3019 230.229C90.7419 230.209 91.1719 230.199 91.6019 230.199Z" stroke="#009245" stroke-width="2" stroke-miterlimit="10"/>
<path d="M36.7419 201.739C36.7419 199.169 36.7419 196.599 36.7419 193.729C40.4419 196.549 38.4219 199.149 36.7419 201.739Z" stroke="#009245" stroke-width="2" stroke-miterlimit="10"/>
<path d="M20.4319 172.649C25.0119 176.309 21.4619 178.549 19.9819 180.969C20.1119 178.539 20.2419 176.119 20.4319 172.649Z" stroke="#009245" stroke-width="2" stroke-miterlimit="10"/>
<path d="M147.882 153.399C147.882 149.459 147.882 146.659 147.882 143.519C151.802 146.469 150.092 149.339 147.882 153.399Z" stroke="#009245" stroke-width="2" stroke-miterlimit="10"/>
<path d="M143.352 178.469C139.102 174.779 142.612 172.769 144.442 170.479C144.102 172.979 143.762 175.469 143.352 178.469Z" stroke="#009245" stroke-width="2" stroke-miterlimit="10"/>
<path d="M134.752 118.849C133.002 120.849 131.262 122.839 129.172 125.229C128.372 120.499 131.562 119.619 134.752 118.849Z" stroke="#009245" stroke-width="2" stroke-miterlimit="10"/>
<path d="M454.472 266.469C451.872 260.899 448.872 255.479 446.762 249.729C442.222 237.359 439.452 224.539 440.622 211.309C441.162 205.159 443.082 199.109 444.612 193.069C444.882 191.989 446.282 191.189 447.162 190.259C447.952 191.289 449.232 192.209 449.462 193.349C451.362 202.529 453.832 211.689 454.662 220.979C455.992 235.869 456.202 250.849 456.882 265.799C456.082 266.019 455.272 266.249 454.472 266.469Z" stroke="#009245" stroke-width="2" stroke-miterlimit="10"/>
<path d="M453.152 287.419C439.682 270.359 440.622 249.899 439.562 229.939C439.952 232.299 440.282 234.679 440.732 237.029C441.192 239.439 441.732 241.829 442.302 244.209C444.542 253.569 447.412 262.619 454.772 269.459C455.062 269.729 455.542 270.069 455.542 270.359C455.412 276.089 455.592 281.869 453.152 287.419Z" stroke="#009245" stroke-width="2" stroke-miterlimit="10"/>
</g></a></svg>
