<svg width="1244" height="384" viewBox="0 0 1244 384" fill="none" xmlns="http://www.w3.org/2000/svg">
<a href="">
<g><path d="M77.3319 64.1795C85.6819 60.6395 93.9019 56.6795 102.452 53.7195C107.302 52.0395 110.952 50.1495 113.602 45.3595C116.992 39.2295 121.602 33.7795 125.682 28.0395C124.462 30.1195 123.262 32.2195 122.012 34.2795C118.812 39.5295 115.582 44.7695 111.962 50.6695C115.962 50.1795 118.982 50.0795 121.842 49.3395C123.172 48.9895 124.682 47.6095 125.232 46.3195C127.782 40.3495 129.342 33.8495 132.542 28.2795C136.622 21.1795 141.932 14.7795 146.472 8.40947C146.642 8.36947 146.142 8.48947 145.632 8.60947C146.132 8.00947 146.512 7.14947 147.152 6.85947C159.112 1.42947 170.332 -2.06053 183.682 7.96947C200.292 20.4495 210.682 36.9395 213.502 57.8095C213.662 59.0195 213.692 60.3695 214.262 61.3895C221.092 73.5195 220.822 87.0995 222.182 100.319C222.742 105.739 222.832 111.229 222.702 116.679C222.522 124.229 223.622 131.299 226.462 138.479C230.532 148.739 230.212 159.859 230.012 170.789C229.922 176.039 229.992 181.299 229.992 186.549C232.432 185.109 234.882 183.659 238.012 181.819C239.492 176.439 241.282 169.949 243.072 163.459C251.392 173.789 253.812 185.879 257.352 197.789C257.352 193.839 257.392 189.889 257.342 185.939C257.282 181.849 256.972 177.749 257.062 173.669C257.322 162.519 257.242 151.319 258.312 140.239C258.772 135.439 261.622 130.839 263.602 126.239C264.392 124.379 265.702 122.629 267.552 125.149C269.722 121.869 271.442 118.739 273.672 116.029C278.172 110.539 283.282 110.609 287.612 116.229C293.102 123.369 295.812 131.699 295.952 140.589C296.232 157.909 295.842 175.229 296.122 192.549C296.222 198.699 297.452 204.819 298.172 210.959C298.692 211.029 299.202 211.099 299.722 211.169C300.382 209.839 301.362 208.579 301.642 207.169C304.442 193.009 307.302 178.869 309.782 164.659C312.122 151.229 314.062 137.739 319.562 125.109C320.162 123.739 320.832 122.399 321.532 121.079C321.692 120.789 322.132 120.639 323.122 119.969C323.362 127.059 324.112 133.669 323.702 140.199C322.172 164.829 320.182 189.429 318.532 214.059C316.942 237.869 315.362 261.679 314.212 285.509C313.862 292.649 314.942 299.869 316.342 307.159C317.142 304.129 318.132 301.139 318.712 298.069C321.012 285.739 323.652 273.459 325.242 261.029C326.662 249.959 326.442 238.689 327.712 227.589C329.312 213.659 332.012 199.849 333.652 185.919C335.612 169.269 336.832 152.529 338.582 135.849C339.842 123.779 341.442 111.749 342.922 99.7095C343.062 98.5895 343.502 97.5095 343.802 96.4095C344.302 96.3895 344.792 96.3595 345.292 96.3395C346.852 105.839 348.412 115.349 349.992 124.969C352.282 120.659 354.622 116.269 356.952 111.879C356.212 113.779 355.542 115.699 354.732 117.559C351.582 124.729 349.212 131.969 350.262 140.059C350.842 144.499 350.672 149.059 350.532 153.549C349.332 192.869 350.342 232.099 355.042 271.199C355.752 277.069 356.532 282.939 357.352 289.379C366.152 283.959 373.082 277.639 378.542 269.919C381.782 265.339 385.862 260.439 386.662 255.229C389.352 237.739 390.732 220.049 392.632 202.429C394.492 185.179 397.292 168.079 404.402 152.129C406.472 147.479 406.562 143.359 405.582 138.759C404.162 132.099 403.052 125.369 401.442 118.759C399.432 110.549 397.092 102.389 391.532 95.6895C386.942 90.1595 381.322 88.5095 375.182 92.0995C370.372 94.9195 366.412 99.1995 362.082 102.839C365.752 95.3295 371.212 89.8195 379.852 89.0795C388.362 88.3495 393.802 93.5595 396.822 100.699C399.872 107.899 402.062 115.519 404.092 123.099C405.772 129.379 406.672 135.879 408.782 141.679C409.722 142.769 411.052 143.719 411.522 144.979C415.142 154.739 415.292 164.909 415.212 175.169C415.182 179.029 416.662 182.899 417.672 187.829C419.222 186.099 419.802 185.449 420.372 184.799C420.502 184.919 420.622 185.029 420.752 185.149C420.092 186.839 419.442 188.519 418.312 191.409C416.782 188.269 415.832 186.309 415.032 184.679C411.742 196.449 409.162 208.549 404.952 220.049C400.102 233.299 393.602 245.939 388.252 259.029C386.372 263.619 385.762 268.729 384.622 273.609C381.142 288.449 376.592 302.799 366.162 314.489C364.772 316.049 363.112 317.379 360.942 319.409C359.172 309.839 357.572 301.209 355.892 292.119C353.982 292.759 352.372 293.319 350.742 293.839C341.162 296.909 333.622 293.339 330.282 283.859C328.702 279.389 327.652 274.729 326.212 269.619C322.952 285.029 319.752 300.089 316.562 315.159C315.982 315.129 315.402 315.099 314.822 315.069C314.262 309.679 313.602 304.289 313.152 298.889C310.882 271.529 313.902 244.379 316.702 217.239C319.692 188.189 322.562 159.139 322.382 129.889C322.372 128.539 322.382 127.199 321.412 125.549C320.922 126.639 320.352 127.699 319.952 128.819C314.242 144.589 313.042 161.269 309.982 177.589C307.802 189.199 304.572 200.619 301.742 212.109C301.462 213.229 300.702 214.239 299.782 216.049C296.182 209.829 294.582 203.629 294.432 197.399C294.112 184.049 294.262 170.659 294.772 157.309C295.272 144.099 293.642 131.489 287.152 119.779C286.692 118.949 286.222 118.099 285.652 117.349C281.812 112.299 278.072 112.319 274.772 117.719C272.862 120.839 271.452 124.269 270.022 127.649C269.662 128.509 269.802 129.839 270.212 130.719C277.092 145.499 278.502 161.359 279.802 177.299C281.242 194.959 282.972 212.599 284.682 230.239C284.942 232.929 285.692 235.589 286.442 238.209C287.782 242.869 288.972 243.189 292.912 240.199C293.442 239.799 293.972 239.399 294.622 238.899C299.882 244.799 303.012 251.679 304.062 259.119C307.782 285.649 301.032 309.609 285.122 331.049C284.082 332.449 282.712 333.649 281.332 334.729C275.702 339.149 269.862 338.549 266.552 332.199C263.782 326.869 261.782 320.879 260.722 314.949C255.382 284.939 256.232 254.569 256.862 224.309C257.142 210.959 254.552 198.319 251.362 185.659C249.792 179.429 247.112 173.479 244.392 167.479C240.892 177.119 238.402 186.749 238.192 196.869C237.802 215.409 237.382 233.959 236.932 252.499C236.892 253.959 236.492 255.419 235.352 257.099C234.412 254.479 233.462 251.859 232.222 248.409C231.052 258.509 230.202 267.819 228.862 277.049C226.212 295.239 223.632 313.459 220.282 331.529C219.192 337.399 216.472 343.239 213.362 348.409C208.802 355.989 200.922 355.509 196.642 347.599C194.482 343.619 193.442 339.029 191.912 334.769C187.322 338.889 182.352 343.359 177.102 348.079C172.002 341.409 170.892 334.299 169.752 327.199C169.732 327.069 169.742 326.929 169.732 326.789C169.342 321.639 168.352 317.319 164.362 312.939C155.802 303.529 153.742 291.129 152.462 278.789C152.352 277.709 152.232 276.619 152.062 275.549C152.022 275.309 151.782 275.109 151.612 274.859C148.992 279.279 146.602 283.839 143.712 288.049C138.792 295.219 132.032 300.179 123.912 303.269C119.342 305.009 114.892 312.229 115.532 317.159C117.012 328.509 118.782 339.829 120.092 351.199C121.062 359.629 120.992 368.089 118.282 376.309C116.002 383.259 112.412 384.599 106.872 379.729C102.312 375.709 98.4819 370.859 94.0919 366.109C80.2619 372.789 64.992 375.349 49.332 374.529C42.262 374.159 34.9819 372.549 28.3619 370.019C19.1919 366.519 15.1419 357.959 16.0619 348.209C17.2619 335.489 24.2019 325.649 31.5619 315.879C40.6419 303.849 49.4619 291.619 58.1419 279.829C50.9519 278.689 44.552 277.679 37.942 276.639C38.042 286.039 37.812 296.209 32.662 305.389C32.242 305.469 31.812 305.559 31.392 305.639C30.252 301.319 28.4619 297.059 28.1019 292.669C27.4619 284.949 27.7219 277.159 27.5119 269.399C27.4719 267.849 27.4519 265.939 26.6019 264.829C17.0819 252.479 11.7719 238.149 7.66195 223.429C4.92195 213.629 3.13195 203.529 1.57195 193.459C0.541949 186.819 1.03195 180.099 5.17195 174.209C5.72195 173.419 5.83195 172.139 5.76195 171.119C4.26195 151.339 12.0519 134.779 24.4419 120.299C29.9319 113.879 36.832 108.519 43.672 103.449C47.242 100.809 52.062 99.8395 56.492 98.0495C52.762 89.7195 55.082 82.4995 61.802 76.3495C61.222 77.5495 60.682 78.7795 60.042 79.9495C57.382 84.8595 55.632 89.8995 57.422 95.5795C58.122 97.8095 59.372 98.6095 61.802 98.9195C65.642 99.4095 69.5919 100.249 73.1219 101.799C78.9819 104.359 81.782 109.769 83.672 115.609C90.782 114.369 95.2719 118.619 99.7919 122.479C104.322 126.349 108.542 130.579 112.532 134.299C116.802 129.749 121.162 125.279 125.272 120.599C126.482 119.219 127.672 117.289 127.782 115.549C128.742 99.7095 123.552 85.8395 113.762 73.5495C109.222 67.8395 104.882 62.0795 108.892 52.9295C100.512 55.8695 93.4819 58.3195 86.4719 60.8195C83.3919 61.8495 80.3719 63.0395 77.3319 64.1795ZM82.4419 138.559C81.4619 139.389 80.592 140.399 79.492 141.019C73.242 144.579 72.8519 145.399 74.5419 152.849C76.3419 150.989 77.8319 148.999 79.7319 147.569C82.9619 145.139 83.4919 142.159 82.4419 138.569C84.7819 131.999 83.7619 125.439 82.8919 118.519C77.4719 122.269 73.5519 134.229 74.8019 142.209C77.3819 140.989 79.9119 139.769 82.4419 138.559ZM100.582 304.419C100.792 303.439 101.372 302.379 101.162 301.499C98.0719 288.589 94.5919 275.769 91.8019 262.789C90.0019 254.419 89.182 245.839 87.922 237.349C86.162 240.409 84.412 243.449 82.672 246.489C85.642 238.789 88.992 231.379 88.702 222.629C88.452 215.229 89.7819 207.719 90.9819 200.349C92.1019 193.459 93.9719 186.689 95.4619 180.119C92.3019 182.069 89.3119 185.069 85.8919 185.689C82.7319 186.269 79.102 184.299 74.672 183.199C73.812 190.979 72.912 199.569 71.882 208.139C71.232 213.519 71.0619 219.099 69.4119 224.179C67.8919 228.829 67.7319 232.949 69.1519 237.489C71.3019 244.379 73.1519 251.369 75.4319 259.359C78.3119 254.289 80.5719 250.319 82.8319 246.349C80.7619 251.249 78.6919 256.149 76.5819 261.159C78.0219 261.079 79.4619 260.999 81.1819 260.909C81.8119 263.959 82.3719 266.889 83.0319 269.789C85.8119 281.959 87.5819 294.589 98.2919 303.139C94.7919 300.729 91.2819 298.329 87.8019 295.939C89.7019 300.529 91.662 305.429 93.742 310.269C97.822 319.779 102.282 329.129 105.992 338.779C109.472 347.839 106.542 355.589 99.4819 361.949C98.4119 362.919 97.3119 363.859 95.8219 365.159C99.2219 369.089 102.152 373.079 105.722 376.369C107.742 378.229 111.662 380.559 113.222 379.759C115.352 378.659 117.122 374.809 117.182 372.099C117.432 360.949 117.252 349.769 116.692 338.629C116.342 331.729 115.032 324.879 114.282 319.049C112.332 318.069 110.812 317.779 110.102 316.859C108.022 314.179 106.352 311.199 104.352 308.449C103.262 306.969 101.842 305.749 100.582 304.419ZM140.172 52.5095C135.542 51.7495 130.912 50.9995 126.072 50.2095C121.352 73.7695 126.922 94.7695 137.772 116.029C139.242 115.029 139.662 113.219 140.792 112.139C146.112 107.059 151.412 101.919 157.162 97.3495C159.902 95.1695 160.772 93.2195 160.352 89.8395C159.062 79.4295 156.062 69.6495 150.572 60.6795C159.102 69.5995 160.822 81.1895 163.172 92.7595C164.082 91.7695 164.652 90.7795 164.852 89.7195C168.572 69.1695 171.922 48.5495 170.302 27.5795C169.882 22.1395 168.252 16.5895 166.082 11.5595C163.782 6.21947 157.052 4.03947 153.072 6.68947C138.022 16.7095 130.842 31.7495 126.112 48.9195C128.912 49.3195 131.222 49.4395 133.422 50.0195C135.722 50.6195 137.922 51.6595 140.172 52.5095ZM10.8219 170.929C9.84195 171.999 8.33195 172.919 7.98195 174.169C6.55195 179.299 4.42195 184.529 4.45195 189.719C4.56195 212.509 10.912 233.769 22.022 253.609C23.612 256.439 25.592 259.049 27.662 262.179C28.142 260.999 28.352 260.639 28.432 260.249C30.662 249.879 33.182 239.559 34.972 229.109C35.772 224.439 35.1119 219.509 35.1119 213.769C31.6319 218.609 28.8119 222.509 25.3519 227.319C12.2219 209.799 14.8319 190.169 13.4119 171.219C12.5119 171.169 11.5819 171.119 10.6519 171.059C13.2919 170.229 13.7119 168.189 14.3819 165.729C15.7119 160.829 17.4119 155.899 19.9019 151.509C20.9419 149.669 24.352 149.179 26.682 148.079C27.682 150.309 29.6119 152.599 29.4919 154.759C29.1719 160.289 27.9019 165.759 27.0619 171.259C26.8719 172.509 26.3419 174.189 26.9219 174.979C29.2119 178.139 31.882 181.019 34.932 184.619C35.642 163.709 34.8719 143.069 46.8919 124.669C56.4219 130.639 59.9919 140.059 63.5019 149.779C64.9319 148.769 66.0319 147.679 67.3719 147.099C71.4019 145.359 72.522 142.129 72.952 138.089C73.752 130.539 75.8619 123.389 81.2619 117.139C78.9019 115.699 76.6719 114.439 74.5419 113.029C70.5719 110.399 65.882 108.349 62.912 104.849C58.342 99.4695 53.802 100.139 48.582 102.739C46.392 103.829 44.132 104.899 42.202 106.369C28.6119 116.719 17.7519 129.269 11.6119 145.439C8.42195 153.839 6.76195 162.539 6.88195 171.729C8.48195 171.409 9.65195 171.169 10.8219 170.929ZM269.952 132.559C269.402 132.619 268.852 132.679 268.312 132.739C267.732 134.969 266.922 137.159 266.612 139.419C264.382 155.739 261.792 172.029 260.252 188.419C259.272 198.809 259.392 209.379 259.952 219.819C260.812 236.139 262.472 252.409 263.732 268.709C263.832 270.019 263.542 271.369 263.442 272.699C262.942 272.709 262.442 272.729 261.942 272.739C260.892 265.859 259.852 258.979 258.802 252.099C258.452 252.129 258.092 252.159 257.742 252.189C258.572 268.659 258.962 285.159 260.422 301.569C261.172 310.009 262.932 318.619 265.852 326.559C269.912 337.619 276.492 338.259 284.152 329.089C295.372 315.659 300.142 299.579 302.492 282.619C303.972 271.969 303.822 261.329 299.972 251.149C296.472 241.909 295.652 241.769 287.222 246.589C286.812 245.429 286.372 244.349 286.032 243.239C281.742 229.169 280.762 214.609 279.542 200.079C278.262 184.879 277.162 169.649 275.262 154.519C274.322 147.089 271.772 139.869 269.952 132.559ZM66.2319 274.019C65.8719 273.859 65.5119 273.699 65.1419 273.539C63.1519 276.059 61.062 278.509 59.202 281.129C51.292 292.209 43.472 303.359 35.572 314.449C31.002 320.869 25.7319 326.889 21.8519 333.699C12.8219 349.539 19.642 366.509 36.542 371.109C47.762 374.159 59.1219 374.389 70.5719 372.059C78.6019 370.429 86.2919 368.029 93.5819 363.919C76.9819 336.009 70.4319 305.369 66.2319 274.019ZM111.322 160.219C93.792 174.709 95.5119 194.589 94.1619 213.559C95.0019 211.619 95.8519 209.679 96.6919 207.739C97.1319 207.809 97.5719 207.879 98.0119 207.949C102.822 236.189 107.622 264.439 112.562 293.489C114.472 291.409 116.422 290.069 117.262 288.229C120.922 280.209 125.022 272.279 127.572 263.899C135.262 238.549 138.472 212.279 142.502 186.189C143.062 182.539 142.122 179.589 139.552 176.779C135.152 181.759 131.562 187.409 125.362 190.189C120.572 179.939 115.972 170.129 111.322 160.219ZM182.622 86.5895C182.412 86.2095 182.202 85.8295 181.992 85.4495C178.092 87.2295 174.222 89.0695 170.302 90.7895C167.032 92.2195 165.282 94.5995 164.892 98.1695C163.862 107.509 162.792 116.859 161.592 126.179C160.482 134.829 159.182 143.449 157.992 152.089C157.872 152.999 157.622 154.119 158.002 154.819C160.082 158.559 162.342 162.209 164.772 166.259C172.472 149.429 178.472 132.139 197.352 123.189C199.452 130.719 201.392 137.619 203.432 144.919C208.112 137.669 212.792 130.989 220.592 127.359C221.162 127.089 221.592 125.819 221.552 125.049C220.662 110.079 219.892 95.0995 218.602 80.1595C218.202 75.4495 216.372 70.8595 215.202 66.2095C214.832 66.2895 214.462 66.3595 214.092 66.4395C213.632 68.6995 213.272 70.9795 212.702 73.2095C210.712 81.0195 204.412 87.1695 196.612 86.3195C187.892 85.3695 181.412 86.3895 178.702 96.3995C178.382 95.9895 178.052 95.5795 177.732 95.1695C179.372 92.3095 180.992 89.4495 182.622 86.5895ZM177.522 345.899C182.042 341.259 186.132 337.349 189.832 333.109C191.032 331.739 191.632 329.539 191.832 327.649C193.282 313.579 193.822 299.369 196.072 285.429C199.742 262.679 204.932 240.069 214.452 219.049C221.342 203.829 223.342 188.459 222.592 172.259C222.512 170.629 222.602 168.989 222.582 167.349C222.442 156.849 222.272 146.339 222.142 135.839C222.102 132.749 220.782 131.099 217.572 131.909C213.642 132.899 203.502 146.729 203.602 150.789C203.612 151.059 203.712 151.329 203.732 151.599C204.882 163.269 206.372 174.909 207.082 186.599C207.962 201.179 208.182 215.829 204.922 230.189C204.082 233.879 202.292 237.849 199.702 240.469C198.082 242.099 194.152 241.439 190.982 241.839C192.022 257.659 189.522 273.649 184.502 289.179C181.972 297.029 179.272 305.139 174.842 311.959C171.942 316.429 170.992 320.349 171.672 325.029C172.402 330.139 173.512 335.199 174.692 340.239C175.062 341.829 176.182 343.269 177.522 345.899ZM348.402 135.879C346.952 140.589 345.572 144.369 344.632 148.259C341.482 161.219 337.552 174.079 335.632 187.229C332.492 208.659 330.732 230.299 328.322 251.839C327.032 263.329 328.212 274.459 333.182 284.989C337.032 293.159 343.412 295.409 351.712 292.399C355.122 291.159 355.802 289.479 355.292 286.049C350.352 252.789 348.142 219.339 348.392 185.719C348.502 169.469 348.402 153.239 348.402 135.879ZM212.002 58.8695C211.842 57.3295 211.802 56.3995 211.632 55.4995C209.112 42.0195 202.592 30.4595 194.162 19.9095C188.662 13.0295 182.292 7.14947 173.792 4.05947C169.032 2.32947 163.542 2.36947 160.102 4.34947C167.682 7.80947 170.662 14.2595 171.902 21.8595C174.372 36.9095 171.972 51.7795 170.192 66.6495C169.262 74.4395 167.942 82.1795 166.782 90.0695C171.832 88.0395 176.502 85.7795 181.412 84.3595C183.782 83.6795 185.062 82.6395 186.292 80.6995C189.642 75.4095 192.862 69.9795 196.812 65.1595C200.412 60.7595 204.602 56.4095 212.002 58.8695ZM227.512 196.029C227.072 195.929 226.622 195.839 226.182 195.739C225.212 198.959 223.512 202.159 223.392 205.419C222.432 231.609 220.842 257.719 214.932 283.349C211.522 298.149 206.902 312.639 198.052 325.119C193.802 331.119 193.962 336.529 196.262 342.639C197.862 346.879 199.432 351.739 204.892 351.789C210.412 351.839 212.872 347.159 214.222 342.739C217.202 332.999 220.372 323.199 222.032 313.189C225.022 295.189 227.032 277.029 229.302 258.909C230.102 252.559 231.192 246.129 230.902 239.799C230.302 226.339 228.892 212.919 227.812 199.479C227.722 198.319 227.612 197.179 227.512 196.029ZM155.952 201.089C155.792 205.269 155.002 209.199 155.612 212.899C158.112 228.259 158.252 243.619 155.352 258.849C152.162 275.579 155.322 291.269 161.982 306.479C163.192 309.229 165.742 311.399 167.662 313.809C168.622 313.039 168.792 312.959 168.802 312.879C170.232 285.409 172.682 258.039 177.802 230.969C177.982 230.029 177.782 228.699 177.222 227.969C170.372 219.209 163.432 210.519 155.952 201.089ZM74.5319 264.469C70.9219 268.239 67.3019 270.579 68.0819 276.429C71.1619 299.629 76.5019 322.209 85.4619 343.849C88.1919 350.439 91.5519 356.779 94.6619 363.339C102.022 359.399 105.742 353.909 105.542 346.499C105.432 342.509 104.412 338.339 102.862 334.649C96.3319 319.099 89.2519 303.779 82.7619 288.209C79.6419 280.709 77.4019 272.839 74.5319 264.469ZM121.242 302.339C128.602 299.859 134.512 295.659 139.322 290.019C146.992 281.009 152.012 271.199 151.452 258.589C150.872 245.569 151.522 232.429 152.532 219.409C153.152 211.359 151.952 204.009 148.542 195.759C139.322 231.719 130.362 266.729 121.242 302.339ZM183.502 202.029C183.652 201.559 183.942 200.819 184.142 200.059C188.462 182.899 193.652 166.029 200.982 149.869C201.452 148.829 201.652 147.439 201.412 146.339C200.252 141.029 199.082 135.699 197.572 130.489C196.192 125.739 194.902 125.479 191.152 128.609C190.632 129.039 190.152 129.529 189.672 130.009C179.072 140.469 173.092 153.779 166.992 166.999C166.532 168.009 166.832 169.709 167.382 170.789C172.652 181.189 178.052 191.509 183.502 202.029ZM37.132 250.719C37.372 250.719 37.612 250.719 37.852 250.719C37.852 257.259 37.782 263.799 37.912 270.339C37.932 271.519 38.452 273.089 39.312 273.789C45.712 279.019 55.382 278.949 61.562 273.569C63.222 272.119 65.442 269.979 65.422 268.179C65.382 262.929 65.282 257.339 63.492 252.509C59.012 240.409 53.622 228.639 48.512 216.779C48.022 215.639 46.982 214.739 46.192 213.719C45.102 214.629 43.652 215.319 42.972 216.469C39.222 222.859 36.242 229.439 37.032 237.239C37.502 241.689 37.132 246.219 37.132 250.719ZM221.352 207.409C205.302 245.539 194.602 284.879 193.932 326.479C216.802 289.929 218.582 248.549 221.352 207.409ZM202.782 153.549C202.432 153.569 202.072 153.589 201.722 153.609C201.452 154.069 201.092 154.489 200.922 154.979C195.482 170.919 190.002 186.839 184.742 202.829C184.112 204.729 184.492 207.119 184.912 209.179C186.512 217.169 188.582 225.069 189.912 233.089C190.492 236.549 191.502 238.649 195.152 238.999C198.812 239.359 200.812 237.329 201.822 234.229C202.782 231.269 203.592 228.219 204.082 225.149C206.812 207.779 205.632 190.349 204.612 172.929C204.232 166.459 203.402 160.009 202.782 153.549ZM389.212 253.349C389.582 252.829 390.032 252.339 390.322 251.769C402.172 229.239 410.182 205.419 412.032 180.009C412.602 172.249 409.762 164.239 408.452 156.349C408.162 154.629 407.732 152.929 407.372 151.209C394.192 184.059 394.512 219.069 389.212 253.349ZM178.892 229.839C174.242 257.699 171.352 284.899 171.782 312.619C173.582 311.079 175.292 309.469 176.092 307.489C178.492 301.579 180.712 295.579 182.692 289.509C187.782 273.939 189.922 257.959 188.662 241.589C188.552 240.189 188.252 238.469 187.372 237.529C184.962 234.989 182.192 232.789 178.892 229.839ZM136.362 121.189C127.452 126.439 125.402 135.939 121.142 143.999C120.902 144.459 121.062 145.369 121.382 145.839C127.252 154.409 133.182 162.949 139.142 171.549C147.422 161.579 151.082 142.299 136.362 121.189ZM92.812 141.749C88.362 141.809 84.712 144.989 83.702 149.389C81.732 158.009 79.8019 166.649 77.5119 175.189C76.5419 178.809 77.5519 181.409 80.2819 183.409C82.9619 185.369 85.8219 184.609 88.2719 182.819C93.0519 179.319 97.1119 175.339 98.7319 169.229C100.152 163.849 102.272 158.659 104.032 153.369C104.362 152.369 104.832 151.199 104.592 150.269C103.692 146.719 96.552 141.689 92.812 141.749ZM177.142 225.769C177.642 225.629 178.142 225.489 178.632 225.359C179.542 220.979 180.692 216.639 181.272 212.219C181.612 209.639 181.622 206.729 180.752 204.339C178.382 197.839 175.632 191.459 172.722 185.169C170.622 180.619 168.032 176.289 165.662 171.849C165.232 171.899 164.802 171.949 164.372 171.989C162.092 179.789 159.722 187.559 157.622 195.409C157.292 196.639 157.802 198.459 158.562 199.559C164.672 208.359 170.932 217.049 177.142 225.769ZM110.622 294.469C106.022 266.539 101.612 239.719 97.202 212.899C96.722 212.879 96.2519 212.859 95.7719 212.829C94.8419 217.269 93.0719 221.719 93.1619 226.129C93.3719 237.169 94.2019 248.209 95.2319 259.199C95.9419 266.789 96.9819 274.389 98.6519 281.819C99.9119 287.489 103.042 292.279 110.622 294.469ZM53.6819 179.449C51.9219 180.819 49.832 182.529 47.652 184.109C43.532 187.089 41.982 191.859 42.972 196.779C45.242 207.989 51.972 217.099 56.882 227.069C57.272 227.869 58.102 228.649 58.912 229.019C60.432 229.719 62.1019 230.109 63.7119 230.629C63.9319 229.019 64.622 227.299 64.292 225.809C60.872 210.439 57.2919 195.099 53.6819 179.449ZM384.992 264.449C383.872 265.869 383.132 266.969 382.232 267.919C376.652 273.869 371.902 281.149 365.212 285.349C357.772 290.019 357.472 295.159 359.282 302.129C360.352 306.259 361.162 310.459 362.122 314.769C371.682 310.299 383.622 279.809 384.992 264.449ZM119.792 146.999C111.582 157.349 111.582 157.349 117.112 168.249C117.482 168.979 117.812 169.729 118.152 170.469C120.762 176.099 123.362 181.739 126.592 188.729C130.652 183.449 134.112 179.019 137.442 174.499C137.782 174.039 137.602 172.839 137.222 172.289C131.502 163.879 125.702 155.529 119.792 146.999ZM46.552 182.749C51.472 180.009 54.922 176.039 55.242 168.839C55.472 163.699 58.512 158.689 60.292 153.629C60.632 152.659 61.422 151.549 61.192 150.739C59.012 143.099 56.282 135.679 50.552 129.879C49.682 128.999 47.7419 128.319 46.6819 128.669C44.0619 129.549 42.872 137.239 44.082 139.889C45.972 144.019 48.582 148.419 48.592 152.709C48.622 162.799 47.302 172.909 46.552 182.749ZM142.402 117.899C145.382 121.129 145.972 127.219 147.002 133.279C147.582 136.699 149.292 139.919 150.482 143.229C150.972 143.129 151.452 143.039 151.942 142.939C155.302 128.179 162.282 114.139 160.732 98.4095C160.322 98.1195 159.912 97.8195 159.502 97.5295C153.862 104.249 148.232 110.959 142.402 117.899ZM15.932 191.469C16.952 201.209 18.2119 211.269 22.9219 220.529C24.5119 223.659 25.672 223.679 27.822 220.929C34.792 212.009 36.402 201.919 34.552 191.459C28.502 191.469 22.532 191.469 15.932 191.469ZM111.392 137.239C100.902 122.999 91.0319 115.799 85.3919 117.719C87.2219 121.389 89.102 125.089 90.922 128.829C92.502 132.089 91.7419 134.529 88.2819 135.959C85.2619 137.209 84.5819 139.559 85.1619 143.049C93.9219 137.489 100.442 141.119 105.952 148.339C107.972 144.219 109.702 140.699 111.392 137.239ZM64.812 220.049C70.792 201.909 69.8319 184.729 65.3319 167.109C55.5319 178.129 56.822 173.119 58.302 186.609C58.552 188.909 58.852 191.209 59.312 193.479C61.042 202.069 62.862 210.649 64.812 220.049ZM186.352 83.8395C189.382 84.1395 191.412 84.3395 193.442 84.5395C201.992 85.3795 206.602 83.0095 209.982 75.0795C211.382 71.7995 211.672 68.0195 212.252 64.4395C212.722 61.5695 210.752 60.3395 208.362 60.4495C206.572 60.5295 204.532 61.1895 203.112 62.2695C195.822 67.8195 191.692 75.8195 186.352 83.8395ZM123.622 50.6495C121.352 50.9495 118.832 51.2395 116.332 51.6095C109.092 52.6895 105.872 58.5395 109.702 64.8695C114.132 72.2095 119.352 79.0895 123.622 85.2795C123.622 74.4395 123.622 62.7295 123.622 50.6495ZM40.732 186.739C48.442 179.309 49.002 145.899 41.812 140.609C37.242 155.779 37.492 170.859 40.732 186.739ZM337.082 164.169C337.462 164.229 337.852 164.279 338.232 164.339C340.682 155.749 342.472 146.899 345.762 138.659C349.012 130.529 348.132 122.669 347.022 114.579C346.802 112.959 346.432 111.369 346.102 109.769C345.782 108.209 345.422 106.659 345.072 105.109C344.802 105.139 344.542 105.179 344.272 105.209C341.882 124.859 339.482 144.519 337.082 164.169ZM155.602 193.999C158.442 185.529 161.022 177.859 163.552 170.179C163.742 169.599 163.782 168.749 163.502 168.259C161.592 164.919 159.582 161.649 157.092 157.519C155.442 165.129 154.462 171.729 152.522 178.039C150.712 183.919 153.352 188.389 155.602 193.999ZM223.502 135.679C223.502 156.099 223.502 175.429 223.502 194.749C223.912 194.839 224.322 194.919 224.732 195.009C225.702 193.049 227.532 191.059 227.492 189.119C227.092 171.599 229.042 153.859 223.502 135.679ZM236.762 185.639C236.222 185.539 235.672 185.439 235.132 185.339C231.042 188.289 228.582 191.919 229.422 197.359C229.852 200.159 229.532 203.059 229.672 205.909C229.872 209.979 230.152 214.049 230.432 218.119C230.702 222.029 231.012 225.949 231.302 229.859C231.702 229.849 232.092 229.849 232.492 229.839C233.922 215.109 235.342 200.369 236.762 185.639ZM35.232 188.789C32.022 184.419 29.052 180.369 25.842 175.999C23.732 179.289 22.1219 181.789 20.2019 184.779C17.5819 180.009 20.202 174.609 16.372 171.219C15.792 176.649 15.7119 181.929 15.8819 187.209C15.9019 187.989 16.9619 189.179 17.7619 189.409C23.3519 191.039 28.952 191.199 35.232 188.789ZM32.302 302.659C35.862 294.549 35.832 286.719 36.242 278.869C36.522 273.529 33.3619 271.409 29.6319 268.989C27.8419 277.299 29.122 294.689 32.302 302.659ZM24.752 172.509C25.572 165.799 26.412 159.629 27.002 153.439C27.112 152.269 26.192 150.999 25.752 149.769C24.472 150.329 22.852 150.579 21.962 151.519C17.192 156.539 16.072 162.839 15.802 169.359C18.712 170.389 21.242 171.269 24.752 172.509ZM71.132 190.899C77.882 180.269 71.3719 170.339 71.5519 159.819C67.2919 162.859 66.842 166.129 67.742 170.279C69.172 176.899 69.972 183.659 71.132 190.899ZM35.532 270.619C35.532 258.919 35.532 247.959 35.532 236.999C35.132 236.949 34.742 236.889 34.342 236.839C33.042 244.659 32.0819 252.549 30.3319 260.259C29.2019 265.289 31.812 267.699 35.532 270.619ZM67.0519 237.159C67.0519 246.889 67.0519 256.749 67.0519 266.609C67.5819 266.829 68.1119 267.059 68.6419 267.279C70.2719 264.919 73.6019 262.239 73.2319 260.249C71.7819 252.369 69.1719 244.689 67.0519 237.159ZM259.202 172.109C261.472 157.149 263.682 142.539 265.902 127.859C260.552 130.879 257.552 150.669 259.202 172.109ZM40.832 199.859C36.422 207.679 35.332 215.469 37.542 221.629C39.892 218.099 42.332 214.549 44.622 210.909C45.052 210.229 45.272 209.049 44.972 208.359C43.762 205.549 42.312 202.849 40.832 199.859ZM75.2119 173.849C75.6719 173.879 76.1219 173.909 76.5819 173.929C78.4019 165.689 80.2319 157.449 82.0519 149.209C81.6119 149.019 81.172 148.839 80.742 148.649C78.492 151.439 74.7519 154.019 74.3219 157.059C73.5719 162.509 74.8119 168.239 75.2119 173.849ZM151.752 149.619C149.162 158.969 148.352 167.969 150.602 177.169C152.252 171.299 153.362 165.329 154.892 159.469C155.902 155.609 154.862 152.669 151.752 149.619ZM113.852 305.149C115.882 304.009 118.142 303.519 118.562 302.369C120.732 296.379 122.442 290.209 124.302 284.109C122.072 285.939 120.782 288.179 119.112 290.089C117.442 292.009 115.312 293.529 113.552 295.389C113.012 295.959 112.802 297.069 112.862 297.909C113.012 299.909 113.392 301.909 113.852 305.149ZM183.632 212.269C183.242 212.319 182.852 212.369 182.462 212.419C181.802 215.449 181.132 218.479 180.492 221.519C179.242 227.359 181.722 231.669 188.282 234.289C186.682 226.709 185.162 219.489 183.632 212.269ZM61.1119 100.659C60.9119 101.049 60.712 101.449 60.512 101.839C67.322 106.229 74.1219 110.619 81.4119 115.319C79.4119 106.389 69.8519 99.7995 61.1119 100.659ZM154.762 219.779C154.322 219.769 153.872 219.759 153.432 219.739C153.432 231.979 153.432 244.209 153.432 256.449C156.272 244.299 156.152 232.059 154.762 219.779ZM100.502 290.849C101.392 293.879 102.232 297.149 103.312 300.339C105.192 305.929 105.542 306.069 112.442 304.429C111.482 301.589 111.242 298.159 109.422 296.189C107.202 293.799 103.662 292.649 100.502 290.849ZM237.262 211.809C236.762 211.829 236.262 211.859 235.762 211.879C235.812 224.869 230.752 237.679 235.542 250.829C236.112 237.819 236.692 224.809 237.262 211.809ZM137.822 227.789C138.062 227.819 138.292 227.859 138.532 227.889C141.422 216.419 144.412 204.979 147.062 193.449C147.452 191.769 146.142 189.699 145.622 187.819C145.372 187.919 145.112 188.019 144.862 188.119C142.512 201.339 140.172 214.559 137.822 227.789ZM56.492 172.589C64.942 167.099 66.302 161.579 60.672 154.799C59.352 160.379 58.042 165.969 56.492 172.589ZM66.7219 161.649C72.8219 157.709 71.5319 151.979 71.5319 146.119C62.3819 152.289 63.4819 150.609 66.7219 161.649ZM159.262 131.149C152.552 142.999 151.392 148.619 156.492 150.469C157.422 143.989 158.342 137.569 159.262 131.149ZM116.842 140.449C120.232 134.529 126.142 131.149 126.642 124.009C120.652 128.659 115.512 136.499 116.842 140.449ZM112.102 306.569C109.852 306.569 107.982 306.569 105.702 306.569C107.102 309.159 108.122 311.359 109.452 313.349C109.942 314.089 111.132 314.369 112.012 314.859C112.392 313.829 113.122 312.789 113.092 311.779C113.012 310.069 112.462 308.379 112.102 306.569ZM78.4119 264.229C77.9619 264.369 77.5219 264.519 77.0719 264.659C79.0419 270.619 81.0019 276.579 82.9719 282.529C82.5819 276.079 83.1319 269.299 78.4119 264.229ZM85.602 136.039C90.702 132.239 90.532 128.089 85.602 122.719C85.602 127.039 85.602 131.209 85.602 136.039ZM412.162 165.939C412.542 165.889 412.932 165.829 413.312 165.779C412.672 159.309 413.062 152.649 410.392 146.559C409.852 146.659 409.302 146.749 408.762 146.849C409.902 153.199 411.032 159.569 412.162 165.939ZM63.242 244.499C63.502 244.479 63.762 244.459 64.022 244.429C64.022 240.549 64.022 236.659 64.022 232.809C62.302 232.389 60.802 232.029 58.772 231.529C60.392 236.199 61.812 240.349 63.242 244.499ZM153.382 204.219C157.222 197.839 152.422 193.929 150.322 189.349C148.792 194.689 152.442 198.859 153.382 204.219ZM147.712 187.949C148.182 187.969 148.642 187.979 149.112 187.999C148.542 182.949 147.972 177.899 147.392 172.839C147.032 172.869 146.662 172.909 146.302 172.939C146.812 177.939 143.762 183.179 147.712 187.949ZM109.392 155.189C110.042 155.519 110.702 155.849 111.352 156.169C113.102 152.189 117.482 149.499 117.642 144.729C117.152 144.479 116.652 144.229 116.162 143.979C113.912 147.719 111.652 151.449 109.392 155.189ZM144.122 131.049C144.532 124.469 142.322 119.899 137.622 118.039C140.042 122.869 142.082 126.959 144.122 131.049ZM133.942 115.549C132.712 112.529 131.592 109.779 130.472 107.039C130.272 107.109 130.082 107.189 129.882 107.259C129.882 110.499 129.882 113.739 129.882 117.409C131.392 116.719 132.542 116.189 133.942 115.549ZM115.352 141.419C114.742 141.129 114.142 140.839 113.532 140.549C111.522 144.139 109.522 147.729 107.512 151.329C107.942 151.559 108.372 151.799 108.802 152.029C110.982 148.499 113.172 144.959 115.352 141.419ZM90.062 223.229C90.442 223.249 90.8219 223.259 91.2119 223.279C91.2119 217.689 91.2119 212.099 91.2119 206.509C91.1619 206.499 91.1019 206.489 91.0519 206.479C90.7119 212.059 90.382 217.649 90.062 223.229ZM91.492 229.829C91.062 229.839 90.6319 229.849 90.1919 229.849C90.5619 235.059 90.9319 240.279 91.3019 245.489C91.3619 245.469 91.432 245.459 91.492 245.439C91.492 240.249 91.492 235.039 91.492 229.829ZM36.622 201.379C38.302 198.779 40.322 196.189 36.622 193.369C36.622 196.239 36.622 198.809 36.622 201.379ZM20.3119 172.279C20.1219 175.759 19.9919 178.179 19.8619 180.599C21.3419 178.179 24.8919 175.939 20.3119 172.279ZM147.772 153.039C149.972 148.979 151.692 146.099 147.772 143.159C147.772 146.299 147.772 149.099 147.772 153.039ZM143.242 178.109C143.652 175.109 143.992 172.609 144.332 170.119C142.502 172.409 138.992 174.419 143.242 178.109ZM134.642 118.489C131.442 119.259 128.262 120.139 129.062 124.869C131.142 122.479 132.892 120.479 134.642 118.489Z" stroke="#ED1C24" stroke-width="2" stroke-miterlimit="10"/>
<path d="M362.072 102.819C366.412 99.1895 370.362 94.8995 375.172 92.0795C381.312 88.4895 386.922 90.1395 391.522 95.6695C397.082 102.359 399.422 110.529 401.432 118.739C403.052 125.349 404.152 132.079 405.572 138.739C406.552 143.339 406.472 147.459 404.392 152.109C397.272 168.059 394.482 185.159 392.622 202.409C390.722 220.019 389.342 237.709 386.652 255.209C385.852 260.409 381.772 265.319 378.532 269.899C373.072 277.619 366.142 283.929 357.342 289.359C356.522 282.919 355.732 277.049 355.032 271.179C350.332 232.089 349.322 192.859 350.522 153.529C350.662 149.039 350.822 144.469 350.252 140.039C349.202 131.949 351.572 124.709 354.722 117.539C355.542 115.679 356.212 113.749 356.942 111.859C358.642 108.849 360.352 105.839 362.072 102.819Z" stroke="#ED1C24" stroke-width="2" stroke-miterlimit="10"/>
<path d="M77.3319 64.1795C80.3719 63.0395 83.3919 61.8495 86.4419 60.7695C93.4619 58.2695 100.492 55.8295 108.862 52.8795C104.852 62.0295 109.192 67.7995 113.732 73.4995C123.522 85.7995 128.712 99.6695 127.752 115.499C127.642 117.239 126.462 119.169 125.242 120.549C121.122 125.229 116.772 129.699 112.502 134.249C108.522 130.529 104.292 126.299 99.7619 122.429C95.2419 118.559 90.7519 114.309 83.6419 115.559C81.7519 109.719 78.9419 104.319 73.0919 101.749C69.5619 100.199 65.6119 99.3595 61.7719 98.8695C59.3419 98.5595 58.0919 97.7595 57.3919 95.5295C55.6019 89.8495 57.3519 84.8195 60.0119 79.8995C60.6519 78.7295 61.1819 77.4995 61.7719 76.2995C66.9619 72.2695 72.1419 68.2195 77.3319 64.1795Z" stroke="#ED1C24" stroke-width="2" stroke-miterlimit="10"/>
<path d="M539.332 271.349C538.682 272.289 538.022 273.229 537.372 274.169C536.292 274.599 535.172 274.929 534.152 275.469C523.702 280.919 512.882 282.089 502.492 276.129C492.442 270.369 489.562 260.129 488.562 249.319C488.452 248.109 489.202 246.709 489.832 245.559C493.162 239.469 496.342 233.279 500.032 227.409C503.642 221.669 507.502 216.039 511.832 210.829C515.062 206.949 518.302 207.509 521.142 211.779C522.492 213.799 523.672 216.029 524.432 218.329C528.882 231.759 533.342 245.179 537.442 258.719C538.662 262.749 538.732 267.129 539.332 271.349Z" stroke="#ED1C24" stroke-width="2" stroke-miterlimit="10"/>
<path d="M539.332 271.349C538.732 267.129 538.662 262.749 537.442 258.709C533.342 245.179 528.882 231.749 524.432 218.319C523.672 216.019 522.482 213.789 521.142 211.769C518.302 207.509 515.052 206.939 511.832 210.819C507.502 216.019 503.642 221.659 500.032 227.399C496.342 233.269 493.162 239.459 489.832 245.549C489.202 246.709 488.452 248.099 488.562 249.309C489.552 260.119 492.442 270.349 502.492 276.119C512.872 282.079 523.692 280.909 534.152 275.459C535.172 274.929 536.302 274.589 537.372 274.159C533.872 278.979 528.682 280.719 523.192 281.289C519.032 281.719 514.742 281.529 510.562 281.089C498.012 279.769 491.352 271.899 488.232 260.349C487.602 258.009 487.002 255.659 486.172 252.469C484.502 255.049 483.262 257.169 481.822 259.139C479.742 261.989 477.672 264.879 475.302 267.479C470.622 272.629 464.862 274.149 457.952 271.549C456.772 278.109 455.632 284.429 454.282 291.939C452.442 290.009 451.362 289.079 450.542 287.969C443.382 278.349 440.442 267.179 439.352 255.529C437.982 240.869 437.562 226.119 435.932 211.499C434.652 200.039 432.282 188.689 430.122 177.349C429.652 174.849 428.042 172.569 426.592 169.389C424.382 175.339 422.572 180.229 420.762 185.109C420.632 184.989 420.512 184.879 420.382 184.759C421.872 178.559 423.372 172.369 424.882 166.099C430.962 169.299 434.492 181.339 438.062 210.289C438.832 205.929 439.212 201.379 440.502 197.109C441.782 192.859 443.852 188.779 448.922 185.859C450.512 191.069 452.362 195.849 453.402 200.789C457.862 221.869 458.342 243.279 458.222 264.719C458.192 270.039 461.872 273.009 466.872 270.769C470.212 269.269 473.382 266.689 475.722 263.839C479.252 259.559 482.082 254.679 485.002 249.919C485.722 248.749 485.862 247.079 485.852 245.649C485.612 217.209 490.522 189.739 501.562 163.499C503.472 158.949 506.332 154.559 509.632 150.879C514.892 145.009 521.712 144.869 526.532 151.129C531.112 157.069 534.982 163.859 537.732 170.839C542.622 183.229 546.282 196.099 550.832 208.639C551.862 211.469 554.052 215.369 556.372 215.909C560.092 216.779 561.442 212.289 563.232 209.459C567.582 202.559 571.522 195.329 576.512 188.909C582.622 181.049 590.392 181.749 595.262 190.409C602.472 203.209 603.502 216.559 596.642 229.879C592.522 237.869 587.872 245.589 583.402 253.399C583.002 254.099 582.162 254.549 580.882 254.629C583.862 249.509 586.972 244.469 589.792 239.269C594.212 231.119 598.502 222.899 599.282 213.369C599.982 204.849 597.012 197.489 592.062 190.929C587.142 184.399 581.342 184.419 576.782 191.169C571.992 198.269 567.912 205.849 563.482 213.189C562.082 215.509 561.662 218.889 557.752 218.619C553.782 218.349 551.012 216.439 549.782 212.669C546.482 202.589 543.692 192.319 539.932 182.419C536.372 173.039 532.482 163.649 527.542 154.949C522.322 145.759 514.712 145.569 509.012 154.489C504.592 161.399 501.292 169.189 498.512 176.949C490.882 198.189 487.762 220.249 488.572 243.159C490.242 240.079 491.772 236.899 493.622 233.929C497.862 227.119 502.202 220.369 506.622 213.669C507.582 212.219 508.942 210.979 510.262 209.819C515.412 205.299 519.612 205.729 522.962 211.629C525.302 215.739 527.152 220.189 528.702 224.669C532.902 236.749 536.852 248.909 540.872 261.049C542.092 264.729 542.292 268.289 539.332 271.349ZM454.352 266.109C455.162 265.889 455.962 265.659 456.772 265.439C456.092 250.499 455.882 235.509 454.552 220.619C453.722 211.329 451.252 202.169 449.352 192.989C449.112 191.849 447.842 190.919 447.052 189.899C446.172 190.829 444.772 191.629 444.502 192.709C442.972 198.749 441.062 204.799 440.512 210.949C439.342 224.179 442.112 237.009 446.652 249.369C448.752 255.109 451.762 260.539 454.352 266.109ZM453.042 287.059C455.482 281.509 455.302 275.729 455.432 269.999C455.442 269.699 454.962 269.369 454.662 269.099C447.302 262.259 444.432 253.209 442.192 243.849C441.622 241.469 441.082 239.069 440.622 236.669C440.172 234.319 439.832 231.949 439.452 229.579C440.512 249.539 439.572 269.999 453.042 287.059Z" stroke="#ED1C24" stroke-width="2" stroke-miterlimit="10"/>
<path d="M1242.5 247.439C1241.34 247.499 1240.18 247.629 1239.02 247.619C1141.51 246.949 1044.01 246.079 946.502 245.699C913.732 245.569 880.922 245.919 848.212 247.549C825.522 248.679 802.862 251.759 780.352 255.119C760.242 258.119 740.652 257.989 721.502 250.769C709.932 246.409 698.482 241.699 687.072 236.919C681.972 234.779 677.622 235.769 673.882 239.329C670.242 242.799 667.012 246.689 663.562 250.359C662.352 251.649 661.132 252.959 659.742 254.039C654.662 258.009 648.952 257.839 644.872 252.829C641.922 249.199 639.952 244.759 637.642 240.619C636.722 238.959 636.172 237.099 635.262 235.429C631.642 228.769 627.352 227.929 622.092 233.529C617.352 238.579 613.482 244.439 608.932 249.679C604.412 254.889 600.012 260.369 594.692 264.679C588.762 269.479 582.702 268.339 576.912 262.609C577.762 260.859 578.652 258.989 579.892 256.439C580.682 266.179 586.442 269.219 593.442 263.489C599.252 258.729 603.732 252.359 608.792 246.689C613.862 241.019 618.512 234.889 624.092 229.779C629.762 224.589 633.302 225.829 636.562 232.799C639.152 238.329 641.242 244.179 644.532 249.259C648.862 255.929 654.482 256.239 660.342 250.809C664.342 247.099 667.832 242.829 671.942 239.269C680.112 232.219 683.472 233.179 690.972 236.909C711.842 247.269 733.622 255.469 757.282 255.629C767.412 255.699 777.612 253.679 787.682 252.009C811.292 248.099 835.052 245.689 858.942 245.469C936.092 244.729 1013.25 244.049 1090.4 244.029C1139.56 244.019 1188.72 245.229 1237.87 245.899C1239.44 245.919 1241.01 246.049 1242.58 246.129C1242.59 246.579 1242.55 247.009 1242.5 247.439Z" stroke="#ED1C24" stroke-width="2" stroke-miterlimit="10"/>
<path d="M145.622 8.60946C146.122 8.48946 146.632 8.36946 146.462 8.40946C141.922 14.7795 136.612 21.1695 132.532 28.2795C129.332 33.8495 127.772 40.3495 125.222 46.3195C124.672 47.6095 123.162 48.9895 121.832 49.3395C118.982 50.0795 115.952 50.1795 111.952 50.6695C115.572 44.7695 118.802 39.5295 122.002 34.2795C123.262 32.2195 124.452 30.1195 125.672 28.0395C132.332 21.5595 138.982 15.0795 145.622 8.60946Z" stroke="#ED1C24" stroke-width="2" stroke-miterlimit="10"/>
<path d="M269.952 132.559C271.772 139.869 274.332 147.089 275.262 154.509C277.162 169.639 278.252 184.869 279.542 200.069C280.772 214.599 281.742 229.159 286.032 243.229C286.372 244.339 286.802 245.429 287.222 246.579C295.652 241.759 296.472 241.889 299.972 251.139C303.822 261.319 303.972 271.949 302.492 282.609C300.142 299.569 295.372 315.649 284.152 329.079C276.492 338.259 269.912 337.609 265.852 326.549C262.932 318.609 261.172 310.009 260.422 301.559C258.962 285.149 258.572 268.639 257.742 252.179C258.092 252.149 258.452 252.119 258.802 252.089C259.852 258.969 260.892 265.849 261.942 272.729C262.442 272.719 262.942 272.699 263.442 272.689C263.552 271.359 263.842 270.019 263.732 268.699C262.462 252.399 260.812 236.129 259.952 219.809C259.402 209.369 259.282 198.799 260.252 188.409C261.792 172.019 264.382 155.729 266.612 139.409C266.922 137.149 267.732 134.949 268.312 132.729C268.852 132.679 269.402 132.619 269.952 132.559Z" stroke="#ED1C24" stroke-width="2" stroke-miterlimit="10"/>
<path d="M66.232 274.019C70.432 305.369 76.982 336.009 93.572 363.909C86.282 368.019 78.592 370.409 70.562 372.049C59.112 374.379 47.752 374.149 36.532 371.099C19.632 366.499 12.822 349.529 21.842 333.689C25.722 326.879 30.992 320.869 35.562 314.439C43.462 303.349 51.282 292.199 59.192 281.119C61.052 278.509 63.152 276.059 65.132 273.529C65.502 273.699 65.872 273.859 66.232 274.019Z" stroke="#ED1C24" stroke-width="2" stroke-miterlimit="10"/>
<path d="M111.322 160.219C115.962 170.139 120.562 179.949 125.362 190.189C131.572 187.409 135.162 181.749 139.552 176.779C142.122 179.589 143.062 182.539 142.502 186.189C138.472 212.279 135.262 238.549 127.572 263.899C125.032 272.289 120.922 280.219 117.262 288.229C116.422 290.069 114.472 291.409 112.562 293.489C107.622 264.439 102.812 236.199 98.0119 207.949C97.5719 207.879 97.1319 207.809 96.6919 207.739C95.8519 209.679 95.0019 211.619 94.1619 213.559C95.5119 194.579 93.8019 174.709 111.322 160.219Z" stroke="#ED1C24" stroke-width="2" stroke-miterlimit="10"/>
<path d="M182.622 86.5895C180.992 89.4495 179.372 92.3095 177.742 95.1695C178.062 95.5795 178.392 95.9895 178.712 96.3995C181.422 86.3895 187.902 85.3695 196.622 86.3195C204.432 87.1695 210.722 81.0195 212.712 73.2095C213.282 70.9795 213.642 68.6995 214.102 66.4395C214.472 66.3595 214.842 66.2895 215.212 66.2095C216.382 70.8595 218.212 75.4495 218.612 80.1595C219.892 95.0995 220.662 110.079 221.562 125.049C221.612 125.819 221.172 127.099 220.602 127.359C212.802 130.989 208.122 137.659 203.442 144.919C201.402 137.619 199.472 130.719 197.362 123.189C178.482 132.139 172.482 149.429 164.782 166.259C162.352 162.199 160.092 158.559 158.012 154.819C157.622 154.119 157.872 152.999 158.002 152.089C159.192 143.449 160.492 134.829 161.602 126.179C162.802 116.859 163.872 107.509 164.902 98.1695C165.292 94.5995 167.042 92.2195 170.312 90.7895C174.232 89.0695 178.112 87.2395 182.002 85.4495C182.202 85.8395 182.412 86.2195 182.622 86.5895Z" stroke="#ED1C24" stroke-width="2" stroke-miterlimit="10"/>
<path d="M177.522 345.899C176.182 343.269 175.062 341.829 174.682 340.209C173.502 335.179 172.402 330.109 171.662 324.999C170.992 320.319 171.932 316.399 174.832 311.929C179.262 305.109 181.962 296.999 184.492 289.149C189.502 273.619 192.002 257.629 190.972 241.809C194.142 241.409 198.082 242.069 199.692 240.439C202.282 237.819 204.082 233.849 204.912 230.159C208.172 215.799 207.952 201.149 207.072 186.569C206.362 174.879 204.872 163.229 203.722 151.569C203.692 151.299 203.592 151.029 203.592 150.759C203.502 146.699 213.632 132.869 217.562 131.879C220.782 131.069 222.102 132.729 222.132 135.809C222.262 146.309 222.422 156.819 222.572 167.319C222.592 168.959 222.512 170.599 222.582 172.229C223.332 188.429 221.332 203.799 214.442 219.019C204.922 240.029 199.732 262.639 196.062 285.399C193.812 299.339 193.272 313.549 191.822 327.619C191.622 329.509 191.022 331.709 189.822 333.079C186.132 337.349 182.052 341.259 177.522 345.899Z" stroke="#ED1C24" stroke-width="2" stroke-miterlimit="10"/>
<path d="M348.402 135.879C348.402 153.249 348.502 169.479 348.382 185.709C348.122 219.329 350.332 252.789 355.282 286.039C355.792 289.469 355.112 291.159 351.702 292.389C343.402 295.399 337.022 293.149 333.172 284.979C328.212 274.459 327.032 263.329 328.312 251.829C330.722 230.289 332.482 208.659 335.622 187.219C337.552 174.069 341.472 161.209 344.622 148.249C345.572 144.369 346.942 140.589 348.402 135.879Z" stroke="#ED1C24" stroke-width="2" stroke-miterlimit="10"/>
<path d="M10.8219 170.929C9.65195 171.169 8.48195 171.409 6.87195 171.739C6.75195 162.559 8.42195 153.859 11.6019 145.449C17.7419 129.279 28.6019 116.729 42.1919 106.379C44.1219 104.909 46.3819 103.839 48.5719 102.749C53.7919 100.149 58.3319 99.4795 62.9019 104.859C65.8719 108.359 70.5619 110.409 74.5319 113.039C76.6619 114.449 78.8919 115.709 81.2519 117.149C75.8519 123.399 73.7419 130.549 72.9419 138.099C72.5119 142.139 71.3819 145.379 67.3619 147.109C66.0319 147.679 64.922 148.779 63.492 149.789C59.982 140.069 56.412 130.649 46.882 124.679C34.8619 143.069 35.6419 163.719 34.9219 184.629C31.8719 181.029 29.202 178.139 26.912 174.989C26.332 174.199 26.862 172.519 27.052 171.269C27.892 165.769 29.152 160.299 29.482 154.769C29.612 152.609 27.6719 150.319 26.6719 148.089C24.3419 149.189 20.922 149.689 19.892 151.519C17.412 155.909 15.7019 160.839 14.3719 165.739C13.7019 168.209 13.282 170.239 10.642 171.069L10.8219 170.929Z" stroke="#ED1C24" stroke-width="2" stroke-miterlimit="10"/>
<path d="M212.002 58.8695C204.612 56.4095 200.412 60.7595 196.812 65.1595C192.862 69.9795 189.642 75.4095 186.292 80.6995C185.062 82.6395 183.782 83.6695 181.412 84.3595C176.502 85.7795 171.832 88.0395 166.782 90.0695C167.942 82.1795 169.262 74.4295 170.192 66.6495C171.972 51.7695 174.372 36.8995 171.902 21.8595C170.652 14.2595 167.672 7.79946 160.102 4.34946C163.552 2.36946 169.042 2.32946 173.792 4.05946C182.292 7.14946 188.662 13.0295 194.162 19.9095C202.592 30.4695 209.112 42.0195 211.632 55.4995C211.802 56.3995 211.832 57.3295 212.002 58.8695Z" stroke="#ED1C24" stroke-width="2" stroke-miterlimit="10"/>
<path d="M140.172 52.5095C137.922 51.6595 135.722 50.6295 133.402 50.0195C131.212 49.4495 128.892 49.3195 126.092 48.9195C130.822 31.7595 138.002 16.7095 153.052 6.68947C157.032 4.03947 163.762 6.21947 166.062 11.5595C168.232 16.5895 169.862 22.1495 170.282 27.5795C171.902 48.5495 168.552 69.1695 164.832 89.7195C164.642 90.7795 164.062 91.7695 163.152 92.7595C160.802 81.1895 159.072 69.5995 150.562 60.6895C147.112 57.9595 143.642 55.2295 140.172 52.5095Z" stroke="#ED1C24" stroke-width="2" stroke-miterlimit="10"/>
<path d="M227.512 196.029C227.612 197.179 227.722 198.329 227.822 199.479C228.902 212.919 230.312 226.339 230.912 239.799C231.192 246.139 230.102 252.569 229.312 258.909C227.032 277.019 225.032 295.189 222.042 313.189C220.382 323.199 217.212 332.999 214.232 342.739C212.882 347.159 210.422 351.839 204.902 351.789C199.442 351.739 197.872 346.879 196.272 342.639C193.972 336.539 193.812 331.119 198.062 325.119C206.902 312.639 211.522 298.149 214.942 283.349C220.852 257.719 222.442 231.609 223.402 205.419C223.522 202.169 225.222 198.969 226.192 195.739C226.622 195.839 227.062 195.929 227.512 196.029Z" stroke="#ED1C24" stroke-width="2" stroke-miterlimit="10"/>
<path d="M155.952 201.089C163.432 210.519 170.372 219.209 177.222 227.989C177.782 228.709 177.982 230.039 177.802 230.989C172.682 258.059 170.232 285.419 168.802 312.899C168.802 312.979 168.622 313.049 167.662 313.829C165.742 311.409 163.192 309.249 161.982 306.499C155.312 291.289 152.162 275.599 155.352 258.869C158.252 243.639 158.112 228.279 155.612 212.919C155.002 209.199 155.792 205.269 155.952 201.089Z" stroke="#ED1C24" stroke-width="2" stroke-miterlimit="10"/>
<path d="M140.172 52.5095C143.642 55.2395 147.112 57.9595 150.572 60.6895C156.052 69.6595 159.052 79.4295 160.342 89.8395C160.762 93.2195 159.892 95.1695 157.152 97.3495C151.402 101.909 146.102 107.059 140.782 112.139C139.652 113.219 139.232 115.039 137.762 116.029C126.912 94.7695 121.342 73.7695 126.062 50.2095C130.912 50.9895 135.542 51.7495 140.172 52.5095Z" stroke="#ED1C24" stroke-width="2" stroke-miterlimit="10"/>
<path d="M74.532 264.469C77.402 272.849 79.642 280.709 82.762 288.199C89.242 303.769 96.322 319.089 102.862 334.639C104.412 338.329 105.422 342.509 105.542 346.489C105.752 353.899 102.022 359.399 94.662 363.329C91.542 356.769 88.192 350.429 85.462 343.839C76.502 322.199 71.162 299.619 68.082 276.419C67.292 270.579 70.922 268.229 74.532 264.469Z" stroke="#ED1C24" stroke-width="2" stroke-miterlimit="10"/>
<path d="M121.242 302.339C130.362 266.719 139.322 231.719 148.522 195.759C151.932 204.009 153.132 211.359 152.512 219.409C151.512 232.429 150.852 245.559 151.432 258.589C151.992 271.189 146.982 280.999 139.302 290.019C134.522 295.659 128.602 299.869 121.242 302.339Z" stroke="#ED1C24" stroke-width="2" stroke-miterlimit="10"/>
<path d="M183.502 202.029C178.052 191.509 172.652 181.179 167.382 170.789C166.832 169.709 166.532 168.009 166.992 166.999C173.092 153.789 179.072 140.469 189.672 130.009C190.152 129.529 190.632 129.039 191.152 128.609C194.902 125.469 196.192 125.729 197.572 130.489C199.092 135.709 200.262 141.029 201.412 146.339C201.652 147.439 201.452 148.829 200.982 149.869C193.652 166.029 188.452 182.889 184.142 200.059C183.942 200.829 183.652 201.559 183.502 202.029Z" stroke="#ED1C24" stroke-width="2" stroke-miterlimit="10"/>
<path d="M37.1319 250.719C37.1319 246.219 37.5019 241.689 37.0519 237.239C36.2519 229.429 39.2319 222.849 42.9919 216.469C43.6719 215.319 45.1219 214.619 46.2119 213.719C47.0019 214.729 48.0419 215.639 48.5319 216.779C53.6419 228.649 59.0319 240.409 63.5119 252.509C65.3019 257.339 65.3919 262.929 65.4419 268.179C65.4519 269.979 63.2419 272.119 61.5819 273.569C55.4019 278.949 45.7319 279.019 39.3319 273.789C38.4719 273.089 37.9519 271.519 37.9319 270.339C37.8019 263.799 37.8719 257.259 37.8719 250.719C37.6019 250.719 37.3619 250.719 37.1319 250.719Z" stroke="#ED1C24" stroke-width="2" stroke-miterlimit="10"/>
<path d="M221.352 207.409C218.582 248.559 216.802 289.929 193.932 326.479C194.602 284.869 205.302 245.539 221.352 207.409Z" stroke="#ED1C24" stroke-width="2" stroke-miterlimit="10"/>
<path d="M202.782 153.549C203.402 160.009 204.232 166.469 204.612 172.939C205.632 190.349 206.812 207.789 204.082 225.159C203.602 228.229 202.782 231.279 201.822 234.239C200.822 237.349 198.812 239.369 195.152 239.009C191.512 238.659 190.492 236.559 189.912 233.099C188.572 225.069 186.512 217.169 184.912 209.189C184.502 207.129 184.122 204.739 184.742 202.839C189.992 186.839 195.482 170.919 200.922 154.989C201.092 154.499 201.452 154.079 201.722 153.619C202.072 153.589 202.432 153.569 202.782 153.549Z" stroke="#ED1C24" stroke-width="2" stroke-miterlimit="10"/>
<path d="M82.802 246.359C80.542 250.329 78.292 254.289 75.412 259.369C73.132 251.379 71.282 244.389 69.132 237.499C67.722 232.959 67.882 228.839 69.392 224.189C71.052 219.109 71.212 213.529 71.862 208.149C72.892 199.579 73.792 190.979 74.652 183.209C79.082 184.309 82.702 186.279 85.872 185.699C89.292 185.079 92.282 182.079 95.442 180.129C93.962 186.699 92.082 193.469 90.962 200.359C89.762 207.729 88.442 215.239 88.682 222.639C88.972 231.389 85.632 238.799 82.662 246.489C82.672 246.479 82.802 246.359 82.802 246.359Z" stroke="#ED1C24" stroke-width="2" stroke-miterlimit="10"/>
<path d="M10.6619 171.069C11.5919 171.119 12.5119 171.169 13.4219 171.229C14.8419 190.169 12.2419 209.809 25.3619 227.329C28.8219 222.529 31.6319 218.619 35.1219 213.779C35.1219 219.519 35.7919 224.449 34.9819 229.119C33.1919 239.569 30.6719 249.889 28.4419 260.259C28.3619 260.649 28.1419 261.009 27.6719 262.189C25.5919 259.059 23.6119 256.449 22.0319 253.619C10.9219 233.779 4.57193 212.519 4.46193 189.729C4.44193 184.539 6.56193 179.309 7.99193 174.179C8.34193 172.929 9.85193 172.009 10.8219 170.939C10.8219 170.929 10.6619 171.069 10.6619 171.069Z" stroke="#ED1C24" stroke-width="2" stroke-miterlimit="10"/>
<path d="M100.582 304.419C101.842 305.749 103.262 306.969 104.332 308.439C106.332 311.179 108.002 314.169 110.082 316.849C110.792 317.769 112.312 318.059 114.262 319.039C115.012 324.869 116.322 331.719 116.672 338.619C117.232 349.759 117.412 360.939 117.162 372.089C117.102 374.799 115.332 378.659 113.202 379.749C111.642 380.549 107.722 378.219 105.702 376.359C102.132 373.069 99.2019 369.079 95.8019 365.149C97.2919 363.849 98.3819 362.909 99.4619 361.939C106.512 355.589 109.452 347.839 105.972 338.769C102.262 329.119 97.8019 319.769 93.7219 310.259C91.6419 305.419 89.6819 300.519 87.7819 295.929C91.2619 298.319 94.7719 300.729 98.2719 303.129C99.0419 303.559 99.8119 303.989 100.582 304.419Z" stroke="#ED1C24" stroke-width="2" stroke-miterlimit="10"/>
<path d="M389.212 253.349C394.512 219.079 394.192 184.059 407.382 151.219C407.742 152.929 408.172 154.629 408.462 156.359C409.772 164.249 412.602 172.259 412.042 180.019C410.192 205.429 402.182 229.249 390.332 251.779C390.032 252.329 389.582 252.819 389.212 253.349Z" stroke="#ED1C24" stroke-width="2" stroke-miterlimit="10"/>
<path d="M178.892 229.839C182.192 232.779 184.962 234.989 187.362 237.529C188.242 238.469 188.542 240.189 188.652 241.589C189.922 257.959 187.772 273.939 182.682 289.509C180.702 295.579 178.482 301.579 176.082 307.489C175.282 309.469 173.572 311.089 171.772 312.619C171.352 284.909 174.242 257.699 178.892 229.839Z" stroke="#ED1C24" stroke-width="2" stroke-miterlimit="10"/>
<path d="M136.362 121.189C151.082 142.309 147.422 161.579 139.142 171.549C133.182 162.949 127.262 154.409 121.382 145.839C121.062 145.369 120.902 144.449 121.142 143.999C125.402 135.939 127.452 126.439 136.362 121.189Z" stroke="#ED1C24" stroke-width="2" stroke-miterlimit="10"/>
<path d="M92.8119 141.749C96.5419 141.699 103.682 146.719 104.602 150.269C104.842 151.199 104.372 152.369 104.042 153.369C102.282 158.659 100.162 163.849 98.7419 169.229C97.1319 175.339 93.0619 179.329 88.2819 182.819C85.8319 184.619 82.9719 185.379 80.2919 183.409C77.5619 181.409 76.5519 178.809 77.5219 175.189C79.8019 166.649 81.7419 158.009 83.7119 149.389C84.7119 144.979 88.3619 141.809 92.8119 141.749Z" stroke="#ED1C24" stroke-width="2" stroke-miterlimit="10"/>
<path d="M177.142 225.769C170.932 217.049 164.672 208.359 158.572 199.559C157.812 198.459 157.302 196.639 157.632 195.409C159.732 187.559 162.102 179.789 164.382 171.989C164.812 171.939 165.242 171.889 165.672 171.849C168.042 176.279 170.632 180.609 172.732 185.169C175.632 191.459 178.392 197.839 180.762 204.339C181.632 206.729 181.622 209.639 181.282 212.219C180.702 216.639 179.552 220.979 178.642 225.359C178.132 225.499 177.632 225.629 177.142 225.769Z" stroke="#ED1C24" stroke-width="2" stroke-miterlimit="10"/>
<path d="M110.622 294.469C103.042 292.269 99.9119 287.489 98.6419 281.829C96.9819 274.399 95.9319 266.799 95.2219 259.209C94.1919 248.209 93.3719 237.169 93.1519 226.139C93.0619 221.719 94.8319 217.269 95.7619 212.839C96.2419 212.859 96.7119 212.879 97.1919 212.909C101.612 239.719 106.032 266.539 110.622 294.469Z" stroke="#ED1C24" stroke-width="2" stroke-miterlimit="10"/>
<path d="M100.582 304.419C99.8119 303.989 99.0419 303.559 98.2719 303.139C87.5619 294.589 85.7919 281.959 83.0119 269.789C82.3519 266.889 81.7919 263.959 81.1619 260.909C79.4419 260.999 78.002 261.079 76.562 261.159C78.682 256.149 80.742 251.249 82.812 246.359C82.812 246.359 82.682 246.489 82.672 246.489C84.412 243.449 86.162 240.419 87.922 237.349C89.182 245.839 90.0019 254.419 91.8019 262.789C94.5919 275.759 98.0719 288.589 101.162 301.499C101.382 302.379 100.792 303.439 100.582 304.419Z" stroke="#ED1C24" stroke-width="2" stroke-miterlimit="10"/>
<path d="M53.6819 179.449C57.2919 195.099 60.8719 210.439 64.2919 225.809C64.6219 227.299 63.9319 229.009 63.7119 230.629C62.1019 230.109 60.4419 229.719 58.9119 229.019C58.1019 228.649 57.2719 227.869 56.8819 227.069C51.9719 217.099 45.2419 207.989 42.9719 196.779C41.9719 191.859 43.5319 187.099 47.6519 184.109C49.8419 182.529 51.9219 180.819 53.6819 179.449Z" stroke="#ED1C24" stroke-width="2" stroke-miterlimit="10"/>
<path d="M384.992 264.449C383.612 279.809 371.682 310.289 362.132 314.769C361.172 310.459 360.372 306.259 359.292 302.129C357.482 295.159 357.782 290.019 365.222 285.349C371.912 281.149 376.662 273.869 382.242 267.919C383.132 266.969 383.872 265.879 384.992 264.449Z" stroke="#ED1C24" stroke-width="2" stroke-miterlimit="10"/>
<path d="M119.792 146.999C125.702 155.529 131.502 163.889 137.232 172.289C137.612 172.849 137.792 174.049 137.452 174.499C134.122 179.019 130.662 183.449 126.602 188.729C123.372 181.729 120.762 176.099 118.162 170.469C117.822 169.729 117.492 168.979 117.122 168.249C111.582 157.339 111.582 157.339 119.792 146.999Z" stroke="#ED1C24" stroke-width="2" stroke-miterlimit="10"/>
<path d="M46.5519 182.749C47.3019 172.909 48.6219 162.809 48.5919 152.699C48.5819 148.409 45.9719 144.019 44.0819 139.879C42.8719 137.229 44.0619 129.549 46.6819 128.659C47.7419 128.299 49.6819 128.989 50.5519 129.869C56.2819 135.669 59.0119 143.089 61.1919 150.729C61.4219 151.539 60.6319 152.649 60.2919 153.619C58.5119 158.689 55.4719 163.699 55.2419 168.829C54.9119 176.029 51.4719 180.009 46.5519 182.749Z" stroke="#ED1C24" stroke-width="2" stroke-miterlimit="10"/>
<path d="M142.402 117.899C148.232 110.959 153.862 104.249 159.502 97.5295C159.912 97.8195 160.322 98.1195 160.732 98.4095C162.282 114.139 155.302 128.179 151.942 142.939C151.452 143.039 150.972 143.129 150.482 143.229C149.282 139.919 147.582 136.689 147.002 133.279C145.972 127.219 145.382 121.129 142.402 117.899Z" stroke="#ED1C24" stroke-width="2" stroke-miterlimit="10"/>
<path d="M15.9319 191.469C22.5319 191.469 28.5019 191.469 34.5419 191.469C36.3919 201.929 34.7919 212.019 27.8119 220.939C25.6619 223.689 24.5019 223.659 22.9119 220.539C18.2119 211.259 16.9619 201.209 15.9319 191.469Z" stroke="#ED1C24" stroke-width="2" stroke-miterlimit="10"/>
<path d="M111.392 137.239C109.692 140.699 107.972 144.229 105.952 148.349C100.432 141.129 93.922 137.499 85.162 143.059C84.582 139.559 85.262 137.219 88.282 135.969C91.742 134.539 92.502 132.089 90.922 128.839C89.102 125.099 87.222 121.399 85.392 117.729C91.032 115.799 100.902 122.999 111.392 137.239Z" stroke="#ED1C24" stroke-width="2" stroke-miterlimit="10"/>
<path d="M64.812 220.049C62.862 210.649 61.042 202.069 59.312 193.479C58.852 191.209 58.562 188.909 58.302 186.609C56.822 173.119 55.532 178.129 65.332 167.109C69.832 184.729 70.792 201.909 64.812 220.049Z" stroke="#ED1C24" stroke-width="2" stroke-miterlimit="10"/>
<path d="M186.352 83.8395C191.702 75.8195 195.832 67.8195 203.112 62.2695C204.532 61.1895 206.572 60.5295 208.362 60.4495C210.752 60.3395 212.722 61.5695 212.252 64.4395C211.672 68.0195 211.382 71.8095 209.982 75.0795C206.592 82.9995 201.992 85.3795 193.442 84.5395C191.412 84.3395 189.382 84.1395 186.352 83.8395Z" stroke="#ED1C24" stroke-width="2" stroke-miterlimit="10"/>
<path d="M123.622 50.6495C123.622 62.7295 123.622 74.4295 123.622 85.2895C119.352 79.0895 114.132 72.2195 109.702 64.8795C105.882 58.5495 109.102 52.6995 116.332 51.6195C118.842 51.2495 121.352 50.9495 123.622 50.6495Z" stroke="#ED1C24" stroke-width="2" stroke-miterlimit="10"/>
<path d="M40.732 186.739C37.492 170.859 37.242 155.789 41.812 140.609C49.012 145.899 48.442 179.309 40.732 186.739Z" stroke="#ED1C24" stroke-width="2" stroke-miterlimit="10"/>
<path d="M337.082 164.169C339.482 144.509 341.882 124.859 344.282 105.199C344.552 105.169 344.812 105.129 345.082 105.099C345.422 106.649 345.792 108.199 346.112 109.759C346.442 111.359 346.812 112.959 347.032 114.569C348.132 122.669 349.012 130.529 345.772 138.649C342.472 146.899 340.682 155.749 338.242 164.329C337.852 164.289 337.462 164.229 337.082 164.169Z" stroke="#ED1C24" stroke-width="2" stroke-miterlimit="10"/>
<path d="M155.602 193.999C153.352 188.389 150.712 183.919 152.522 178.029C154.462 171.729 155.442 165.129 157.092 157.509C159.572 161.639 161.592 164.919 163.502 168.249C163.782 168.749 163.752 169.589 163.552 170.169C161.022 177.859 158.432 185.529 155.602 193.999Z" stroke="#ED1C24" stroke-width="2" stroke-miterlimit="10"/>
<path d="M223.502 135.679C229.052 153.859 227.092 171.599 227.492 189.119C227.532 191.059 225.702 193.049 224.732 195.009C224.322 194.919 223.912 194.839 223.502 194.749C223.502 175.429 223.502 156.099 223.502 135.679Z" stroke="#ED1C24" stroke-width="2" stroke-miterlimit="10"/>
<path d="M236.762 185.639C235.342 200.369 233.912 215.109 232.492 229.839C232.092 229.849 231.702 229.849 231.302 229.859C231.012 225.949 230.702 222.039 230.432 218.119C230.152 214.049 229.862 209.979 229.672 205.909C229.532 203.059 229.862 200.149 229.422 197.359C228.582 191.909 231.042 188.289 235.132 185.339C235.672 185.439 236.222 185.539 236.762 185.639Z" stroke="#ED1C24" stroke-width="2" stroke-miterlimit="10"/>
<path d="M35.232 188.789C28.952 191.199 23.352 191.039 17.752 189.419C16.952 189.189 15.902 187.989 15.872 187.219C15.702 181.949 15.782 176.669 16.362 171.229C20.202 174.619 17.572 180.019 20.192 184.789C22.112 181.799 23.722 179.299 25.832 176.009C29.052 180.369 32.022 184.419 35.232 188.789Z" stroke="#ED1C24" stroke-width="2" stroke-miterlimit="10"/>
<path d="M32.3019 302.659C29.1219 294.689 27.8419 277.299 29.6319 268.989C33.3519 271.409 36.5219 273.539 36.2419 278.869C35.8319 286.719 35.8619 294.549 32.3019 302.659Z" stroke="#ED1C24" stroke-width="2" stroke-miterlimit="10"/>
<path d="M24.7519 172.509C21.2419 171.269 18.7119 170.379 15.8019 169.359C16.0719 162.849 17.1919 156.549 21.9619 151.519C22.8519 150.579 24.4719 150.339 25.7519 149.769C26.1919 150.999 27.1119 152.269 27.0019 153.439C26.4219 159.629 25.5719 165.799 24.7519 172.509Z" stroke="#ED1C24" stroke-width="2" stroke-miterlimit="10"/>
<path d="M82.442 138.559C79.912 139.779 77.372 140.989 74.792 142.229C73.542 134.249 77.462 122.289 82.882 118.539C83.762 125.459 84.772 132.019 82.432 138.589C82.442 138.579 82.442 138.559 82.442 138.559Z" stroke="#ED1C24" stroke-width="2" stroke-miterlimit="10"/>
<path d="M71.1319 190.899C69.9719 183.659 69.1719 176.899 67.7419 170.279C66.8419 166.129 67.2919 162.859 71.5519 159.819C71.3719 170.339 77.8819 180.269 71.1319 190.899Z" stroke="#ED1C24" stroke-width="2" stroke-miterlimit="10"/>
<path d="M35.5319 270.619C31.8119 267.689 29.2019 265.289 30.3319 260.259C32.0719 252.549 33.0419 244.649 34.3419 236.839C34.7419 236.889 35.1319 236.949 35.5319 236.999C35.5319 247.959 35.5319 258.919 35.5319 270.619Z" stroke="#ED1C24" stroke-width="2" stroke-miterlimit="10"/>
<path d="M67.0519 237.159C69.1719 244.689 71.7819 252.369 73.2319 260.249C73.6019 262.239 70.2719 264.919 68.6419 267.279C68.1119 267.059 67.5819 266.829 67.0519 266.609C67.0519 256.749 67.0519 246.889 67.0519 237.159Z" stroke="#ED1C24" stroke-width="2" stroke-miterlimit="10"/>
<path d="M259.202 172.109C257.552 150.679 260.552 130.889 265.902 127.859C263.682 142.539 261.472 157.139 259.202 172.109Z" stroke="#ED1C24" stroke-width="2" stroke-miterlimit="10"/>
<path d="M40.8319 199.859C42.3119 202.859 43.7619 205.559 44.9719 208.359C45.2719 209.049 45.0519 210.229 44.6219 210.909C42.3319 214.549 39.8919 218.099 37.5419 221.629C35.3219 215.469 36.4219 207.679 40.8319 199.859Z" stroke="#ED1C24" stroke-width="2" stroke-miterlimit="10"/>
<path d="M75.2119 173.849C74.8019 168.239 73.5619 162.509 74.3219 157.069C74.7419 154.029 78.4919 151.449 80.7419 148.659C81.1819 148.849 81.6219 149.029 82.0519 149.219C80.2319 157.459 78.4019 165.699 76.5819 173.939C76.1319 173.899 75.6719 173.879 75.2119 173.849Z" stroke="#ED1C24" stroke-width="2" stroke-miterlimit="10"/>
<path d="M151.752 149.619C154.862 152.679 155.902 155.609 154.892 159.479C153.362 165.339 152.252 171.309 150.602 177.179C148.352 167.969 149.172 158.969 151.752 149.619Z" stroke="#ED1C24" stroke-width="2" stroke-miterlimit="10"/>
<path d="M113.852 305.149C113.392 301.909 113.012 299.909 112.872 297.899C112.812 297.069 113.022 295.949 113.562 295.379C115.322 293.519 117.442 291.999 119.122 290.079C120.792 288.169 122.082 285.939 124.312 284.099C122.442 290.199 120.742 296.369 118.572 302.359C118.142 303.519 115.882 304.009 113.852 305.149Z" stroke="#ED1C24" stroke-width="2" stroke-miterlimit="10"/>
<path d="M183.632 212.269C185.152 219.489 186.682 226.709 188.282 234.289C181.722 231.669 179.252 227.349 180.492 221.519C181.142 218.489 181.802 215.449 182.462 212.419C182.852 212.369 183.242 212.319 183.632 212.269Z" stroke="#ED1C24" stroke-width="2" stroke-miterlimit="10"/>
<path d="M61.112 100.659C69.852 99.7995 79.412 106.399 81.412 115.319C74.122 110.619 67.312 106.229 60.512 101.839C60.712 101.449 60.912 101.049 61.112 100.659Z" stroke="#ED1C24" stroke-width="2" stroke-miterlimit="10"/>
<path d="M154.762 219.779C156.162 232.059 156.272 244.299 153.432 256.449C153.432 244.209 153.432 231.979 153.432 219.739C153.872 219.759 154.312 219.769 154.762 219.779Z" stroke="#ED1C24" stroke-width="2" stroke-miterlimit="10"/>
<path d="M100.502 290.849C103.662 292.649 107.202 293.799 109.412 296.189C111.232 298.159 111.482 301.599 112.432 304.429C105.542 306.069 105.182 305.929 103.302 300.339C102.232 297.139 101.392 293.869 100.502 290.849Z" stroke="#ED1C24" stroke-width="2" stroke-miterlimit="10"/>
<path d="M237.262 211.809C236.692 224.819 236.112 237.819 235.542 250.829C230.752 237.679 235.812 224.869 235.762 211.879C236.262 211.849 236.762 211.829 237.262 211.809Z" stroke="#ED1C24" stroke-width="2" stroke-miterlimit="10"/>
<path d="M137.822 227.789C140.162 214.559 142.512 201.339 144.852 188.119C145.102 188.019 145.362 187.919 145.612 187.819C146.132 189.709 147.442 191.769 147.052 193.449C144.402 204.969 141.412 216.419 138.522 227.889C138.302 227.859 138.062 227.819 137.822 227.789Z" stroke="#ED1C24" stroke-width="2" stroke-miterlimit="10"/>
<path d="M56.4919 172.589C58.0419 165.969 59.3519 160.379 60.6719 154.799C66.3019 161.579 64.9419 167.089 56.4919 172.589Z" stroke="#ED1C24" stroke-width="2" stroke-miterlimit="10"/>
<path d="M66.722 161.649C63.482 150.619 62.392 152.299 71.532 146.119C71.532 151.969 72.822 157.709 66.722 161.649Z" stroke="#ED1C24" stroke-width="2" stroke-miterlimit="10"/>
<path d="M82.442 138.579C83.492 142.159 82.962 145.149 79.732 147.579C77.832 149.009 76.342 150.989 74.542 152.859C72.852 145.409 73.252 144.589 79.492 141.029C80.592 140.409 81.462 139.399 82.442 138.559C82.442 138.559 82.442 138.579 82.442 138.579Z" stroke="#ED1C24" stroke-width="2" stroke-miterlimit="10"/>
<path d="M159.262 131.149C158.342 137.569 157.422 143.999 156.492 150.469C151.392 148.619 152.552 142.989 159.262 131.149Z" stroke="#ED1C24" stroke-width="2" stroke-miterlimit="10"/>
<path d="M116.842 140.449C115.512 136.499 120.652 128.669 126.642 124.009C126.152 131.149 120.232 134.519 116.842 140.449Z" stroke="#ED1C24" stroke-width="2" stroke-miterlimit="10"/>
<path d="M112.102 306.569C112.472 308.379 113.012 310.079 113.082 311.789C113.122 312.799 112.392 313.839 112.002 314.869C111.132 314.379 109.942 314.099 109.442 313.359C108.122 311.359 107.092 309.169 105.692 306.579C107.982 306.569 109.842 306.569 112.102 306.569Z" stroke="#ED1C24" stroke-width="2" stroke-miterlimit="10"/>
<path d="M78.412 264.229C83.132 269.299 82.582 276.069 82.972 282.539C81.002 276.579 79.042 270.619 77.072 264.669C77.522 264.519 77.962 264.379 78.412 264.229Z" stroke="#ED1C24" stroke-width="2" stroke-miterlimit="10"/>
<path d="M85.6019 136.039C85.6019 131.209 85.6019 127.039 85.6019 122.719C90.5319 128.089 90.7019 132.239 85.6019 136.039Z" stroke="#ED1C24" stroke-width="2" stroke-miterlimit="10"/>
<path d="M412.162 165.939C411.032 159.569 409.892 153.209 408.762 146.839C409.302 146.739 409.852 146.649 410.392 146.549C413.072 152.649 412.672 159.299 413.312 165.769C412.932 165.829 412.552 165.879 412.162 165.939Z" stroke="#ED1C24" stroke-width="2" stroke-miterlimit="10"/>
<path d="M63.2419 244.499C61.8119 240.349 60.3819 236.199 58.7819 231.529C60.8119 232.019 62.3119 232.389 64.0319 232.809C64.0319 236.669 64.0319 240.549 64.0319 244.429C63.7619 244.459 63.5019 244.479 63.2419 244.499Z" stroke="#ED1C24" stroke-width="2" stroke-miterlimit="10"/>
<path d="M153.382 204.219C152.452 198.859 148.802 194.679 150.322 189.349C152.422 193.929 157.212 197.839 153.382 204.219Z" stroke="#ED1C24" stroke-width="2" stroke-miterlimit="10"/>
<path d="M147.712 187.949C143.762 183.179 146.812 177.939 146.302 172.939C146.662 172.909 147.032 172.869 147.392 172.839C147.962 177.889 148.532 182.939 149.112 187.999C148.642 187.979 148.172 187.959 147.712 187.949Z" stroke="#ED1C24" stroke-width="2" stroke-miterlimit="10"/>
<path d="M109.392 155.189C111.652 151.449 113.912 147.709 116.172 143.979C116.662 144.229 117.162 144.479 117.652 144.729C117.492 149.499 113.112 152.189 111.362 156.169C110.702 155.849 110.042 155.519 109.392 155.189Z" stroke="#ED1C24" stroke-width="2" stroke-miterlimit="10"/>
<path d="M144.122 131.049C142.082 126.959 140.042 122.869 137.622 118.039C142.322 119.899 144.542 124.469 144.122 131.049Z" stroke="#ED1C24" stroke-width="2" stroke-miterlimit="10"/>
<path d="M133.942 115.549C132.542 116.189 131.392 116.719 129.882 117.409C129.882 113.739 129.882 110.499 129.882 107.259C130.082 107.189 130.272 107.109 130.472 107.039C131.582 109.789 132.702 112.529 133.942 115.549Z" stroke="#ED1C24" stroke-width="2" stroke-miterlimit="10"/>
<path d="M115.352 141.419C113.172 144.959 110.982 148.489 108.802 152.029C108.372 151.799 107.942 151.559 107.512 151.329C109.522 147.739 111.522 144.149 113.532 140.549C114.142 140.839 114.752 141.129 115.352 141.419Z" stroke="#ED1C24" stroke-width="2" stroke-miterlimit="10"/>
<path d="M90.062 223.229C90.392 217.639 90.7219 212.059 91.0519 206.469C91.1019 206.479 91.1619 206.489 91.2119 206.499C91.2119 212.089 91.2119 217.679 91.2119 223.269C90.8219 223.259 90.442 223.249 90.062 223.229Z" stroke="#ED1C24" stroke-width="2" stroke-miterlimit="10"/>
<path d="M91.492 229.829C91.492 235.039 91.492 240.239 91.492 245.449C91.432 245.469 91.362 245.479 91.302 245.499C90.932 240.289 90.562 235.069 90.192 229.859C90.622 229.849 91.052 229.839 91.492 229.829Z" stroke="#ED1C24" stroke-width="2" stroke-miterlimit="10"/>
<path d="M36.6219 201.379C36.6219 198.809 36.6219 196.239 36.6219 193.369C40.3219 196.189 38.3019 198.789 36.6219 201.379Z" stroke="#ED1C24" stroke-width="2" stroke-miterlimit="10"/>
<path d="M20.3119 172.279C24.8919 175.939 21.3419 178.179 19.8619 180.599C19.9919 178.179 20.1219 175.759 20.3119 172.279Z" stroke="#ED1C24" stroke-width="2" stroke-miterlimit="10"/>
<path d="M147.772 153.039C147.772 149.099 147.772 146.299 147.772 143.159C151.692 146.099 149.972 148.979 147.772 153.039Z" stroke="#ED1C24" stroke-width="2" stroke-miterlimit="10"/>
<path d="M143.242 178.109C138.992 174.419 142.502 172.409 144.332 170.119C143.992 172.619 143.652 175.109 143.242 178.109Z" stroke="#ED1C24" stroke-width="2" stroke-miterlimit="10"/>
<path d="M134.642 118.489C132.892 120.489 131.152 122.479 129.062 124.869C128.252 120.139 131.442 119.259 134.642 118.489Z" stroke="#ED1C24" stroke-width="2" stroke-miterlimit="10"/>
<path d="M454.352 266.109C451.752 260.539 448.752 255.119 446.642 249.369C442.102 236.999 439.332 224.179 440.502 210.949C441.042 204.799 442.962 198.749 444.492 192.709C444.762 191.629 446.162 190.829 447.042 189.899C447.832 190.929 449.112 191.849 449.342 192.989C451.242 202.169 453.712 211.329 454.542 220.619C455.872 235.509 456.082 250.489 456.762 265.439C455.962 265.659 455.162 265.879 454.352 266.109Z" stroke="#ED1C24" stroke-width="2" stroke-miterlimit="10"/>
<path d="M453.042 287.059C439.572 269.999 440.512 249.539 439.452 229.579C439.842 231.939 440.172 234.319 440.622 236.669C441.082 239.079 441.622 241.469 442.192 243.849C444.432 253.209 447.302 262.259 454.662 269.099C454.952 269.369 455.432 269.709 455.432 269.999C455.302 275.729 455.482 281.509 453.042 287.059Z" stroke="#ED1C24" stroke-width="2" stroke-miterlimit="10"/>
</g></a></svg>
