<svg width="1287" height="476" viewBox="0 0 1287 476" fill="none" xmlns="http://www.w3.org/2000/svg">
<a href="nate">
<g clip-path="url(#clip0)">
<path d="M95.3319 64.1795C103.682 60.6395 111.902 56.6795 120.452 53.7195C125.302 52.0395 128.952 50.1495 131.602 45.3595C134.992 39.2295 139.602 33.7795 143.682 28.0395C142.462 30.1195 141.262 32.2195 140.012 34.2795C136.812 39.5295 133.582 44.7695 129.962 50.6695C133.962 50.1795 136.982 50.0795 139.842 49.3395C141.172 48.9895 142.682 47.6095 143.232 46.3195C145.782 40.3495 147.342 33.8495 150.542 28.2795C154.622 21.1795 159.932 14.7795 164.472 8.40947C164.642 8.36947 164.142 8.48947 163.632 8.60947C164.132 8.00947 164.512 7.14947 165.152 6.85947C177.112 1.42947 188.332 -2.06053 201.682 7.96947C218.292 20.4495 228.682 36.9395 231.502 57.8095C231.662 59.0195 231.692 60.3695 232.262 61.3895C239.092 73.5195 238.822 87.0995 240.182 100.319C240.742 105.739 240.832 111.229 240.702 116.679C240.522 124.229 241.622 131.299 244.462 138.479C248.532 148.739 248.212 159.859 248.012 170.789C247.922 176.039 247.992 181.299 247.992 186.549C250.432 185.109 252.882 183.659 256.012 181.819C257.492 176.439 259.282 169.949 261.072 163.459C269.392 173.789 271.812 185.879 275.352 197.789C275.352 193.839 275.392 189.889 275.342 185.939C275.282 181.849 274.972 177.749 275.062 173.669C275.322 162.519 275.242 151.319 276.312 140.239C276.772 135.439 279.622 130.839 281.602 126.239C282.392 124.379 283.702 122.629 285.552 125.149C287.722 121.869 289.442 118.739 291.672 116.029C296.172 110.539 301.282 110.609 305.612 116.229C311.102 123.369 313.812 131.699 313.952 140.589C314.232 157.909 313.842 175.229 314.122 192.549C314.222 198.699 315.452 204.819 316.172 210.959C316.692 211.029 317.202 211.099 317.722 211.169C318.382 209.839 319.362 208.579 319.642 207.169C322.442 193.009 325.302 178.869 327.782 164.659C330.122 151.229 332.062 137.739 337.562 125.109C338.162 123.739 338.832 122.399 339.532 121.079C339.692 120.789 340.132 120.639 341.122 119.969C341.362 127.059 342.112 133.669 341.702 140.199C340.172 164.829 338.182 189.429 336.532 214.059C334.942 237.869 333.362 261.679 332.212 285.509C331.862 292.649 332.942 299.869 334.342 307.159C335.142 304.129 336.132 301.139 336.712 298.069C339.012 285.739 341.652 273.459 343.242 261.029C344.662 249.959 344.442 238.689 345.712 227.589C347.312 213.659 350.012 199.849 351.652 185.919C353.612 169.269 354.832 152.529 356.582 135.849C357.842 123.779 359.442 111.749 360.922 99.7095C361.062 98.5895 361.502 97.5095 361.802 96.4095C362.302 96.3895 362.792 96.3595 363.292 96.3395C364.852 105.839 366.412 115.349 367.992 124.969C370.282 120.659 372.622 116.269 374.952 111.879C374.212 113.779 373.542 115.699 372.732 117.559C369.582 124.729 367.212 131.969 368.262 140.059C368.842 144.499 368.672 149.059 368.532 153.549C367.332 192.869 368.342 232.099 373.042 271.199C373.752 277.069 374.532 282.939 375.352 289.379C384.152 283.959 391.082 277.639 396.542 269.919C399.782 265.339 403.862 260.439 404.662 255.229C407.352 237.739 408.732 220.049 410.632 202.429C412.492 185.179 415.292 168.079 422.402 152.129C424.472 147.479 424.562 143.359 423.582 138.759C422.162 132.099 421.052 125.369 419.442 118.759C417.432 110.549 415.092 102.389 409.532 95.6895C404.942 90.1595 399.322 88.5095 393.182 92.0995C388.372 94.9195 384.412 99.1995 380.082 102.839C383.752 95.3295 389.212 89.8195 397.852 89.0795C406.362 88.3495 411.802 93.5595 414.822 100.699C417.872 107.899 420.062 115.519 422.092 123.099C423.772 129.379 424.672 135.879 426.782 141.679C427.722 142.769 429.052 143.719 429.522 144.979C433.142 154.739 433.292 164.909 433.212 175.169C433.182 179.029 434.662 182.899 435.672 187.829C437.222 186.099 437.802 185.449 438.372 184.799C438.502 184.919 438.622 185.029 438.752 185.149C438.092 186.839 437.442 188.519 436.312 191.409C434.782 188.269 433.832 186.309 433.032 184.679C429.742 196.449 427.162 208.549 422.952 220.049C418.102 233.299 411.602 245.939 406.252 259.029C404.372 263.619 403.762 268.729 402.622 273.609C399.142 288.449 394.592 302.799 384.162 314.489C382.772 316.049 381.112 317.379 378.942 319.409C377.172 309.839 375.572 301.209 373.892 292.119C371.982 292.759 370.372 293.319 368.742 293.839C359.162 296.909 351.622 293.339 348.282 283.859C346.702 279.389 345.652 274.729 344.212 269.619C340.952 285.029 337.752 300.089 334.562 315.159C333.982 315.129 333.402 315.099 332.822 315.069C332.262 309.679 331.602 304.289 331.152 298.889C328.882 271.529 331.902 244.379 334.702 217.239C337.692 188.189 340.562 159.139 340.382 129.889C340.372 128.539 340.382 127.199 339.412 125.549C338.922 126.639 338.352 127.699 337.952 128.819C332.242 144.589 331.042 161.269 327.982 177.589C325.802 189.199 322.572 200.619 319.742 212.109C319.462 213.229 318.702 214.239 317.782 216.049C314.182 209.829 312.582 203.629 312.432 197.399C312.112 184.049 312.262 170.659 312.772 157.309C313.272 144.099 311.642 131.489 305.152 119.779C304.692 118.949 304.222 118.099 303.652 117.349C299.812 112.299 296.072 112.319 292.772 117.719C290.862 120.839 289.452 124.269 288.022 127.649C287.662 128.509 287.802 129.839 288.212 130.719C295.092 145.499 296.502 161.359 297.802 177.299C299.242 194.959 300.972 212.599 302.682 230.239C302.942 232.929 303.692 235.589 304.442 238.209C305.782 242.869 306.972 243.189 310.912 240.199C311.442 239.799 311.972 239.399 312.622 238.899C317.882 244.799 321.012 251.679 322.062 259.119C325.782 285.649 319.032 309.609 303.122 331.049C302.082 332.449 300.712 333.649 299.332 334.729C293.702 339.149 287.862 338.549 284.552 332.199C281.782 326.869 279.782 320.879 278.722 314.949C273.382 284.939 274.232 254.569 274.862 224.309C275.142 210.959 272.552 198.319 269.362 185.659C267.792 179.429 265.112 173.479 262.392 167.479C258.892 177.119 256.402 186.749 256.192 196.869C255.802 215.409 255.382 233.959 254.932 252.499C254.892 253.959 254.492 255.419 253.352 257.099C252.412 254.479 251.462 251.859 250.222 248.409C249.052 258.509 248.202 267.819 246.862 277.049C244.212 295.239 241.632 313.459 238.282 331.529C237.192 337.399 234.472 343.239 231.362 348.409C226.802 355.989 218.922 355.509 214.642 347.599C212.482 343.619 211.442 339.029 209.912 334.769C205.322 338.889 200.352 343.359 195.102 348.079C190.002 341.409 188.892 334.299 187.752 327.199C187.732 327.069 187.742 326.929 187.732 326.789C187.342 321.639 186.352 317.319 182.362 312.939C173.802 303.529 171.742 291.129 170.462 278.789C170.352 277.709 170.232 276.619 170.062 275.549C170.022 275.309 169.782 275.109 169.612 274.859C166.992 279.279 164.602 283.839 161.712 288.049C156.792 295.219 150.032 300.179 141.912 303.269C137.342 305.009 132.892 312.229 133.532 317.159C135.012 328.509 136.782 339.829 138.092 351.199C139.062 359.629 138.992 368.089 136.282 376.309C134.002 383.259 130.412 384.599 124.872 379.729C120.312 375.709 116.482 370.859 112.092 366.109C98.2619 372.789 82.992 375.349 67.332 374.529C60.262 374.159 52.9819 372.549 46.3619 370.019C37.1919 366.519 33.1419 357.959 34.0619 348.209C35.2619 335.489 42.2019 325.649 49.5619 315.879C58.6419 303.849 67.4619 291.619 76.1419 279.829C68.9519 278.689 62.552 277.679 55.942 276.639C56.042 286.039 55.812 296.209 50.662 305.389C50.242 305.469 49.812 305.559 49.392 305.639C48.252 301.319 46.4619 297.059 46.1019 292.669C45.4619 284.949 45.7219 277.159 45.5119 269.399C45.4719 267.849 45.4519 265.939 44.6019 264.829C35.0819 252.479 29.7719 238.149 25.6619 223.429C22.9219 213.629 21.1319 203.529 19.5719 193.459C18.5419 186.819 19.0319 180.099 23.1719 174.209C23.7219 173.419 23.832 172.139 23.762 171.119C22.262 151.339 30.0519 134.779 42.4419 120.299C47.9319 113.879 54.832 108.519 61.672 103.449C65.242 100.809 70.062 99.8395 74.492 98.0495C70.762 89.7195 73.082 82.4995 79.802 76.3495C79.222 77.5495 78.682 78.7795 78.042 79.9495C75.382 84.8595 73.632 89.8995 75.422 95.5795C76.122 97.8095 77.372 98.6095 79.802 98.9195C83.642 99.4095 87.5919 100.249 91.1219 101.799C96.9819 104.359 99.782 109.769 101.672 115.609C108.782 114.369 113.272 118.619 117.792 122.479C122.322 126.349 126.542 130.579 130.532 134.299C134.802 129.749 139.162 125.279 143.272 120.599C144.482 119.219 145.672 117.289 145.782 115.549C146.742 99.7095 141.552 85.8395 131.762 73.5495C127.222 67.8395 122.882 62.0795 126.892 52.9295C118.512 55.8695 111.482 58.3195 104.472 60.8195C101.392 61.8495 98.3719 63.0395 95.3319 64.1795ZM100.442 138.559C99.4619 139.389 98.592 140.399 97.492 141.019C91.242 144.579 90.8519 145.399 92.5419 152.849C94.3419 150.989 95.8319 148.999 97.7319 147.569C100.962 145.139 101.492 142.159 100.442 138.569C102.782 131.999 101.762 125.439 100.892 118.519C95.4719 122.269 91.5519 134.229 92.8019 142.209C95.3819 140.989 97.9119 139.769 100.442 138.559ZM118.582 304.419C118.792 303.439 119.372 302.379 119.162 301.499C116.072 288.589 112.592 275.769 109.802 262.789C108.002 254.419 107.182 245.839 105.922 237.349C104.162 240.409 102.412 243.449 100.672 246.489C103.642 238.789 106.992 231.379 106.702 222.629C106.452 215.229 107.782 207.719 108.982 200.349C110.102 193.459 111.972 186.689 113.462 180.119C110.302 182.069 107.312 185.069 103.892 185.689C100.732 186.269 97.102 184.299 92.672 183.199C91.812 190.979 90.912 199.569 89.882 208.139C89.232 213.519 89.0619 219.099 87.4119 224.179C85.8919 228.829 85.7319 232.949 87.1519 237.489C89.3019 244.379 91.1519 251.369 93.4319 259.359C96.3119 254.289 98.5719 250.319 100.832 246.349C98.7619 251.249 96.6919 256.149 94.5819 261.159C96.0219 261.079 97.4619 260.999 99.1819 260.909C99.8119 263.959 100.372 266.889 101.032 269.789C103.812 281.959 105.582 294.589 116.292 303.139C112.792 300.729 109.282 298.329 105.802 295.939C107.702 300.529 109.662 305.429 111.742 310.269C115.822 319.779 120.282 329.129 123.992 338.779C127.472 347.839 124.542 355.589 117.482 361.949C116.412 362.919 115.312 363.859 113.822 365.159C117.222 369.089 120.152 373.079 123.722 376.369C125.742 378.229 129.662 380.559 131.222 379.759C133.352 378.659 135.122 374.809 135.182 372.099C135.432 360.949 135.252 349.769 134.692 338.629C134.342 331.729 133.032 324.879 132.282 319.049C130.332 318.069 128.812 317.779 128.102 316.859C126.022 314.179 124.352 311.199 122.352 308.449C121.262 306.969 119.842 305.749 118.582 304.419ZM158.172 52.5095C153.542 51.7495 148.912 50.9995 144.072 50.2095C139.352 73.7695 144.922 94.7695 155.772 116.029C157.242 115.029 157.662 113.219 158.792 112.139C164.112 107.059 169.412 101.919 175.162 97.3495C177.902 95.1695 178.772 93.2195 178.352 89.8395C177.062 79.4295 174.062 69.6495 168.572 60.6795C177.102 69.5995 178.822 81.1895 181.172 92.7595C182.082 91.7695 182.652 90.7795 182.852 89.7195C186.572 69.1695 189.922 48.5495 188.302 27.5795C187.882 22.1395 186.252 16.5895 184.082 11.5595C181.782 6.21947 175.052 4.03947 171.072 6.68947C156.022 16.7095 148.842 31.7495 144.112 48.9195C146.912 49.3195 149.222 49.4395 151.422 50.0195C153.722 50.6195 155.922 51.6595 158.172 52.5095ZM28.8219 170.929C27.8419 171.999 26.332 172.919 25.982 174.169C24.552 179.299 22.422 184.529 22.452 189.719C22.562 212.509 28.912 233.769 40.022 253.609C41.612 256.439 43.592 259.049 45.662 262.179C46.142 260.999 46.352 260.639 46.432 260.249C48.662 249.879 51.182 239.559 52.972 229.109C53.772 224.439 53.1119 219.509 53.1119 213.769C49.6319 218.609 46.8119 222.509 43.3519 227.319C30.2219 209.799 32.8319 190.169 31.4119 171.219C30.5119 171.169 29.5819 171.119 28.6519 171.059C31.2919 170.229 31.7119 168.189 32.3819 165.729C33.7119 160.829 35.4119 155.899 37.9019 151.509C38.9419 149.669 42.352 149.179 44.682 148.079C45.682 150.309 47.6119 152.599 47.4919 154.759C47.1719 160.289 45.9019 165.759 45.0619 171.259C44.8719 172.509 44.3419 174.189 44.9219 174.979C47.2119 178.139 49.882 181.019 52.932 184.619C53.642 163.709 52.8719 143.069 64.8919 124.669C74.4219 130.639 77.9919 140.059 81.5019 149.779C82.9319 148.769 84.0319 147.679 85.3719 147.099C89.4019 145.359 90.522 142.129 90.952 138.089C91.752 130.539 93.8619 123.389 99.2619 117.139C96.9019 115.699 94.6719 114.439 92.5419 113.029C88.5719 110.399 83.882 108.349 80.912 104.849C76.342 99.4695 71.802 100.139 66.582 102.739C64.392 103.829 62.132 104.899 60.202 106.369C46.6119 116.719 35.7519 129.269 29.6119 145.439C26.4219 153.839 24.762 162.539 24.882 171.729C26.482 171.409 27.6519 171.169 28.8219 170.929ZM287.952 132.559C287.402 132.619 286.852 132.679 286.312 132.739C285.732 134.969 284.922 137.159 284.612 139.419C282.382 155.739 279.792 172.029 278.252 188.419C277.272 198.809 277.392 209.379 277.952 219.819C278.812 236.139 280.472 252.409 281.732 268.709C281.832 270.019 281.542 271.369 281.442 272.699C280.942 272.709 280.442 272.729 279.942 272.739C278.892 265.859 277.852 258.979 276.802 252.099C276.452 252.129 276.092 252.159 275.742 252.189C276.572 268.659 276.962 285.159 278.422 301.569C279.172 310.009 280.932 318.619 283.852 326.559C287.912 337.619 294.492 338.259 302.152 329.089C313.372 315.659 318.142 299.579 320.492 282.619C321.972 271.969 321.822 261.329 317.972 251.149C314.472 241.909 313.652 241.769 305.222 246.589C304.812 245.429 304.372 244.349 304.032 243.239C299.742 229.169 298.762 214.609 297.542 200.079C296.262 184.879 295.162 169.649 293.262 154.519C292.322 147.089 289.772 139.869 287.952 132.559ZM84.2319 274.019C83.8719 273.859 83.5119 273.699 83.1419 273.539C81.1519 276.059 79.062 278.509 77.202 281.129C69.292 292.209 61.472 303.359 53.572 314.449C49.002 320.869 43.7319 326.889 39.8519 333.699C30.8219 349.539 37.642 366.509 54.542 371.109C65.762 374.159 77.1219 374.389 88.5719 372.059C96.6019 370.429 104.292 368.029 111.582 363.919C94.9819 336.009 88.4319 305.369 84.2319 274.019ZM129.322 160.219C111.792 174.709 113.512 194.589 112.162 213.559C113.002 211.619 113.852 209.679 114.692 207.739C115.132 207.809 115.572 207.879 116.012 207.949C120.822 236.189 125.622 264.439 130.562 293.489C132.472 291.409 134.422 290.069 135.262 288.229C138.922 280.209 143.022 272.279 145.572 263.899C153.262 238.549 156.472 212.279 160.502 186.189C161.062 182.539 160.122 179.589 157.552 176.779C153.152 181.759 149.562 187.409 143.362 190.189C138.572 179.939 133.972 170.129 129.322 160.219ZM200.622 86.5895C200.412 86.2095 200.202 85.8295 199.992 85.4495C196.092 87.2295 192.222 89.0695 188.302 90.7895C185.032 92.2195 183.282 94.5995 182.892 98.1695C181.862 107.509 180.792 116.859 179.592 126.179C178.482 134.829 177.182 143.449 175.992 152.089C175.872 152.999 175.622 154.119 176.002 154.819C178.082 158.559 180.342 162.209 182.772 166.259C190.472 149.429 196.472 132.139 215.352 123.189C217.452 130.719 219.392 137.619 221.432 144.919C226.112 137.669 230.792 130.989 238.592 127.359C239.162 127.089 239.592 125.819 239.552 125.049C238.662 110.079 237.892 95.0995 236.602 80.1595C236.202 75.4495 234.372 70.8595 233.202 66.2095C232.832 66.2895 232.462 66.3595 232.092 66.4395C231.632 68.6995 231.272 70.9795 230.702 73.2095C228.712 81.0195 222.412 87.1695 214.612 86.3195C205.892 85.3695 199.412 86.3895 196.702 96.3995C196.382 95.9895 196.052 95.5795 195.732 95.1695C197.372 92.3095 198.992 89.4495 200.622 86.5895ZM195.522 345.899C200.042 341.259 204.132 337.349 207.832 333.109C209.032 331.739 209.632 329.539 209.832 327.649C211.282 313.579 211.822 299.369 214.072 285.429C217.742 262.679 222.932 240.069 232.452 219.049C239.342 203.829 241.342 188.459 240.592 172.259C240.512 170.629 240.602 168.989 240.582 167.349C240.442 156.849 240.272 146.339 240.142 135.839C240.102 132.749 238.782 131.099 235.572 131.909C231.642 132.899 221.502 146.729 221.602 150.789C221.612 151.059 221.712 151.329 221.732 151.599C222.882 163.269 224.372 174.909 225.082 186.599C225.962 201.179 226.182 215.829 222.922 230.189C222.082 233.879 220.292 237.849 217.702 240.469C216.082 242.099 212.152 241.439 208.982 241.839C210.022 257.659 207.522 273.649 202.502 289.179C199.972 297.029 197.272 305.139 192.842 311.959C189.942 316.429 188.992 320.349 189.672 325.029C190.402 330.139 191.512 335.199 192.692 340.239C193.062 341.829 194.182 343.269 195.522 345.899ZM366.402 135.879C364.952 140.589 363.572 144.369 362.632 148.259C359.482 161.219 355.552 174.079 353.632 187.229C350.492 208.659 348.732 230.299 346.322 251.839C345.032 263.329 346.212 274.459 351.182 284.989C355.032 293.159 361.412 295.409 369.712 292.399C373.122 291.159 373.802 289.479 373.292 286.049C368.352 252.789 366.142 219.339 366.392 185.719C366.502 169.469 366.402 153.239 366.402 135.879ZM230.002 58.8695C229.842 57.3295 229.802 56.3995 229.632 55.4995C227.112 42.0195 220.592 30.4595 212.162 19.9095C206.662 13.0295 200.292 7.14947 191.792 4.05947C187.032 2.32947 181.542 2.36947 178.102 4.34947C185.682 7.80947 188.662 14.2595 189.902 21.8595C192.372 36.9095 189.972 51.7795 188.192 66.6495C187.262 74.4395 185.942 82.1795 184.782 90.0695C189.832 88.0395 194.502 85.7795 199.412 84.3595C201.782 83.6795 203.062 82.6395 204.292 80.6995C207.642 75.4095 210.862 69.9795 214.812 65.1595C218.412 60.7595 222.602 56.4095 230.002 58.8695ZM245.512 196.029C245.072 195.929 244.622 195.839 244.182 195.739C243.212 198.959 241.512 202.159 241.392 205.419C240.432 231.609 238.842 257.719 232.932 283.349C229.522 298.149 224.902 312.639 216.052 325.119C211.802 331.119 211.962 336.529 214.262 342.639C215.862 346.879 217.432 351.739 222.892 351.789C228.412 351.839 230.872 347.159 232.222 342.739C235.202 332.999 238.372 323.199 240.032 313.189C243.022 295.189 245.032 277.029 247.302 258.909C248.102 252.559 249.192 246.129 248.902 239.799C248.302 226.339 246.892 212.919 245.812 199.479C245.722 198.319 245.612 197.179 245.512 196.029ZM173.952 201.089C173.792 205.269 173.002 209.199 173.612 212.899C176.112 228.259 176.252 243.619 173.352 258.849C170.162 275.579 173.322 291.269 179.982 306.479C181.192 309.229 183.742 311.399 185.662 313.809C186.622 313.039 186.792 312.959 186.802 312.879C188.232 285.409 190.682 258.039 195.802 230.969C195.982 230.029 195.782 228.699 195.222 227.969C188.372 219.209 181.432 210.519 173.952 201.089ZM92.5319 264.469C88.9219 268.239 85.3019 270.579 86.0819 276.429C89.1619 299.629 94.5019 322.209 103.462 343.849C106.192 350.439 109.552 356.779 112.662 363.339C120.022 359.399 123.742 353.909 123.542 346.499C123.432 342.509 122.412 338.339 120.862 334.649C114.332 319.099 107.252 303.779 100.762 288.209C97.6419 280.709 95.4019 272.839 92.5319 264.469ZM139.242 302.339C146.602 299.859 152.512 295.659 157.322 290.019C164.992 281.009 170.012 271.199 169.452 258.589C168.872 245.569 169.522 232.429 170.532 219.409C171.152 211.359 169.952 204.009 166.542 195.759C157.322 231.719 148.362 266.729 139.242 302.339ZM201.502 202.029C201.652 201.559 201.942 200.819 202.142 200.059C206.462 182.899 211.652 166.029 218.982 149.869C219.452 148.829 219.652 147.439 219.412 146.339C218.252 141.029 217.082 135.699 215.572 130.489C214.192 125.739 212.902 125.479 209.152 128.609C208.632 129.039 208.152 129.529 207.672 130.009C197.072 140.469 191.092 153.779 184.992 166.999C184.532 168.009 184.832 169.709 185.382 170.789C190.652 181.189 196.052 191.509 201.502 202.029ZM55.132 250.719C55.372 250.719 55.612 250.719 55.852 250.719C55.852 257.259 55.782 263.799 55.912 270.339C55.932 271.519 56.452 273.089 57.312 273.789C63.712 279.019 73.382 278.949 79.562 273.569C81.222 272.119 83.442 269.979 83.422 268.179C83.382 262.929 83.282 257.339 81.492 252.509C77.012 240.409 71.622 228.639 66.512 216.779C66.022 215.639 64.982 214.739 64.192 213.719C63.102 214.629 61.652 215.319 60.972 216.469C57.222 222.859 54.242 229.439 55.032 237.239C55.502 241.689 55.132 246.219 55.132 250.719ZM239.352 207.409C223.302 245.539 212.602 284.879 211.932 326.479C234.802 289.929 236.582 248.549 239.352 207.409ZM220.782 153.549C220.432 153.569 220.072 153.589 219.722 153.609C219.452 154.069 219.092 154.489 218.922 154.979C213.482 170.919 208.002 186.839 202.742 202.829C202.112 204.729 202.492 207.119 202.912 209.179C204.512 217.169 206.582 225.069 207.912 233.089C208.492 236.549 209.502 238.649 213.152 238.999C216.812 239.359 218.812 237.329 219.822 234.229C220.782 231.269 221.592 228.219 222.082 225.149C224.812 207.779 223.632 190.349 222.612 172.929C222.232 166.459 221.402 160.009 220.782 153.549ZM407.212 253.349C407.582 252.829 408.032 252.339 408.322 251.769C420.172 229.239 428.182 205.419 430.032 180.009C430.602 172.249 427.762 164.239 426.452 156.349C426.162 154.629 425.732 152.929 425.372 151.209C412.192 184.059 412.512 219.069 407.212 253.349ZM196.892 229.839C192.242 257.699 189.352 284.899 189.782 312.619C191.582 311.079 193.292 309.469 194.092 307.489C196.492 301.579 198.712 295.579 200.692 289.509C205.782 273.939 207.922 257.959 206.662 241.589C206.552 240.189 206.252 238.469 205.372 237.529C202.962 234.989 200.192 232.789 196.892 229.839ZM154.362 121.189C145.452 126.439 143.402 135.939 139.142 143.999C138.902 144.459 139.062 145.369 139.382 145.839C145.252 154.409 151.182 162.949 157.142 171.549C165.422 161.579 169.082 142.299 154.362 121.189ZM110.812 141.749C106.362 141.809 102.712 144.989 101.702 149.389C99.732 158.009 97.8019 166.649 95.5119 175.189C94.5419 178.809 95.5519 181.409 98.2819 183.409C100.962 185.369 103.822 184.609 106.272 182.819C111.052 179.319 115.112 175.339 116.732 169.229C118.152 163.849 120.272 158.659 122.032 153.369C122.362 152.369 122.832 151.199 122.592 150.269C121.692 146.719 114.552 141.689 110.812 141.749ZM195.142 225.769C195.642 225.629 196.142 225.489 196.632 225.359C197.542 220.979 198.692 216.639 199.272 212.219C199.612 209.639 199.622 206.729 198.752 204.339C196.382 197.839 193.632 191.459 190.722 185.169C188.622 180.619 186.032 176.289 183.662 171.849C183.232 171.899 182.802 171.949 182.372 171.989C180.092 179.789 177.722 187.559 175.622 195.409C175.292 196.639 175.802 198.459 176.562 199.559C182.672 208.359 188.932 217.049 195.142 225.769ZM128.622 294.469C124.022 266.539 119.612 239.719 115.202 212.899C114.722 212.879 114.252 212.859 113.772 212.829C112.842 217.269 111.072 221.719 111.162 226.129C111.372 237.169 112.202 248.209 113.232 259.199C113.942 266.789 114.982 274.389 116.652 281.819C117.912 287.489 121.042 292.279 128.622 294.469ZM71.6819 179.449C69.9219 180.819 67.832 182.529 65.652 184.109C61.532 187.089 59.982 191.859 60.972 196.779C63.242 207.989 69.972 217.099 74.882 227.069C75.272 227.869 76.102 228.649 76.912 229.019C78.432 229.719 80.1019 230.109 81.7119 230.629C81.9319 229.019 82.622 227.299 82.292 225.809C78.872 210.439 75.2919 195.099 71.6819 179.449ZM402.992 264.449C401.872 265.869 401.132 266.969 400.232 267.919C394.652 273.869 389.902 281.149 383.212 285.349C375.772 290.019 375.472 295.159 377.282 302.129C378.352 306.259 379.162 310.459 380.122 314.769C389.682 310.299 401.622 279.809 402.992 264.449ZM137.792 146.999C129.582 157.349 129.582 157.349 135.112 168.249C135.482 168.979 135.812 169.729 136.152 170.469C138.762 176.099 141.362 181.739 144.592 188.729C148.652 183.449 152.112 179.019 155.442 174.499C155.782 174.039 155.602 172.839 155.222 172.289C149.502 163.879 143.702 155.529 137.792 146.999ZM64.552 182.749C69.472 180.009 72.922 176.039 73.242 168.839C73.472 163.699 76.512 158.689 78.292 153.629C78.632 152.659 79.422 151.549 79.192 150.739C77.012 143.099 74.282 135.679 68.552 129.879C67.682 128.999 65.7419 128.319 64.6819 128.669C62.0619 129.549 60.872 137.239 62.082 139.889C63.972 144.019 66.582 148.419 66.592 152.709C66.622 162.799 65.302 172.909 64.552 182.749ZM160.402 117.899C163.382 121.129 163.972 127.219 165.002 133.279C165.582 136.699 167.292 139.919 168.482 143.229C168.972 143.129 169.452 143.039 169.942 142.939C173.302 128.179 180.282 114.139 178.732 98.4095C178.322 98.1195 177.912 97.8195 177.502 97.5295C171.862 104.249 166.232 110.959 160.402 117.899ZM33.932 191.469C34.952 201.209 36.2119 211.269 40.9219 220.529C42.5119 223.659 43.672 223.679 45.822 220.929C52.792 212.009 54.402 201.919 52.552 191.459C46.502 191.469 40.532 191.469 33.932 191.469ZM129.392 137.239C118.902 122.999 109.032 115.799 103.392 117.719C105.222 121.389 107.102 125.089 108.922 128.829C110.502 132.089 109.742 134.529 106.282 135.959C103.262 137.209 102.582 139.559 103.162 143.049C111.922 137.489 118.442 141.119 123.952 148.339C125.972 144.219 127.702 140.699 129.392 137.239ZM82.812 220.049C88.792 201.909 87.8319 184.729 83.3319 167.109C73.5319 178.129 74.822 173.119 76.302 186.609C76.552 188.909 76.852 191.209 77.312 193.479C79.042 202.069 80.862 210.649 82.812 220.049ZM204.352 83.8395C207.382 84.1395 209.412 84.3395 211.442 84.5395C219.992 85.3795 224.602 83.0095 227.982 75.0795C229.382 71.7995 229.672 68.0195 230.252 64.4395C230.722 61.5695 228.752 60.3395 226.362 60.4495C224.572 60.5295 222.532 61.1895 221.112 62.2695C213.822 67.8195 209.692 75.8195 204.352 83.8395ZM141.622 50.6495C139.352 50.9495 136.832 51.2395 134.332 51.6095C127.092 52.6895 123.872 58.5395 127.702 64.8695C132.132 72.2095 137.352 79.0895 141.622 85.2795C141.622 74.4395 141.622 62.7295 141.622 50.6495ZM58.732 186.739C66.442 179.309 67.002 145.899 59.812 140.609C55.242 155.779 55.492 170.859 58.732 186.739ZM355.082 164.169C355.462 164.229 355.852 164.279 356.232 164.339C358.682 155.749 360.472 146.899 363.762 138.659C367.012 130.529 366.132 122.669 365.022 114.579C364.802 112.959 364.432 111.369 364.102 109.769C363.782 108.209 363.422 106.659 363.072 105.109C362.802 105.139 362.542 105.179 362.272 105.209C359.882 124.859 357.482 144.519 355.082 164.169ZM173.602 193.999C176.442 185.529 179.022 177.859 181.552 170.179C181.742 169.599 181.782 168.749 181.502 168.259C179.592 164.919 177.582 161.649 175.092 157.519C173.442 165.129 172.462 171.729 170.522 178.039C168.712 183.919 171.352 188.389 173.602 193.999ZM241.502 135.679C241.502 156.099 241.502 175.429 241.502 194.749C241.912 194.839 242.322 194.919 242.732 195.009C243.702 193.049 245.532 191.059 245.492 189.119C245.092 171.599 247.042 153.859 241.502 135.679ZM254.762 185.639C254.222 185.539 253.672 185.439 253.132 185.339C249.042 188.289 246.582 191.919 247.422 197.359C247.852 200.159 247.532 203.059 247.672 205.909C247.872 209.979 248.152 214.049 248.432 218.119C248.702 222.029 249.012 225.949 249.302 229.859C249.702 229.849 250.092 229.849 250.492 229.839C251.922 215.109 253.342 200.369 254.762 185.639ZM53.232 188.789C50.022 184.419 47.052 180.369 43.842 175.999C41.732 179.289 40.1219 181.789 38.2019 184.779C35.5819 180.009 38.202 174.609 34.372 171.219C33.792 176.649 33.7119 181.929 33.8819 187.209C33.9019 187.989 34.9619 189.179 35.7619 189.409C41.3519 191.039 46.952 191.199 53.232 188.789ZM50.302 302.659C53.862 294.549 53.832 286.719 54.242 278.869C54.522 273.529 51.3619 271.409 47.6319 268.989C45.8419 277.299 47.122 294.689 50.302 302.659ZM42.752 172.509C43.572 165.799 44.412 159.629 45.002 153.439C45.112 152.269 44.192 150.999 43.752 149.769C42.472 150.329 40.852 150.579 39.962 151.519C35.192 156.539 34.072 162.839 33.802 169.359C36.712 170.389 39.242 171.269 42.752 172.509ZM89.132 190.899C95.882 180.269 89.3719 170.339 89.5519 159.819C85.2919 162.859 84.842 166.129 85.742 170.279C87.172 176.899 87.972 183.659 89.132 190.899ZM53.532 270.619C53.532 258.919 53.532 247.959 53.532 236.999C53.132 236.949 52.742 236.889 52.342 236.839C51.042 244.659 50.0819 252.549 48.3319 260.259C47.2019 265.289 49.812 267.699 53.532 270.619ZM85.0519 237.159C85.0519 246.889 85.0519 256.749 85.0519 266.609C85.5819 266.829 86.1119 267.059 86.6419 267.279C88.2719 264.919 91.6019 262.239 91.2319 260.249C89.7819 252.369 87.1719 244.689 85.0519 237.159ZM277.202 172.109C279.472 157.149 281.682 142.539 283.902 127.859C278.552 130.879 275.552 150.669 277.202 172.109ZM58.832 199.859C54.422 207.679 53.332 215.469 55.542 221.629C57.892 218.099 60.332 214.549 62.622 210.909C63.052 210.229 63.272 209.049 62.972 208.359C61.762 205.549 60.312 202.849 58.832 199.859ZM93.2119 173.849C93.6719 173.879 94.1219 173.909 94.5819 173.929C96.4019 165.689 98.2319 157.449 100.052 149.209C99.6119 149.019 99.172 148.839 98.742 148.649C96.492 151.439 92.7519 154.019 92.3219 157.059C91.5719 162.509 92.8119 168.239 93.2119 173.849ZM169.752 149.619C167.162 158.969 166.352 167.969 168.602 177.169C170.252 171.299 171.362 165.329 172.892 159.469C173.902 155.609 172.862 152.669 169.752 149.619ZM131.852 305.149C133.882 304.009 136.142 303.519 136.562 302.369C138.732 296.379 140.442 290.209 142.302 284.109C140.072 285.939 138.782 288.179 137.112 290.089C135.442 292.009 133.312 293.529 131.552 295.389C131.012 295.959 130.802 297.069 130.862 297.909C131.012 299.909 131.392 301.909 131.852 305.149ZM201.632 212.269C201.242 212.319 200.852 212.369 200.462 212.419C199.802 215.449 199.132 218.479 198.492 221.519C197.242 227.359 199.722 231.669 206.282 234.289C204.682 226.709 203.162 219.489 201.632 212.269ZM79.1119 100.659C78.9119 101.049 78.712 101.449 78.512 101.839C85.322 106.229 92.1219 110.619 99.4119 115.319C97.4119 106.389 87.8519 99.7995 79.1119 100.659ZM172.762 219.779C172.322 219.769 171.872 219.759 171.432 219.739C171.432 231.979 171.432 244.209 171.432 256.449C174.272 244.299 174.152 232.059 172.762 219.779ZM118.502 290.849C119.392 293.879 120.232 297.149 121.312 300.339C123.192 305.929 123.542 306.069 130.442 304.429C129.482 301.589 129.242 298.159 127.422 296.189C125.202 293.799 121.662 292.649 118.502 290.849ZM255.262 211.809C254.762 211.829 254.262 211.859 253.762 211.879C253.812 224.869 248.752 237.679 253.542 250.829C254.112 237.819 254.692 224.809 255.262 211.809ZM155.822 227.789C156.062 227.819 156.292 227.859 156.532 227.889C159.422 216.419 162.412 204.979 165.062 193.449C165.452 191.769 164.142 189.699 163.622 187.819C163.372 187.919 163.112 188.019 162.862 188.119C160.512 201.339 158.172 214.559 155.822 227.789ZM74.492 172.589C82.942 167.099 84.302 161.579 78.672 154.799C77.352 160.379 76.042 165.969 74.492 172.589ZM84.7219 161.649C90.8219 157.709 89.5319 151.979 89.5319 146.119C80.3819 152.289 81.4819 150.609 84.7219 161.649ZM177.262 131.149C170.552 142.999 169.392 148.619 174.492 150.469C175.422 143.989 176.342 137.569 177.262 131.149ZM134.842 140.449C138.232 134.529 144.142 131.149 144.642 124.009C138.652 128.659 133.512 136.499 134.842 140.449ZM130.102 306.569C127.852 306.569 125.982 306.569 123.702 306.569C125.102 309.159 126.122 311.359 127.452 313.349C127.942 314.089 129.132 314.369 130.012 314.859C130.392 313.829 131.122 312.789 131.092 311.779C131.012 310.069 130.462 308.379 130.102 306.569ZM96.4119 264.229C95.9619 264.369 95.5219 264.519 95.0719 264.659C97.0419 270.619 99.0019 276.579 100.972 282.529C100.582 276.079 101.132 269.299 96.4119 264.229ZM103.602 136.039C108.702 132.239 108.532 128.089 103.602 122.719C103.602 127.039 103.602 131.209 103.602 136.039ZM430.162 165.939C430.542 165.889 430.932 165.829 431.312 165.779C430.672 159.309 431.062 152.649 428.392 146.559C427.852 146.659 427.302 146.749 426.762 146.849C427.902 153.199 429.032 159.569 430.162 165.939ZM81.242 244.499C81.502 244.479 81.762 244.459 82.022 244.429C82.022 240.549 82.022 236.659 82.022 232.809C80.302 232.389 78.802 232.029 76.772 231.529C78.392 236.199 79.812 240.349 81.242 244.499ZM171.382 204.219C175.222 197.839 170.422 193.929 168.322 189.349C166.792 194.689 170.442 198.859 171.382 204.219ZM165.712 187.949C166.182 187.969 166.642 187.979 167.112 187.999C166.542 182.949 165.972 177.899 165.392 172.839C165.032 172.869 164.662 172.909 164.302 172.939C164.812 177.939 161.762 183.179 165.712 187.949ZM127.392 155.189C128.042 155.519 128.702 155.849 129.352 156.169C131.102 152.189 135.482 149.499 135.642 144.729C135.152 144.479 134.652 144.229 134.162 143.979C131.912 147.719 129.652 151.449 127.392 155.189ZM162.122 131.049C162.532 124.469 160.322 119.899 155.622 118.039C158.042 122.869 160.082 126.959 162.122 131.049ZM151.942 115.549C150.712 112.529 149.592 109.779 148.472 107.039C148.272 107.109 148.082 107.189 147.882 107.259C147.882 110.499 147.882 113.739 147.882 117.409C149.392 116.719 150.542 116.189 151.942 115.549ZM133.352 141.419C132.742 141.129 132.142 140.839 131.532 140.549C129.522 144.139 127.522 147.729 125.512 151.329C125.942 151.559 126.372 151.799 126.802 152.029C128.982 148.499 131.172 144.959 133.352 141.419ZM108.062 223.229C108.442 223.249 108.822 223.259 109.212 223.279C109.212 217.689 109.212 212.099 109.212 206.509C109.162 206.499 109.102 206.489 109.052 206.479C108.712 212.059 108.382 217.649 108.062 223.229ZM109.492 229.829C109.062 229.839 108.632 229.849 108.192 229.849C108.562 235.059 108.932 240.279 109.302 245.489C109.362 245.469 109.432 245.459 109.492 245.439C109.492 240.249 109.492 235.039 109.492 229.829ZM54.622 201.379C56.302 198.779 58.322 196.189 54.622 193.369C54.622 196.239 54.622 198.809 54.622 201.379ZM38.3119 172.279C38.1219 175.759 37.9919 178.179 37.8619 180.599C39.3419 178.179 42.8919 175.939 38.3119 172.279ZM165.772 153.039C167.972 148.979 169.692 146.099 165.772 143.159C165.772 146.299 165.772 149.099 165.772 153.039ZM161.242 178.109C161.652 175.109 161.992 172.609 162.332 170.119C160.502 172.409 156.992 174.419 161.242 178.109ZM152.642 118.489C149.442 119.259 146.262 120.139 147.062 124.869C149.142 122.479 150.892 120.479 152.642 118.489Z" stroke="#ED1C24" stroke-width="2" stroke-miterlimit="10"/>
<path d="M380.072 102.819C384.412 99.1895 388.362 94.8995 393.172 92.0795C399.312 88.4895 404.922 90.1395 409.522 95.6695C415.082 102.359 417.422 110.529 419.432 118.739C421.052 125.349 422.152 132.079 423.572 138.739C424.552 143.339 424.472 147.459 422.392 152.109C415.272 168.059 412.482 185.159 410.622 202.409C408.722 220.019 407.342 237.709 404.652 255.209C403.852 260.409 399.772 265.319 396.532 269.899C391.072 277.619 384.142 283.929 375.342 289.359C374.522 282.919 373.732 277.049 373.032 271.179C368.332 232.089 367.322 192.859 368.522 153.529C368.662 149.039 368.822 144.469 368.252 140.039C367.202 131.949 369.572 124.709 372.722 117.539C373.542 115.679 374.212 113.749 374.942 111.859C376.642 108.849 378.352 105.839 380.072 102.819Z" stroke="#ED1C24" stroke-width="2" stroke-miterlimit="10"/>
<path d="M95.3319 64.1795C98.3719 63.0395 101.392 61.8495 104.442 60.7695C111.462 58.2695 118.492 55.8295 126.862 52.8795C122.852 62.0295 127.192 67.7995 131.732 73.4995C141.522 85.7995 146.712 99.6695 145.752 115.499C145.642 117.239 144.462 119.169 143.242 120.549C139.122 125.229 134.772 129.699 130.502 134.249C126.522 130.529 122.292 126.299 117.762 122.429C113.242 118.559 108.752 114.309 101.642 115.559C99.7519 109.719 96.9419 104.319 91.0919 101.749C87.5619 100.199 83.6119 99.3595 79.7719 98.8695C77.3419 98.5595 76.0919 97.7595 75.3919 95.5295C73.6019 89.8495 75.3519 84.8195 78.0119 79.8995C78.6519 78.7295 79.1819 77.4995 79.7719 76.2995C84.9619 72.2695 90.1419 68.2195 95.3319 64.1795Z" stroke="#ED1C24" stroke-width="2" stroke-miterlimit="10"/>
<path d="M557.332 271.349C556.682 272.289 556.022 273.229 555.372 274.169C554.292 274.599 553.172 274.929 552.152 275.469C541.702 280.919 530.882 282.089 520.492 276.129C510.442 270.369 507.562 260.129 506.562 249.319C506.452 248.109 507.202 246.709 507.832 245.559C511.162 239.469 514.342 233.279 518.032 227.409C521.642 221.669 525.502 216.039 529.832 210.829C533.062 206.949 536.302 207.509 539.142 211.779C540.492 213.799 541.672 216.029 542.432 218.329C546.882 231.759 551.342 245.179 555.442 258.719C556.662 262.749 556.732 267.129 557.332 271.349Z" stroke="#ED1C24" stroke-width="2" stroke-miterlimit="10"/>
<path d="M557.332 271.349C556.732 267.129 556.662 262.749 555.442 258.709C551.342 245.179 546.882 231.749 542.432 218.319C541.672 216.019 540.482 213.789 539.142 211.769C536.302 207.509 533.052 206.939 529.832 210.819C525.502 216.019 521.642 221.659 518.032 227.399C514.342 233.269 511.162 239.459 507.832 245.549C507.202 246.709 506.452 248.099 506.562 249.309C507.552 260.119 510.442 270.349 520.492 276.119C530.872 282.079 541.692 280.909 552.152 275.459C553.172 274.929 554.302 274.589 555.372 274.159C551.872 278.979 546.682 280.719 541.192 281.289C537.032 281.719 532.742 281.529 528.562 281.089C516.012 279.769 509.352 271.899 506.232 260.349C505.602 258.009 505.002 255.659 504.172 252.469C502.502 255.049 501.262 257.169 499.822 259.139C497.742 261.989 495.672 264.879 493.302 267.479C488.622 272.629 482.862 274.149 475.952 271.549C474.772 278.109 473.632 284.429 472.282 291.939C470.442 290.009 469.362 289.079 468.542 287.969C461.382 278.349 458.442 267.179 457.352 255.529C455.982 240.869 455.562 226.119 453.932 211.499C452.652 200.039 450.282 188.689 448.122 177.349C447.652 174.849 446.042 172.569 444.592 169.389C442.382 175.339 440.572 180.229 438.762 185.109C438.632 184.989 438.512 184.879 438.382 184.759C439.872 178.559 441.372 172.369 442.882 166.099C448.962 169.299 452.492 181.339 456.062 210.289C456.832 205.929 457.212 201.379 458.502 197.109C459.782 192.859 461.852 188.779 466.922 185.859C468.512 191.069 470.362 195.849 471.402 200.789C475.862 221.869 476.342 243.279 476.222 264.719C476.192 270.039 479.872 273.009 484.872 270.769C488.212 269.269 491.382 266.689 493.722 263.839C497.252 259.559 500.082 254.679 503.002 249.919C503.722 248.749 503.862 247.079 503.852 245.649C503.612 217.209 508.522 189.739 519.562 163.499C521.472 158.949 524.332 154.559 527.632 150.879C532.892 145.009 539.712 144.869 544.532 151.129C549.112 157.069 552.982 163.859 555.732 170.839C560.622 183.229 564.282 196.099 568.832 208.639C569.862 211.469 572.052 215.369 574.372 215.909C578.092 216.779 579.442 212.289 581.232 209.459C585.582 202.559 589.522 195.329 594.512 188.909C600.622 181.049 608.392 181.749 613.262 190.409C620.472 203.209 621.502 216.559 614.642 229.879C610.522 237.869 605.872 245.589 601.402 253.399C601.002 254.099 600.162 254.549 598.882 254.629C601.862 249.509 604.972 244.469 607.792 239.269C612.212 231.119 616.502 222.899 617.282 213.369C617.982 204.849 615.012 197.489 610.062 190.929C605.142 184.399 599.342 184.419 594.782 191.169C589.992 198.269 585.912 205.849 581.482 213.189C580.082 215.509 579.662 218.889 575.752 218.619C571.782 218.349 569.012 216.439 567.782 212.669C564.482 202.589 561.692 192.319 557.932 182.419C554.372 173.039 550.482 163.649 545.542 154.949C540.322 145.759 532.712 145.569 527.012 154.489C522.592 161.399 519.292 169.189 516.512 176.949C508.882 198.189 505.762 220.249 506.572 243.159C508.242 240.079 509.772 236.899 511.622 233.929C515.862 227.119 520.202 220.369 524.622 213.669C525.582 212.219 526.942 210.979 528.262 209.819C533.412 205.299 537.612 205.729 540.962 211.629C543.302 215.739 545.152 220.189 546.702 224.669C550.902 236.749 554.852 248.909 558.872 261.049C560.092 264.729 560.292 268.289 557.332 271.349ZM472.352 266.109C473.162 265.889 473.962 265.659 474.772 265.439C474.092 250.499 473.882 235.509 472.552 220.619C471.722 211.329 469.252 202.169 467.352 192.989C467.112 191.849 465.842 190.919 465.052 189.899C464.172 190.829 462.772 191.629 462.502 192.709C460.972 198.749 459.062 204.799 458.512 210.949C457.342 224.179 460.112 237.009 464.652 249.369C466.752 255.109 469.762 260.539 472.352 266.109ZM471.042 287.059C473.482 281.509 473.302 275.729 473.432 269.999C473.442 269.699 472.962 269.369 472.662 269.099C465.302 262.259 462.432 253.209 460.192 243.849C459.622 241.469 459.082 239.069 458.622 236.669C458.172 234.319 457.832 231.949 457.452 229.579C458.512 249.539 457.572 269.999 471.042 287.059Z" stroke="#ED1C24" stroke-width="2" stroke-miterlimit="10"/>
<path d="M1260.5 247.439C1259.34 247.499 1258.18 247.629 1257.02 247.619C1159.51 246.949 1062.01 246.079 964.502 245.699C931.732 245.569 898.922 245.919 866.212 247.549C843.522 248.679 820.862 251.759 798.352 255.119C778.242 258.119 758.652 257.989 739.502 250.769C727.932 246.409 716.482 241.699 705.072 236.919C699.972 234.779 695.622 235.769 691.882 239.329C688.242 242.799 685.012 246.689 681.562 250.359C680.352 251.649 679.132 252.959 677.742 254.039C672.662 258.009 666.952 257.839 662.872 252.829C659.922 249.199 657.952 244.759 655.642 240.619C654.722 238.959 654.172 237.099 653.262 235.429C649.642 228.769 645.352 227.929 640.092 233.529C635.352 238.579 631.482 244.439 626.932 249.679C622.412 254.889 618.012 260.369 612.692 264.679C606.762 269.479 600.702 268.339 594.912 262.609C595.762 260.859 596.652 258.989 597.892 256.439C598.682 266.179 604.442 269.219 611.442 263.489C617.252 258.729 621.732 252.359 626.792 246.689C631.862 241.019 636.512 234.889 642.092 229.779C647.762 224.589 651.302 225.829 654.562 232.799C657.152 238.329 659.242 244.179 662.532 249.259C666.862 255.929 672.482 256.239 678.342 250.809C682.342 247.099 685.832 242.829 689.942 239.269C698.112 232.219 701.472 233.179 708.972 236.909C729.842 247.269 751.622 255.469 775.282 255.629C785.412 255.699 795.612 253.679 805.682 252.009C829.292 248.099 853.052 245.689 876.942 245.469C954.092 244.729 1031.25 244.049 1108.4 244.029C1157.56 244.019 1206.72 245.229 1255.87 245.899C1257.44 245.919 1259.01 246.049 1260.58 246.129C1260.59 246.579 1260.55 247.009 1260.5 247.439Z" stroke="#ED1C24" stroke-width="2" stroke-miterlimit="10"/>
<path d="M163.622 8.60946C164.122 8.48946 164.632 8.36946 164.462 8.40946C159.922 14.7795 154.612 21.1695 150.532 28.2795C147.332 33.8495 145.772 40.3495 143.222 46.3195C142.672 47.6095 141.162 48.9895 139.832 49.3395C136.982 50.0795 133.952 50.1795 129.952 50.6695C133.572 44.7695 136.802 39.5295 140.002 34.2795C141.262 32.2195 142.452 30.1195 143.672 28.0395C150.332 21.5595 156.982 15.0795 163.622 8.60946Z" stroke="#ED1C24" stroke-width="2" stroke-miterlimit="10"/>
<path d="M287.952 132.559C289.772 139.869 292.332 147.089 293.262 154.509C295.162 169.639 296.252 184.869 297.542 200.069C298.772 214.599 299.742 229.159 304.032 243.229C304.372 244.339 304.802 245.429 305.222 246.579C313.652 241.759 314.472 241.889 317.972 251.139C321.822 261.319 321.972 271.949 320.492 282.609C318.142 299.569 313.372 315.649 302.152 329.079C294.492 338.259 287.912 337.609 283.852 326.549C280.932 318.609 279.172 310.009 278.422 301.559C276.962 285.149 276.572 268.639 275.742 252.179C276.092 252.149 276.452 252.119 276.802 252.089C277.852 258.969 278.892 265.849 279.942 272.729C280.442 272.719 280.942 272.699 281.442 272.689C281.552 271.359 281.842 270.019 281.732 268.699C280.462 252.399 278.812 236.129 277.952 219.809C277.402 209.369 277.282 198.799 278.252 188.409C279.792 172.019 282.382 155.729 284.612 139.409C284.922 137.149 285.732 134.949 286.312 132.729C286.852 132.679 287.402 132.619 287.952 132.559Z" stroke="#ED1C24" stroke-width="2" stroke-miterlimit="10"/>
<path d="M84.232 274.019C88.432 305.369 94.982 336.009 111.572 363.909C104.282 368.019 96.592 370.409 88.562 372.049C77.112 374.379 65.752 374.149 54.532 371.099C37.632 366.499 30.822 349.529 39.842 333.689C43.722 326.879 48.992 320.869 53.562 314.439C61.462 303.349 69.282 292.199 77.192 281.119C79.052 278.509 81.152 276.059 83.132 273.529C83.502 273.699 83.872 273.859 84.232 274.019Z" stroke="#ED1C24" stroke-width="2" stroke-miterlimit="10"/>
<path d="M129.322 160.219C133.962 170.139 138.562 179.949 143.362 190.189C149.572 187.409 153.162 181.749 157.552 176.779C160.122 179.589 161.062 182.539 160.502 186.189C156.472 212.279 153.262 238.549 145.572 263.899C143.032 272.289 138.922 280.219 135.262 288.229C134.422 290.069 132.472 291.409 130.562 293.489C125.622 264.439 120.812 236.199 116.012 207.949C115.572 207.879 115.132 207.809 114.692 207.739C113.852 209.679 113.002 211.619 112.162 213.559C113.512 194.579 111.802 174.709 129.322 160.219Z" stroke="#ED1C24" stroke-width="2" stroke-miterlimit="10"/>
<path d="M200.622 86.5895C198.992 89.4495 197.372 92.3095 195.742 95.1695C196.062 95.5795 196.392 95.9895 196.712 96.3995C199.422 86.3895 205.902 85.3695 214.622 86.3195C222.432 87.1695 228.722 81.0195 230.712 73.2095C231.282 70.9795 231.642 68.6995 232.102 66.4395C232.472 66.3595 232.842 66.2895 233.212 66.2095C234.382 70.8595 236.212 75.4495 236.612 80.1595C237.892 95.0995 238.662 110.079 239.562 125.049C239.612 125.819 239.172 127.099 238.602 127.359C230.802 130.989 226.122 137.659 221.442 144.919C219.402 137.619 217.472 130.719 215.362 123.189C196.482 132.139 190.482 149.429 182.782 166.259C180.352 162.199 178.092 158.559 176.012 154.819C175.622 154.119 175.872 152.999 176.002 152.089C177.192 143.449 178.492 134.829 179.602 126.179C180.802 116.859 181.872 107.509 182.902 98.1695C183.292 94.5995 185.042 92.2195 188.312 90.7895C192.232 89.0695 196.112 87.2395 200.002 85.4495C200.202 85.8395 200.412 86.2195 200.622 86.5895Z" stroke="#ED1C24" stroke-width="2" stroke-miterlimit="10"/>
<path d="M195.522 345.899C194.182 343.269 193.062 341.829 192.682 340.209C191.502 335.179 190.402 330.109 189.662 324.999C188.992 320.319 189.932 316.399 192.832 311.929C197.262 305.109 199.962 296.999 202.492 289.149C207.502 273.619 210.002 257.629 208.972 241.809C212.142 241.409 216.082 242.069 217.692 240.439C220.282 237.819 222.082 233.849 222.912 230.159C226.172 215.799 225.952 201.149 225.072 186.569C224.362 174.879 222.872 163.229 221.722 151.569C221.692 151.299 221.592 151.029 221.592 150.759C221.502 146.699 231.632 132.869 235.562 131.879C238.782 131.069 240.102 132.729 240.132 135.809C240.262 146.309 240.422 156.819 240.572 167.319C240.592 168.959 240.512 170.599 240.582 172.229C241.332 188.429 239.332 203.799 232.442 219.019C222.922 240.029 217.732 262.639 214.062 285.399C211.812 299.339 211.272 313.549 209.822 327.619C209.622 329.509 209.022 331.709 207.822 333.079C204.132 337.349 200.052 341.259 195.522 345.899Z" stroke="#ED1C24" stroke-width="2" stroke-miterlimit="10"/>
<path d="M366.402 135.879C366.402 153.249 366.502 169.479 366.382 185.709C366.122 219.329 368.332 252.789 373.282 286.039C373.792 289.469 373.112 291.159 369.702 292.389C361.402 295.399 355.022 293.149 351.172 284.979C346.212 274.459 345.032 263.329 346.312 251.829C348.722 230.289 350.482 208.659 353.622 187.219C355.552 174.069 359.472 161.209 362.622 148.249C363.572 144.369 364.942 140.589 366.402 135.879Z" stroke="#ED1C24" stroke-width="2" stroke-miterlimit="10"/>
<path d="M28.8219 170.929C27.6519 171.169 26.4819 171.409 24.8719 171.739C24.7519 162.559 26.4219 153.859 29.6019 145.449C35.7419 129.279 46.6019 116.729 60.1919 106.379C62.1219 104.909 64.3819 103.839 66.5719 102.749C71.7919 100.149 76.3319 99.4795 80.9019 104.859C83.8719 108.359 88.5619 110.409 92.5319 113.039C94.6619 114.449 96.8919 115.709 99.2519 117.149C93.8519 123.399 91.7419 130.549 90.9419 138.099C90.5119 142.139 89.3819 145.379 85.3619 147.109C84.0319 147.679 82.922 148.779 81.492 149.789C77.982 140.069 74.412 130.649 64.882 124.679C52.8619 143.069 53.6419 163.719 52.9219 184.629C49.8719 181.029 47.202 178.139 44.912 174.989C44.332 174.199 44.862 172.519 45.052 171.269C45.892 165.769 47.152 160.299 47.482 154.769C47.612 152.609 45.6719 150.319 44.6719 148.089C42.3419 149.189 38.922 149.689 37.892 151.519C35.412 155.909 33.7019 160.839 32.3719 165.739C31.7019 168.209 31.282 170.239 28.642 171.069L28.8219 170.929Z" stroke="#ED1C24" stroke-width="2" stroke-miterlimit="10"/>
<path d="M230.002 58.8695C222.612 56.4095 218.412 60.7595 214.812 65.1595C210.862 69.9795 207.642 75.4095 204.292 80.6995C203.062 82.6395 201.782 83.6695 199.412 84.3595C194.502 85.7795 189.832 88.0395 184.782 90.0695C185.942 82.1795 187.262 74.4295 188.192 66.6495C189.972 51.7695 192.372 36.8995 189.902 21.8595C188.652 14.2595 185.672 7.79946 178.102 4.34946C181.552 2.36946 187.042 2.32946 191.792 4.05946C200.292 7.14946 206.662 13.0295 212.162 19.9095C220.592 30.4695 227.112 42.0195 229.632 55.4995C229.802 56.3995 229.832 57.3295 230.002 58.8695Z" stroke="#ED1C24" stroke-width="2" stroke-miterlimit="10"/>
<path d="M158.172 52.5095C155.922 51.6595 153.722 50.6295 151.402 50.0195C149.212 49.4495 146.892 49.3195 144.092 48.9195C148.822 31.7595 156.002 16.7095 171.052 6.68947C175.032 4.03947 181.762 6.21947 184.062 11.5595C186.232 16.5895 187.862 22.1495 188.282 27.5795C189.902 48.5495 186.552 69.1695 182.832 89.7195C182.642 90.7795 182.062 91.7695 181.152 92.7595C178.802 81.1895 177.072 69.5995 168.562 60.6895C165.112 57.9595 161.642 55.2295 158.172 52.5095Z" stroke="#ED1C24" stroke-width="2" stroke-miterlimit="10"/>
<path d="M245.512 196.029C245.612 197.179 245.722 198.329 245.822 199.479C246.902 212.919 248.312 226.339 248.912 239.799C249.192 246.139 248.102 252.569 247.312 258.909C245.032 277.019 243.032 295.189 240.042 313.189C238.382 323.199 235.212 332.999 232.232 342.739C230.882 347.159 228.422 351.839 222.902 351.789C217.442 351.739 215.872 346.879 214.272 342.639C211.972 336.539 211.812 331.119 216.062 325.119C224.902 312.639 229.522 298.149 232.942 283.349C238.852 257.719 240.442 231.609 241.402 205.419C241.522 202.169 243.222 198.969 244.192 195.739C244.622 195.839 245.062 195.929 245.512 196.029Z" stroke="#ED1C24" stroke-width="2" stroke-miterlimit="10"/>
<path d="M173.952 201.089C181.432 210.519 188.372 219.209 195.222 227.989C195.782 228.709 195.982 230.039 195.802 230.989C190.682 258.059 188.232 285.419 186.802 312.899C186.802 312.979 186.622 313.049 185.662 313.829C183.742 311.409 181.192 309.249 179.982 306.499C173.312 291.289 170.162 275.599 173.352 258.869C176.252 243.639 176.112 228.279 173.612 212.919C173.002 209.199 173.792 205.269 173.952 201.089Z" stroke="#ED1C24" stroke-width="2" stroke-miterlimit="10"/>
<path d="M158.172 52.5095C161.642 55.2395 165.112 57.9595 168.572 60.6895C174.052 69.6595 177.052 79.4295 178.342 89.8395C178.762 93.2195 177.892 95.1695 175.152 97.3495C169.402 101.909 164.102 107.059 158.782 112.139C157.652 113.219 157.232 115.039 155.762 116.029C144.912 94.7695 139.342 73.7695 144.062 50.2095C148.912 50.9895 153.542 51.7495 158.172 52.5095Z" stroke="#ED1C24" stroke-width="2" stroke-miterlimit="10"/>
<path d="M92.532 264.469C95.402 272.849 97.642 280.709 100.762 288.199C107.242 303.769 114.322 319.089 120.862 334.639C122.412 338.329 123.422 342.509 123.542 346.489C123.752 353.899 120.022 359.399 112.662 363.329C109.542 356.769 106.192 350.429 103.462 343.839C94.502 322.199 89.162 299.619 86.082 276.419C85.292 270.579 88.922 268.229 92.532 264.469Z" stroke="#ED1C24" stroke-width="2" stroke-miterlimit="10"/>
<path d="M139.242 302.339C148.362 266.719 157.322 231.719 166.522 195.759C169.932 204.009 171.132 211.359 170.512 219.409C169.512 232.429 168.852 245.559 169.432 258.589C169.992 271.189 164.982 280.999 157.302 290.019C152.522 295.659 146.602 299.869 139.242 302.339Z" stroke="#ED1C24" stroke-width="2" stroke-miterlimit="10"/>
<path d="M201.502 202.029C196.052 191.509 190.652 181.179 185.382 170.789C184.832 169.709 184.532 168.009 184.992 166.999C191.092 153.789 197.072 140.469 207.672 130.009C208.152 129.529 208.632 129.039 209.152 128.609C212.902 125.469 214.192 125.729 215.572 130.489C217.092 135.709 218.262 141.029 219.412 146.339C219.652 147.439 219.452 148.829 218.982 149.869C211.652 166.029 206.452 182.889 202.142 200.059C201.942 200.829 201.652 201.559 201.502 202.029Z" stroke="#ED1C24" stroke-width="2" stroke-miterlimit="10"/>
<path d="M55.1319 250.719C55.1319 246.219 55.5019 241.689 55.0519 237.239C54.2519 229.429 57.2319 222.849 60.9919 216.469C61.6719 215.319 63.1219 214.619 64.2119 213.719C65.0019 214.729 66.0419 215.639 66.5319 216.779C71.6419 228.649 77.0319 240.409 81.5119 252.509C83.3019 257.339 83.3919 262.929 83.4419 268.179C83.4519 269.979 81.2419 272.119 79.5819 273.569C73.4019 278.949 63.7319 279.019 57.3319 273.789C56.4719 273.089 55.9519 271.519 55.9319 270.339C55.8019 263.799 55.8719 257.259 55.8719 250.719C55.6019 250.719 55.3619 250.719 55.1319 250.719Z" stroke="#ED1C24" stroke-width="2" stroke-miterlimit="10"/>
<path d="M239.352 207.409C236.582 248.559 234.802 289.929 211.932 326.479C212.602 284.869 223.302 245.539 239.352 207.409Z" stroke="#ED1C24" stroke-width="2" stroke-miterlimit="10"/>
<path d="M220.782 153.549C221.402 160.009 222.232 166.469 222.612 172.939C223.632 190.349 224.812 207.789 222.082 225.159C221.602 228.229 220.782 231.279 219.822 234.239C218.822 237.349 216.812 239.369 213.152 239.009C209.512 238.659 208.492 236.559 207.912 233.099C206.572 225.069 204.512 217.169 202.912 209.189C202.502 207.129 202.122 204.739 202.742 202.839C207.992 186.839 213.482 170.919 218.922 154.989C219.092 154.499 219.452 154.079 219.722 153.619C220.072 153.589 220.432 153.569 220.782 153.549Z" stroke="#ED1C24" stroke-width="2" stroke-miterlimit="10"/>
<path d="M100.802 246.359C98.542 250.329 96.292 254.289 93.412 259.369C91.132 251.379 89.282 244.389 87.132 237.499C85.722 232.959 85.882 228.839 87.392 224.189C89.052 219.109 89.212 213.529 89.862 208.149C90.892 199.579 91.792 190.979 92.652 183.209C97.082 184.309 100.702 186.279 103.872 185.699C107.292 185.079 110.282 182.079 113.442 180.129C111.962 186.699 110.082 193.469 108.962 200.359C107.762 207.729 106.442 215.239 106.682 222.639C106.972 231.389 103.632 238.799 100.662 246.489C100.672 246.479 100.802 246.359 100.802 246.359Z" stroke="#ED1C24" stroke-width="2" stroke-miterlimit="10"/>
<path d="M28.6619 171.069C29.5919 171.119 30.5119 171.169 31.4219 171.229C32.8419 190.169 30.2419 209.809 43.3619 227.329C46.8219 222.529 49.6319 218.619 53.1219 213.779C53.1219 219.519 53.7919 224.449 52.9819 229.119C51.1919 239.569 48.6719 249.889 46.4419 260.259C46.3619 260.649 46.1419 261.009 45.6719 262.189C43.5919 259.059 41.6119 256.449 40.0319 253.619C28.9219 233.779 22.5719 212.519 22.4619 189.729C22.4419 184.539 24.5619 179.309 25.9919 174.179C26.3419 172.929 27.8519 172.009 28.8219 170.939C28.8219 170.929 28.6619 171.069 28.6619 171.069Z" stroke="#ED1C24" stroke-width="2" stroke-miterlimit="10"/>
<path d="M118.582 304.419C119.842 305.749 121.262 306.969 122.332 308.439C124.332 311.179 126.002 314.169 128.082 316.849C128.792 317.769 130.312 318.059 132.262 319.039C133.012 324.869 134.322 331.719 134.672 338.619C135.232 349.759 135.412 360.939 135.162 372.089C135.102 374.799 133.332 378.659 131.202 379.749C129.642 380.549 125.722 378.219 123.702 376.359C120.132 373.069 117.202 369.079 113.802 365.149C115.292 363.849 116.382 362.909 117.462 361.939C124.512 355.589 127.452 347.839 123.972 338.769C120.262 329.119 115.802 319.769 111.722 310.259C109.642 305.419 107.682 300.519 105.782 295.929C109.262 298.319 112.772 300.729 116.272 303.129C117.042 303.559 117.812 303.989 118.582 304.419Z" stroke="#ED1C24" stroke-width="2" stroke-miterlimit="10"/>
<path d="M407.212 253.349C412.512 219.079 412.192 184.059 425.382 151.219C425.742 152.929 426.172 154.629 426.462 156.359C427.772 164.249 430.602 172.259 430.042 180.019C428.192 205.429 420.182 229.249 408.332 251.779C408.032 252.329 407.582 252.819 407.212 253.349Z" stroke="#ED1C24" stroke-width="2" stroke-miterlimit="10"/>
<path d="M196.892 229.839C200.192 232.779 202.962 234.989 205.362 237.529C206.242 238.469 206.542 240.189 206.652 241.589C207.922 257.959 205.772 273.939 200.682 289.509C198.702 295.579 196.482 301.579 194.082 307.489C193.282 309.469 191.572 311.089 189.772 312.619C189.352 284.909 192.242 257.699 196.892 229.839Z" stroke="#ED1C24" stroke-width="2" stroke-miterlimit="10"/>
<path d="M154.362 121.189C169.082 142.309 165.422 161.579 157.142 171.549C151.182 162.949 145.262 154.409 139.382 145.839C139.062 145.369 138.902 144.449 139.142 143.999C143.402 135.939 145.452 126.439 154.362 121.189Z" stroke="#ED1C24" stroke-width="2" stroke-miterlimit="10"/>
<path d="M110.812 141.749C114.542 141.699 121.682 146.719 122.602 150.269C122.842 151.199 122.372 152.369 122.042 153.369C120.282 158.659 118.162 163.849 116.742 169.229C115.132 175.339 111.062 179.329 106.282 182.819C103.832 184.619 100.972 185.379 98.2919 183.409C95.5619 181.409 94.5519 178.809 95.5219 175.189C97.8019 166.649 99.7419 158.009 101.712 149.389C102.712 144.979 106.362 141.809 110.812 141.749Z" stroke="#ED1C24" stroke-width="2" stroke-miterlimit="10"/>
<path d="M195.142 225.769C188.932 217.049 182.672 208.359 176.572 199.559C175.812 198.459 175.302 196.639 175.632 195.409C177.732 187.559 180.102 179.789 182.382 171.989C182.812 171.939 183.242 171.889 183.672 171.849C186.042 176.279 188.632 180.609 190.732 185.169C193.632 191.459 196.392 197.839 198.762 204.339C199.632 206.729 199.622 209.639 199.282 212.219C198.702 216.639 197.552 220.979 196.642 225.359C196.132 225.499 195.632 225.629 195.142 225.769Z" stroke="#ED1C24" stroke-width="2" stroke-miterlimit="10"/>
<path d="M128.622 294.469C121.042 292.269 117.912 287.489 116.642 281.829C114.982 274.399 113.932 266.799 113.222 259.209C112.192 248.209 111.372 237.169 111.152 226.139C111.062 221.719 112.832 217.269 113.762 212.839C114.242 212.859 114.712 212.879 115.192 212.909C119.612 239.719 124.032 266.539 128.622 294.469Z" stroke="#ED1C24" stroke-width="2" stroke-miterlimit="10"/>
<path d="M118.582 304.419C117.812 303.989 117.042 303.559 116.272 303.139C105.562 294.589 103.792 281.959 101.012 269.789C100.352 266.889 99.7919 263.959 99.1619 260.909C97.4419 260.999 96.002 261.079 94.562 261.159C96.682 256.149 98.742 251.249 100.812 246.359C100.812 246.359 100.682 246.489 100.672 246.489C102.412 243.449 104.162 240.419 105.922 237.349C107.182 245.839 108.002 254.419 109.802 262.789C112.592 275.759 116.072 288.589 119.162 301.499C119.382 302.379 118.792 303.439 118.582 304.419Z" stroke="#ED1C24" stroke-width="2" stroke-miterlimit="10"/>
<path d="M71.6819 179.449C75.2919 195.099 78.8719 210.439 82.2919 225.809C82.6219 227.299 81.9319 229.009 81.7119 230.629C80.1019 230.109 78.4419 229.719 76.9119 229.019C76.1019 228.649 75.2719 227.869 74.8819 227.069C69.9719 217.099 63.2419 207.989 60.9719 196.779C59.9719 191.859 61.5319 187.099 65.6519 184.109C67.8419 182.529 69.9219 180.819 71.6819 179.449Z" stroke="#ED1C24" stroke-width="2" stroke-miterlimit="10"/>
<path d="M402.992 264.449C401.612 279.809 389.682 310.289 380.132 314.769C379.172 310.459 378.372 306.259 377.292 302.129C375.482 295.159 375.782 290.019 383.222 285.349C389.912 281.149 394.662 273.869 400.242 267.919C401.132 266.969 401.872 265.879 402.992 264.449Z" stroke="#ED1C24" stroke-width="2" stroke-miterlimit="10"/>
<path d="M137.792 146.999C143.702 155.529 149.502 163.889 155.232 172.289C155.612 172.849 155.792 174.049 155.452 174.499C152.122 179.019 148.662 183.449 144.602 188.729C141.372 181.729 138.762 176.099 136.162 170.469C135.822 169.729 135.492 168.979 135.122 168.249C129.582 157.339 129.582 157.339 137.792 146.999Z" stroke="#ED1C24" stroke-width="2" stroke-miterlimit="10"/>
<path d="M64.5519 182.749C65.3019 172.909 66.6219 162.809 66.5919 152.699C66.5819 148.409 63.9719 144.019 62.0819 139.879C60.8719 137.229 62.0619 129.549 64.6819 128.659C65.7419 128.299 67.6819 128.989 68.5519 129.869C74.2819 135.669 77.0119 143.089 79.1919 150.729C79.4219 151.539 78.6319 152.649 78.2919 153.619C76.5119 158.689 73.4719 163.699 73.2419 168.829C72.9119 176.029 69.4719 180.009 64.5519 182.749Z" stroke="#ED1C24" stroke-width="2" stroke-miterlimit="10"/>
<path d="M160.402 117.899C166.232 110.959 171.862 104.249 177.502 97.5295C177.912 97.8195 178.322 98.1195 178.732 98.4095C180.282 114.139 173.302 128.179 169.942 142.939C169.452 143.039 168.972 143.129 168.482 143.229C167.282 139.919 165.582 136.689 165.002 133.279C163.972 127.219 163.382 121.129 160.402 117.899Z" stroke="#ED1C24" stroke-width="2" stroke-miterlimit="10"/>
<path d="M33.9319 191.469C40.5319 191.469 46.5019 191.469 52.5419 191.469C54.3919 201.929 52.7919 212.019 45.8119 220.939C43.6619 223.689 42.5019 223.659 40.9119 220.539C36.2119 211.259 34.9619 201.209 33.9319 191.469Z" stroke="#ED1C24" stroke-width="2" stroke-miterlimit="10"/>
<path d="M129.392 137.239C127.692 140.699 125.972 144.229 123.952 148.349C118.432 141.129 111.922 137.499 103.162 143.059C102.582 139.559 103.262 137.219 106.282 135.969C109.742 134.539 110.502 132.089 108.922 128.839C107.102 125.099 105.222 121.399 103.392 117.729C109.032 115.799 118.902 122.999 129.392 137.239Z" stroke="#ED1C24" stroke-width="2" stroke-miterlimit="10"/>
<path d="M82.812 220.049C80.862 210.649 79.042 202.069 77.312 193.479C76.852 191.209 76.562 188.909 76.302 186.609C74.822 173.119 73.532 178.129 83.332 167.109C87.832 184.729 88.792 201.909 82.812 220.049Z" stroke="#ED1C24" stroke-width="2" stroke-miterlimit="10"/>
<path d="M204.352 83.8395C209.702 75.8195 213.832 67.8195 221.112 62.2695C222.532 61.1895 224.572 60.5295 226.362 60.4495C228.752 60.3395 230.722 61.5695 230.252 64.4395C229.672 68.0195 229.382 71.8095 227.982 75.0795C224.592 82.9995 219.992 85.3795 211.442 84.5395C209.412 84.3395 207.382 84.1395 204.352 83.8395Z" stroke="#ED1C24" stroke-width="2" stroke-miterlimit="10"/>
<path d="M141.622 50.6495C141.622 62.7295 141.622 74.4295 141.622 85.2895C137.352 79.0895 132.132 72.2195 127.702 64.8795C123.882 58.5495 127.102 52.6995 134.332 51.6195C136.842 51.2495 139.352 50.9495 141.622 50.6495Z" stroke="#ED1C24" stroke-width="2" stroke-miterlimit="10"/>
<path d="M58.732 186.739C55.492 170.859 55.242 155.789 59.812 140.609C67.012 145.899 66.442 179.309 58.732 186.739Z" stroke="#ED1C24" stroke-width="2" stroke-miterlimit="10"/>
<path d="M355.082 164.169C357.482 144.509 359.882 124.859 362.282 105.199C362.552 105.169 362.812 105.129 363.082 105.099C363.422 106.649 363.792 108.199 364.112 109.759C364.442 111.359 364.812 112.959 365.032 114.569C366.132 122.669 367.012 130.529 363.772 138.649C360.472 146.899 358.682 155.749 356.242 164.329C355.852 164.289 355.462 164.229 355.082 164.169Z" stroke="#ED1C24" stroke-width="2" stroke-miterlimit="10"/>
<path d="M173.602 193.999C171.352 188.389 168.712 183.919 170.522 178.029C172.462 171.729 173.442 165.129 175.092 157.509C177.572 161.639 179.592 164.919 181.502 168.249C181.782 168.749 181.752 169.589 181.552 170.169C179.022 177.859 176.432 185.529 173.602 193.999Z" stroke="#ED1C24" stroke-width="2" stroke-miterlimit="10"/>
<path d="M241.502 135.679C247.052 153.859 245.092 171.599 245.492 189.119C245.532 191.059 243.702 193.049 242.732 195.009C242.322 194.919 241.912 194.839 241.502 194.749C241.502 175.429 241.502 156.099 241.502 135.679Z" stroke="#ED1C24" stroke-width="2" stroke-miterlimit="10"/>
<path d="M254.762 185.639C253.342 200.369 251.912 215.109 250.492 229.839C250.092 229.849 249.702 229.849 249.302 229.859C249.012 225.949 248.702 222.039 248.432 218.119C248.152 214.049 247.862 209.979 247.672 205.909C247.532 203.059 247.862 200.149 247.422 197.359C246.582 191.909 249.042 188.289 253.132 185.339C253.672 185.439 254.222 185.539 254.762 185.639Z" stroke="#ED1C24" stroke-width="2" stroke-miterlimit="10"/>
<path d="M53.232 188.789C46.952 191.199 41.352 191.039 35.752 189.419C34.952 189.189 33.902 187.989 33.872 187.219C33.702 181.949 33.782 176.669 34.362 171.229C38.202 174.619 35.572 180.019 38.192 184.789C40.112 181.799 41.722 179.299 43.832 176.009C47.052 180.369 50.022 184.419 53.232 188.789Z" stroke="#ED1C24" stroke-width="2" stroke-miterlimit="10"/>
<path d="M50.3019 302.659C47.1219 294.689 45.8419 277.299 47.6319 268.989C51.3519 271.409 54.5219 273.539 54.2419 278.869C53.8319 286.719 53.8619 294.549 50.3019 302.659Z" stroke="#ED1C24" stroke-width="2" stroke-miterlimit="10"/>
<path d="M42.7519 172.509C39.2419 171.269 36.7119 170.379 33.8019 169.359C34.0719 162.849 35.1919 156.549 39.9619 151.519C40.8519 150.579 42.4719 150.339 43.7519 149.769C44.1919 150.999 45.1119 152.269 45.0019 153.439C44.4219 159.629 43.5719 165.799 42.7519 172.509Z" stroke="#ED1C24" stroke-width="2" stroke-miterlimit="10"/>
<path d="M100.442 138.559C97.912 139.779 95.372 140.989 92.792 142.229C91.542 134.249 95.462 122.289 100.882 118.539C101.762 125.459 102.772 132.019 100.432 138.589C100.442 138.579 100.442 138.559 100.442 138.559Z" stroke="#ED1C24" stroke-width="2" stroke-miterlimit="10"/>
<path d="M89.1319 190.899C87.9719 183.659 87.1719 176.899 85.7419 170.279C84.8419 166.129 85.2919 162.859 89.5519 159.819C89.3719 170.339 95.8819 180.269 89.1319 190.899Z" stroke="#ED1C24" stroke-width="2" stroke-miterlimit="10"/>
<path d="M53.5319 270.619C49.8119 267.689 47.2019 265.289 48.3319 260.259C50.0719 252.549 51.0419 244.649 52.3419 236.839C52.7419 236.889 53.1319 236.949 53.5319 236.999C53.5319 247.959 53.5319 258.919 53.5319 270.619Z" stroke="#ED1C24" stroke-width="2" stroke-miterlimit="10"/>
<path d="M85.0519 237.159C87.1719 244.689 89.7819 252.369 91.2319 260.249C91.6019 262.239 88.2719 264.919 86.6419 267.279C86.1119 267.059 85.5819 266.829 85.0519 266.609C85.0519 256.749 85.0519 246.889 85.0519 237.159Z" stroke="#ED1C24" stroke-width="2" stroke-miterlimit="10"/>
<path d="M277.202 172.109C275.552 150.679 278.552 130.889 283.902 127.859C281.682 142.539 279.472 157.139 277.202 172.109Z" stroke="#ED1C24" stroke-width="2" stroke-miterlimit="10"/>
<path d="M58.8319 199.859C60.3119 202.859 61.7619 205.559 62.9719 208.359C63.2719 209.049 63.0519 210.229 62.6219 210.909C60.3319 214.549 57.8919 218.099 55.5419 221.629C53.3219 215.469 54.4219 207.679 58.8319 199.859Z" stroke="#ED1C24" stroke-width="2" stroke-miterlimit="10"/>
<path d="M93.2119 173.849C92.8019 168.239 91.5619 162.509 92.3219 157.069C92.7419 154.029 96.4919 151.449 98.7419 148.659C99.1819 148.849 99.6219 149.029 100.052 149.219C98.2319 157.459 96.4019 165.699 94.5819 173.939C94.1319 173.899 93.6719 173.879 93.2119 173.849Z" stroke="#ED1C24" stroke-width="2" stroke-miterlimit="10"/>
<path d="M169.752 149.619C172.862 152.679 173.902 155.609 172.892 159.479C171.362 165.339 170.252 171.309 168.602 177.179C166.352 167.969 167.172 158.969 169.752 149.619Z" stroke="#ED1C24" stroke-width="2" stroke-miterlimit="10"/>
<path d="M131.852 305.149C131.392 301.909 131.012 299.909 130.872 297.899C130.812 297.069 131.022 295.949 131.562 295.379C133.322 293.519 135.442 291.999 137.122 290.079C138.792 288.169 140.082 285.939 142.312 284.099C140.442 290.199 138.742 296.369 136.572 302.359C136.142 303.519 133.882 304.009 131.852 305.149Z" stroke="#ED1C24" stroke-width="2" stroke-miterlimit="10"/>
<path d="M201.632 212.269C203.152 219.489 204.682 226.709 206.282 234.289C199.722 231.669 197.252 227.349 198.492 221.519C199.142 218.489 199.802 215.449 200.462 212.419C200.852 212.369 201.242 212.319 201.632 212.269Z" stroke="#ED1C24" stroke-width="2" stroke-miterlimit="10"/>
<path d="M79.112 100.659C87.852 99.7995 97.412 106.399 99.412 115.319C92.122 110.619 85.312 106.229 78.512 101.839C78.712 101.449 78.912 101.049 79.112 100.659Z" stroke="#ED1C24" stroke-width="2" stroke-miterlimit="10"/>
<path d="M172.762 219.779C174.162 232.059 174.272 244.299 171.432 256.449C171.432 244.209 171.432 231.979 171.432 219.739C171.872 219.759 172.312 219.769 172.762 219.779Z" stroke="#ED1C24" stroke-width="2" stroke-miterlimit="10"/>
<path d="M118.502 290.849C121.662 292.649 125.202 293.799 127.412 296.189C129.232 298.159 129.482 301.599 130.432 304.429C123.542 306.069 123.182 305.929 121.302 300.339C120.232 297.139 119.392 293.869 118.502 290.849Z" stroke="#ED1C24" stroke-width="2" stroke-miterlimit="10"/>
<path d="M255.262 211.809C254.692 224.819 254.112 237.819 253.542 250.829C248.752 237.679 253.812 224.869 253.762 211.879C254.262 211.849 254.762 211.829 255.262 211.809Z" stroke="#ED1C24" stroke-width="2" stroke-miterlimit="10"/>
<path d="M155.822 227.789C158.162 214.559 160.512 201.339 162.852 188.119C163.102 188.019 163.362 187.919 163.612 187.819C164.132 189.709 165.442 191.769 165.052 193.449C162.402 204.969 159.412 216.419 156.522 227.889C156.302 227.859 156.062 227.819 155.822 227.789Z" stroke="#ED1C24" stroke-width="2" stroke-miterlimit="10"/>
<path d="M74.4919 172.589C76.0419 165.969 77.3519 160.379 78.6719 154.799C84.3019 161.579 82.9419 167.089 74.4919 172.589Z" stroke="#ED1C24" stroke-width="2" stroke-miterlimit="10"/>
<path d="M84.722 161.649C81.482 150.619 80.392 152.299 89.532 146.119C89.532 151.969 90.822 157.709 84.722 161.649Z" stroke="#ED1C24" stroke-width="2" stroke-miterlimit="10"/>
<path d="M100.442 138.579C101.492 142.159 100.962 145.149 97.732 147.579C95.832 149.009 94.342 150.989 92.542 152.859C90.852 145.409 91.252 144.589 97.492 141.029C98.592 140.409 99.462 139.399 100.442 138.559C100.442 138.559 100.442 138.579 100.442 138.579Z" stroke="#ED1C24" stroke-width="2" stroke-miterlimit="10"/>
<path d="M177.262 131.149C176.342 137.569 175.422 143.999 174.492 150.469C169.392 148.619 170.552 142.989 177.262 131.149Z" stroke="#ED1C24" stroke-width="2" stroke-miterlimit="10"/>
<path d="M134.842 140.449C133.512 136.499 138.652 128.669 144.642 124.009C144.152 131.149 138.232 134.519 134.842 140.449Z" stroke="#ED1C24" stroke-width="2" stroke-miterlimit="10"/>
<path d="M130.102 306.569C130.472 308.379 131.012 310.079 131.082 311.789C131.122 312.799 130.392 313.839 130.002 314.869C129.132 314.379 127.942 314.099 127.442 313.359C126.122 311.359 125.092 309.169 123.692 306.579C125.982 306.569 127.842 306.569 130.102 306.569Z" stroke="#ED1C24" stroke-width="2" stroke-miterlimit="10"/>
<path d="M96.412 264.229C101.132 269.299 100.582 276.069 100.972 282.539C99.002 276.579 97.042 270.619 95.072 264.669C95.522 264.519 95.962 264.379 96.412 264.229Z" stroke="#ED1C24" stroke-width="2" stroke-miterlimit="10"/>
<path d="M103.602 136.039C103.602 131.209 103.602 127.039 103.602 122.719C108.532 128.089 108.702 132.239 103.602 136.039Z" stroke="#ED1C24" stroke-width="2" stroke-miterlimit="10"/>
<path d="M430.162 165.939C429.032 159.569 427.892 153.209 426.762 146.839C427.302 146.739 427.852 146.649 428.392 146.549C431.072 152.649 430.672 159.299 431.312 165.769C430.932 165.829 430.552 165.879 430.162 165.939Z" stroke="#ED1C24" stroke-width="2" stroke-miterlimit="10"/>
<path d="M81.2419 244.499C79.8119 240.349 78.3819 236.199 76.7819 231.529C78.8119 232.019 80.3119 232.389 82.0319 232.809C82.0319 236.669 82.0319 240.549 82.0319 244.429C81.7619 244.459 81.5019 244.479 81.2419 244.499Z" stroke="#ED1C24" stroke-width="2" stroke-miterlimit="10"/>
<path d="M171.382 204.219C170.452 198.859 166.802 194.679 168.322 189.349C170.422 193.929 175.212 197.839 171.382 204.219Z" stroke="#ED1C24" stroke-width="2" stroke-miterlimit="10"/>
<path d="M165.712 187.949C161.762 183.179 164.812 177.939 164.302 172.939C164.662 172.909 165.032 172.869 165.392 172.839C165.962 177.889 166.532 182.939 167.112 187.999C166.642 187.979 166.172 187.959 165.712 187.949Z" stroke="#ED1C24" stroke-width="2" stroke-miterlimit="10"/>
<path d="M127.392 155.189C129.652 151.449 131.912 147.709 134.172 143.979C134.662 144.229 135.162 144.479 135.652 144.729C135.492 149.499 131.112 152.189 129.362 156.169C128.702 155.849 128.042 155.519 127.392 155.189Z" stroke="#ED1C24" stroke-width="2" stroke-miterlimit="10"/>
<path d="M162.122 131.049C160.082 126.959 158.042 122.869 155.622 118.039C160.322 119.899 162.542 124.469 162.122 131.049Z" stroke="#ED1C24" stroke-width="2" stroke-miterlimit="10"/>
<path d="M151.942 115.549C150.542 116.189 149.392 116.719 147.882 117.409C147.882 113.739 147.882 110.499 147.882 107.259C148.082 107.189 148.272 107.109 148.472 107.039C149.582 109.789 150.702 112.529 151.942 115.549Z" stroke="#ED1C24" stroke-width="2" stroke-miterlimit="10"/>
<path d="M133.352 141.419C131.172 144.959 128.982 148.489 126.802 152.029C126.372 151.799 125.942 151.559 125.512 151.329C127.522 147.739 129.522 144.149 131.532 140.549C132.142 140.839 132.752 141.129 133.352 141.419Z" stroke="#ED1C24" stroke-width="2" stroke-miterlimit="10"/>
<path d="M108.062 223.229C108.392 217.639 108.722 212.059 109.052 206.469C109.102 206.479 109.162 206.489 109.212 206.499C109.212 212.089 109.212 217.679 109.212 223.269C108.822 223.259 108.442 223.249 108.062 223.229Z" stroke="#ED1C24" stroke-width="2" stroke-miterlimit="10"/>
<path d="M109.492 229.829C109.492 235.039 109.492 240.239 109.492 245.449C109.432 245.469 109.362 245.479 109.302 245.499C108.932 240.289 108.562 235.069 108.192 229.859C108.622 229.849 109.052 229.839 109.492 229.829Z" stroke="#ED1C24" stroke-width="2" stroke-miterlimit="10"/>
<path d="M54.6219 201.379C54.6219 198.809 54.6219 196.239 54.6219 193.369C58.3219 196.189 56.3019 198.789 54.6219 201.379Z" stroke="#ED1C24" stroke-width="2" stroke-miterlimit="10"/>
<path d="M38.3119 172.279C42.8919 175.939 39.3419 178.179 37.8619 180.599C37.9919 178.179 38.1219 175.759 38.3119 172.279Z" stroke="#ED1C24" stroke-width="2" stroke-miterlimit="10"/>
<path d="M165.772 153.039C165.772 149.099 165.772 146.299 165.772 143.159C169.692 146.099 167.972 148.979 165.772 153.039Z" stroke="#ED1C24" stroke-width="2" stroke-miterlimit="10"/>
<path d="M161.242 178.109C156.992 174.419 160.502 172.409 162.332 170.119C161.992 172.619 161.652 175.109 161.242 178.109Z" stroke="#ED1C24" stroke-width="2" stroke-miterlimit="10"/>
<path d="M152.642 118.489C150.892 120.489 149.152 122.479 147.062 124.869C146.252 120.139 149.442 119.259 152.642 118.489Z" stroke="#ED1C24" stroke-width="2" stroke-miterlimit="10"/>
<path d="M472.352 266.109C469.752 260.539 466.752 255.119 464.642 249.369C460.102 236.999 457.332 224.179 458.502 210.949C459.042 204.799 460.962 198.749 462.492 192.709C462.762 191.629 464.162 190.829 465.042 189.899C465.832 190.929 467.112 191.849 467.342 192.989C469.242 202.169 471.712 211.329 472.542 220.619C473.872 235.509 474.082 250.489 474.762 265.439C473.962 265.659 473.162 265.879 472.352 266.109Z" stroke="#ED1C24" stroke-width="2" stroke-miterlimit="10"/>
<path d="M471.042 287.059C457.572 269.999 458.512 249.539 457.452 229.579C457.842 231.939 458.172 234.319 458.622 236.669C459.082 239.079 459.622 241.469 460.192 243.849C462.432 253.209 465.302 262.259 472.662 269.099C472.952 269.369 473.432 269.709 473.432 269.999C473.302 275.729 473.482 281.509 471.042 287.059Z" stroke="#ED1C24" stroke-width="2" stroke-miterlimit="10"/>
<path d="M828.73 31.2767V27.5853H819.282V34.1625H827.499V36.9164H819.282V44.1527H828.73V40.1244H831.454V46.9066H813.1V44.1527H815.942V27.5853H813.1V24.8314H831.454V31.2767H828.73ZM838.779 34.2211L841.562 37.2533L844.155 34.2211H842.587V31.5111H849.853V34.2211H847.304L843.246 38.8353L848.139 44.2113H849.853V46.9066H842.587V44.2113H844.565L841.503 40.725L838.486 44.2113H840.463V46.9066H833.022V44.2113H835.263L839.892 39.0111L835.512 34.2211H833.403V31.5111H840.639V34.2211H838.779ZM869.438 39.2894C869.438 40.725 869.106 42.0677 868.442 43.3177C867.778 44.5677 866.87 45.5541 865.717 46.2767C864.575 46.9994 863.305 47.3607 861.909 47.3607C859.848 47.3607 858.046 46.5697 856.503 44.9877V51.1107H859.506V53.806H850.688V51.1107H853.471V34.2211H850.893V31.5111H856.503V33.972C857.265 33.0736 858.105 32.4047 859.023 31.9652C859.941 31.5258 860.922 31.306 861.967 31.306C863.422 31.306 864.716 31.6674 865.849 32.39C866.982 33.1029 867.861 34.0697 868.486 35.2904C869.121 36.5111 869.438 37.8441 869.438 39.2894ZM861.865 44.5922C862.704 44.5922 863.461 44.348 864.135 43.8597C864.809 43.3715 865.336 42.7074 865.717 41.8676C866.098 41.0277 866.288 40.139 866.288 39.2015C866.288 38.2543 866.079 37.3851 865.659 36.5941C865.239 35.7933 864.663 35.1586 863.93 34.6898C863.198 34.2113 862.372 33.972 861.454 33.972C860.497 33.972 859.638 34.226 858.876 34.7338C858.115 35.2318 857.524 35.8959 857.104 36.726C856.684 37.556 856.474 38.4691 856.474 39.4652C856.474 41.0668 856.977 42.3217 857.983 43.2299C858.998 44.1381 860.292 44.5922 861.865 44.5922ZM879.238 44.2113V46.9066H871.137V44.2113H873.862V27.4974H871.137V24.8314H876.894V44.2113H879.238ZM897.519 39.2308C897.519 40.725 897.163 42.0922 896.45 43.3324C895.737 44.5726 894.765 45.5541 893.535 46.2767C892.304 46.9994 890.942 47.3607 889.448 47.3607C887.905 47.3607 886.513 46.9994 885.273 46.2767C884.033 45.5541 883.066 44.5726 882.372 43.3324C881.689 42.0922 881.347 40.725 881.347 39.2308C881.347 37.6683 881.689 36.2719 882.372 35.0414C883.066 33.8109 884.028 32.849 885.258 32.1556C886.489 31.4525 887.885 31.101 889.448 31.101C890.961 31.101 892.333 31.472 893.564 32.2142C894.794 32.9467 895.761 33.933 896.464 35.1732C897.167 36.4135 897.519 37.766 897.519 39.2308ZM889.448 44.4164C890.346 44.4164 891.171 44.182 891.923 43.7133C892.675 43.2445 893.261 42.6146 893.681 41.8236C894.101 41.0326 894.311 40.1683 894.311 39.2308C894.311 38.3129 894.101 37.4584 893.681 36.6674C893.261 35.8763 892.675 35.2416 891.923 34.7631C891.171 34.2748 890.336 34.0306 889.418 34.0306C888.52 34.0306 887.695 34.2699 886.943 34.7484C886.191 35.2172 885.6 35.8519 885.17 36.6527C884.741 37.4535 884.526 38.3129 884.526 39.2308C884.526 40.1488 884.741 41.0082 885.17 41.809C885.6 42.6097 886.196 43.2445 886.957 43.7133C887.719 44.182 888.549 44.4164 889.448 44.4164ZM905.414 40.725V44.2113H908.769V46.9066H899.321V44.2113H902.412V34.2211H899.321V31.5111H904.814V34.9974C905.429 33.6205 906.191 32.6635 907.099 32.1263C908.017 31.5795 909.326 31.306 911.025 31.306H911.713V34.3676H911.054C909.413 34.3676 908.193 34.5824 907.392 35.0121C906.591 35.4418 906.059 36.0912 905.795 36.9603C905.541 37.8295 905.414 39.0844 905.414 40.725ZM927.841 39.9779H914.936C915.121 41.4525 915.693 42.6195 916.65 43.4789C917.607 44.3285 918.779 44.7533 920.165 44.7533C921.181 44.7533 922.123 44.5433 922.993 44.1234C923.862 43.7035 924.589 43.059 925.175 42.1898L927.841 43.391C927.001 44.6996 925.898 45.6908 924.531 46.3646C923.173 47.0287 921.694 47.3607 920.092 47.3607C918.432 47.3607 916.957 47.014 915.668 46.3207C914.379 45.6273 913.373 44.6605 912.651 43.4203C911.938 42.1801 911.581 40.7836 911.581 39.2308C911.581 37.6879 911.933 36.2963 912.636 35.056C913.349 33.8158 914.321 32.849 915.551 32.1556C916.782 31.4525 918.139 31.101 919.623 31.101C921.245 31.101 922.656 31.4623 923.857 32.1849C925.068 32.8978 926.02 33.9232 926.713 35.2611C927.407 36.5892 927.783 38.1615 927.841 39.9779ZM919.682 33.6205C918.539 33.6205 917.538 34.0062 916.679 34.7777C915.82 35.5394 915.268 36.5502 915.024 37.8099H924.663C924.379 36.5502 923.779 35.5394 922.861 34.7777C921.943 34.0062 920.883 33.6205 919.682 33.6205ZM955.014 27.5853H951.865V24.8314H960.917V27.5853H957.68V47.141H954.252L943.662 28.2738V44.1527H946.826V46.9066H937.788V44.1527H940.937V27.5853H937.788V24.8314H945.317L955.014 41.9847V27.5853ZM975.844 36.9457V44.2113H978.422V46.9066H973.178V45.017C971.713 46.4525 970.082 47.1703 968.286 47.1703C967.338 47.1703 966.469 46.9506 965.678 46.5111C964.897 46.0717 964.267 45.4857 963.788 44.7533C963.32 44.0111 963.085 43.1908 963.085 42.2924C963.085 41.3256 963.344 40.4662 963.862 39.7142C964.389 38.9525 965.097 38.3666 965.986 37.9564C966.874 37.5463 967.768 37.3412 968.666 37.3412C970.17 37.3412 971.572 37.7806 972.871 38.6595V37.0043C972.871 35.8031 972.617 34.9437 972.109 34.4261C971.601 33.9086 970.766 33.6498 969.604 33.6498C968.784 33.6498 968.095 33.8011 967.538 34.1039C966.992 34.3969 966.538 34.8461 966.176 35.4515L963.276 34.7338C963.93 33.5131 964.814 32.6049 965.927 32.0092C967.04 31.4037 968.364 31.101 969.897 31.101C971.957 31.101 973.461 31.5697 974.409 32.5072C975.366 33.4447 975.844 34.9242 975.844 36.9457ZM968.696 44.8412C970.18 44.8412 971.572 44.2211 972.871 42.9808V41.1791C971.552 40.1537 970.234 39.641 968.915 39.641C968.115 39.641 967.421 39.8949 966.835 40.4027C966.259 40.9008 965.971 41.5306 965.971 42.2924C965.971 43.0248 966.225 43.6351 966.733 44.1234C967.241 44.6019 967.895 44.8412 968.696 44.8412ZM987.841 31.5111V34.2211H985.029V42.2924C985.029 43.1322 985.117 43.6791 985.292 43.933C985.478 44.1771 985.79 44.2992 986.23 44.2992C986.767 44.2992 987.304 44.2064 987.841 44.0209V46.7601C986.904 47.0336 986.147 47.1703 985.571 47.1703C984.301 47.1703 983.388 46.8529 982.831 46.2181C982.275 45.5736 981.996 44.475 981.996 42.9222V34.2211H979.99V31.5111H981.996V29.182L985.029 26.4135V31.5111H987.841ZM1006.18 39.9779H993.276C993.461 41.4525 994.033 42.6195 994.99 43.4789C995.947 44.3285 997.119 44.7533 998.505 44.7533C999.521 44.7533 1000.46 44.5433 1001.33 44.1234C1002.2 43.7035 1002.93 43.059 1003.52 42.1898L1006.18 43.391C1005.34 44.6996 1004.24 45.6908 1002.87 46.3646C1001.51 47.0287 1000.03 47.3607 998.432 47.3607C996.772 47.3607 995.297 47.014 994.008 46.3207C992.719 45.6273 991.713 44.6605 990.991 43.4203C990.278 42.1801 989.921 40.7836 989.921 39.2308C989.921 37.6879 990.273 36.2963 990.976 35.056C991.689 33.8158 992.661 32.849 993.891 32.1556C995.121 31.4525 996.479 31.101 997.963 31.101C999.584 31.101 1001 31.4623 1002.2 32.1849C1003.41 32.8978 1004.36 33.9232 1005.05 35.2611C1005.75 36.5892 1006.12 38.1615 1006.18 39.9779ZM998.022 33.6205C996.879 33.6205 995.878 34.0062 995.019 34.7777C994.16 35.5394 993.608 36.5502 993.364 37.8099H1003C1002.72 36.5502 1002.12 35.5394 1001.2 34.7777C1000.28 34.0062 999.223 33.6205 998.022 33.6205ZM1011.56 29.0209V28.7279H1009.64V24.8314H1013.53V28.9916C1013.53 30.4174 1013.23 31.4476 1012.61 32.0824C1012.01 32.7074 1011.02 33.0492 1009.64 33.1078V31.4525C1010.92 31.2963 1011.56 30.4857 1011.56 29.0209ZM1026.32 32.1703V31.5111H1028.96V36.6234H1026.32V35.6859C1025.44 34.4261 1024.24 33.7963 1022.72 33.7963C1021.92 33.7963 1021.26 33.972 1020.76 34.3236C1020.25 34.6752 1019.99 35.1293 1019.99 35.6859C1019.99 36.184 1020.18 36.5746 1020.57 36.8578C1020.96 37.141 1021.83 37.39 1023.17 37.6049L1025.21 38.0004C1028.25 38.557 1029.77 40.0463 1029.77 42.4681C1029.77 43.8842 1029.21 45.0219 1028.11 45.8812C1027.02 46.7406 1025.56 47.1703 1023.74 47.1703C1023.02 47.1703 1022.31 47.0677 1021.61 46.8627C1020.91 46.6478 1020.33 46.3842 1019.86 46.0717V46.9066H1017.17V41.6332H1019.86V42.1605C1020.01 42.9027 1020.42 43.4984 1021.09 43.9476C1021.78 44.3969 1022.57 44.6215 1023.47 44.6215C1024.45 44.6215 1025.23 44.4506 1025.8 44.1088C1026.36 43.7572 1026.64 43.2396 1026.64 42.556C1026.64 42.058 1026.42 41.6869 1025.97 41.4427C1025.52 41.1888 1024.62 40.9301 1023.26 40.6664L1021.69 40.3295C1020.14 40.017 1019 39.4799 1018.28 38.7181C1017.56 37.9564 1017.2 36.9847 1017.2 35.8031C1017.2 34.8461 1017.46 34.0306 1017.99 33.3568C1018.52 32.6732 1019.21 32.1605 1020.04 31.8187C1020.87 31.4769 1021.72 31.306 1022.6 31.306C1024.08 31.306 1025.32 31.5941 1026.32 32.1703ZM1056.78 31.6429C1056.78 33.6547 1056.16 35.2855 1054.92 36.5355C1053.68 37.7855 1051.58 38.4203 1048.62 38.4398H1045.72V44.1527H1048.59V46.9066H1039.62V44.1527H1042.38V27.5853H1039.62V24.8314H1047.84C1050.06 24.8314 1051.82 25.0707 1053.11 25.5492C1054.42 26.0277 1055.36 26.7601 1055.93 27.7465C1056.49 28.723 1056.78 30.0219 1056.78 31.6429ZM1053.39 31.5697C1053.39 30.1927 1052.99 29.1869 1052.18 28.5521C1051.37 27.9076 1049.98 27.5853 1048.02 27.5853H1045.72V35.7738H1047.78C1049.14 35.7738 1050.22 35.6517 1051.03 35.4076C1051.85 35.1537 1052.44 34.724 1052.82 34.1185C1053.2 33.5033 1053.39 32.6537 1053.39 31.5697ZM1064.35 40.725V44.2113H1067.7V46.9066H1058.26V44.2113H1061.35V34.2211H1058.26V31.5111H1063.75V34.9974C1064.36 33.6205 1065.13 32.6635 1066.03 32.1263C1066.95 31.5795 1068.26 31.306 1069.96 31.306H1070.65V34.3676H1069.99C1068.35 34.3676 1067.13 34.5824 1066.33 35.0121C1065.53 35.4418 1064.99 36.0912 1064.73 36.9603C1064.48 37.8295 1064.35 39.0844 1064.35 40.725ZM1086.69 39.2308C1086.69 40.725 1086.33 42.0922 1085.62 43.3324C1084.91 44.5726 1083.93 45.5541 1082.7 46.2767C1081.47 46.9994 1080.11 47.3607 1078.62 47.3607C1077.07 47.3607 1075.68 46.9994 1074.44 46.2767C1073.2 45.5541 1072.24 44.5726 1071.54 43.3324C1070.86 42.0922 1070.52 40.725 1070.52 39.2308C1070.52 37.6683 1070.86 36.2719 1071.54 35.0414C1072.24 33.8109 1073.2 32.849 1074.43 32.1556C1075.66 31.4525 1077.06 31.101 1078.62 31.101C1080.13 31.101 1081.5 31.472 1082.73 32.2142C1083.96 32.9467 1084.93 33.933 1085.63 35.1732C1086.34 36.4135 1086.69 37.766 1086.69 39.2308ZM1078.62 44.4164C1079.52 44.4164 1080.34 44.182 1081.09 43.7133C1081.85 43.2445 1082.43 42.6146 1082.85 41.8236C1083.27 41.0326 1083.48 40.1683 1083.48 39.2308C1083.48 38.3129 1083.27 37.4584 1082.85 36.6674C1082.43 35.8763 1081.85 35.2416 1081.09 34.7631C1080.34 34.2748 1079.51 34.0306 1078.59 34.0306C1077.69 34.0306 1076.86 34.2699 1076.11 34.7484C1075.36 35.2172 1074.77 35.8519 1074.34 36.6527C1073.91 37.4535 1073.7 38.3129 1073.7 39.2308C1073.7 40.1488 1073.91 41.0082 1074.34 41.809C1074.77 42.6097 1075.37 43.2445 1076.13 43.7133C1076.89 44.182 1077.72 44.4164 1078.62 44.4164ZM1100.85 32.6244V31.5111H1103.55V37.3412H1100.85C1100.74 36.2181 1100.29 35.3636 1099.51 34.7777C1098.73 34.182 1097.82 33.8842 1096.8 33.8842C1095.92 33.8842 1095.13 34.1185 1094.42 34.5873C1093.73 35.056 1093.19 35.6908 1092.81 36.4916C1092.43 37.2924 1092.24 38.1664 1092.24 39.1136C1092.24 40.725 1092.67 42.0433 1093.53 43.0687C1094.39 44.0844 1095.52 44.5922 1096.93 44.5922C1099.11 44.5922 1100.64 43.5814 1101.54 41.5599L1104.06 42.7611C1102.65 45.8275 1100.22 47.3607 1096.8 47.3607C1095.26 47.3607 1093.9 46.9994 1092.71 46.2767C1091.52 45.5541 1090.6 44.5629 1089.94 43.3031C1089.3 42.0433 1088.97 40.6469 1088.97 39.1136C1088.97 37.6097 1089.3 36.2426 1089.96 35.0121C1090.62 33.7816 1091.53 32.8246 1092.68 32.141C1093.83 31.4476 1095.12 31.101 1096.53 31.101C1098.21 31.101 1099.65 31.6088 1100.85 32.6244ZM1122.2 39.9779H1109.29C1109.48 41.4525 1110.05 42.6195 1111.01 43.4789C1111.96 44.3285 1113.13 44.7533 1114.52 44.7533C1115.54 44.7533 1116.48 44.5433 1117.35 44.1234C1118.22 43.7035 1118.94 43.059 1119.53 42.1898L1122.2 43.391C1121.36 44.6996 1120.25 45.6908 1118.89 46.3646C1117.53 47.0287 1116.05 47.3607 1114.45 47.3607C1112.79 47.3607 1111.31 47.014 1110.02 46.3207C1108.73 45.6273 1107.73 44.6605 1107.01 43.4203C1106.29 42.1801 1105.94 40.7836 1105.94 39.2308C1105.94 37.6879 1106.29 36.2963 1106.99 35.056C1107.7 33.8158 1108.68 32.849 1109.91 32.1556C1111.14 31.4525 1112.49 31.101 1113.98 31.101C1115.6 31.101 1117.01 31.4623 1118.21 32.1849C1119.42 32.8978 1120.38 33.9232 1121.07 35.2611C1121.76 36.5892 1122.14 38.1615 1122.2 39.9779ZM1114.04 33.6205C1112.89 33.6205 1111.89 34.0062 1111.03 34.7777C1110.18 35.5394 1109.62 36.5502 1109.38 37.8099H1119.02C1118.73 36.5502 1118.13 35.5394 1117.22 34.7777C1116.3 34.0062 1115.24 33.6205 1114.04 33.6205ZM1133.81 32.1703V31.5111H1136.45V36.6234H1133.81V35.6859C1132.93 34.4261 1131.73 33.7963 1130.21 33.7963C1129.41 33.7963 1128.75 33.972 1128.25 34.3236C1127.74 34.6752 1127.48 35.1293 1127.48 35.6859C1127.48 36.184 1127.68 36.5746 1128.06 36.8578C1128.45 37.141 1129.32 37.39 1130.66 37.6049L1132.7 38.0004C1135.74 38.557 1137.26 40.0463 1137.26 42.4681C1137.26 43.8842 1136.7 45.0219 1135.6 45.8812C1134.51 46.7406 1133.05 47.1703 1131.23 47.1703C1130.51 47.1703 1129.8 47.0677 1129.1 46.8627C1128.4 46.6478 1127.82 46.3842 1127.35 46.0717V46.9066H1124.66V41.6332H1127.35V42.1605C1127.5 42.9027 1127.91 43.4984 1128.58 43.9476C1129.27 44.3969 1130.06 44.6215 1130.96 44.6215C1131.94 44.6215 1132.72 44.4506 1133.29 44.1088C1133.85 43.7572 1134.14 43.2396 1134.14 42.556C1134.14 42.058 1133.91 41.6869 1133.46 41.4427C1133.01 41.1888 1132.11 40.9301 1130.75 40.6664L1129.18 40.3295C1127.63 40.017 1126.49 39.4799 1125.77 38.7181C1125.05 37.9564 1124.69 36.9847 1124.69 35.8031C1124.69 34.8461 1124.95 34.0306 1125.48 33.3568C1126.02 32.6732 1126.7 32.1605 1127.53 31.8187C1128.36 31.4769 1129.21 31.306 1130.09 31.306C1131.57 31.306 1132.81 31.5941 1133.81 32.1703ZM1148.87 32.1703V31.5111H1151.51V36.6234H1148.87V35.6859C1147.99 34.4261 1146.79 33.7963 1145.27 33.7963C1144.47 33.7963 1143.81 33.972 1143.31 34.3236C1142.8 34.6752 1142.54 35.1293 1142.54 35.6859C1142.54 36.184 1142.73 36.5746 1143.11 36.8578C1143.51 37.141 1144.37 37.39 1145.72 37.6049L1147.76 38.0004C1150.8 38.557 1152.31 40.0463 1152.31 42.4681C1152.31 43.8842 1151.76 45.0219 1150.66 45.8812C1149.56 46.7406 1148.11 47.1703 1146.29 47.1703C1145.57 47.1703 1144.86 47.0677 1144.15 46.8627C1143.46 46.6478 1142.88 46.3842 1142.41 46.0717V46.9066H1139.72V41.6332H1142.41V42.1605C1142.56 42.9027 1142.97 43.4984 1143.64 43.9476C1144.33 44.3969 1145.12 44.6215 1146.02 44.6215C1147 44.6215 1147.78 44.4506 1148.34 44.1088C1148.91 43.7572 1149.19 43.2396 1149.19 42.556C1149.19 42.058 1148.97 41.6869 1148.52 41.4427C1148.07 41.1888 1147.17 40.9301 1145.81 40.6664L1144.24 40.3295C1142.69 40.017 1141.55 39.4799 1140.83 38.7181C1140.11 37.9564 1139.75 36.9847 1139.75 35.8031C1139.75 34.8461 1140.01 34.0306 1140.54 33.3568C1141.07 32.6732 1141.76 32.1605 1142.59 31.8187C1143.42 31.4769 1144.27 31.306 1145.15 31.306C1146.63 31.306 1147.87 31.5941 1148.87 32.1703ZM1189.27 36.975L1171.9 44.2699V41.5599L1185.92 35.891L1171.9 30.1342V27.4388L1189.27 34.7631V36.975Z" fill="black"/>
</g>
</a>
<defs>
<clipPath id="clip0">
<rect x="0.191956" y="0.579468" width="1286.66" height="475.04" fill="white"/>
</clipPath>
</defs>
</svg>
